<?xml version="1.0" standalone="no"?>
<!DOCTYPE svg PUBLIC "-//W3C//DTD SVG 1.1//EN" "http://www.w3.org/Graphics/SVG/1.1/DTD/svg11.dtd" >
<svg xmlns="http://www.w3.org/2000/svg" xmlns:xlink="http://www.w3.org/1999/xlink" version="1.1">
<metadata>
Created by FontForge 20170731 at Thu Oct 29 10:06:25 2020
 By Aleksey,,,
Copyright (C)2015 Commercial Type.
</metadata>
<defs>
<font id="VoltaModernDisplay-95Black" horiz-adv-x="1024" >
  <font-face 
    font-family="Volta Modern Display 95 Blk"
    font-weight="900"
    font-stretch="normal"
    units-per-em="2048"
    panose-1="0 0 0 0 0 0 0 0 0 0"
    ascent="1708"
    descent="-340"
    x-height="1042"
    cap-height="1464"
    bbox="-391 -522 2648 1925"
    underline-thickness="124"
    underline-position="-339"
    unicode-range="U+0020-FB04"
  />
<missing-glyph 
 />
    <glyph glyph-name="f_f" unicode="ff" horiz-adv-x="1404" 
d="M143 0v811h-129v233h129v48q0 177 90 264q68 65 200.5 84t275.5 2v-256q-34 1 -54 0t-47 -7.5t-41.5 -19t-25.5 -37.5t-11 -61v-17h265v58q0 177 90 264q68 66 202.5 84.5t298.5 1.5v-256q-45 1 -69 0t-54 -7t-45 -19t-25.5 -37.5t-10.5 -61.5v-27h204v-233h-204v-811
h-387v811h-265v-811h-387z" />
    <glyph glyph-name="fi" unicode="fi" horiz-adv-x="1280" 
d="M143 0v811h-129v233h129v58q0 177 90 264q68 66 203 84.5t299 1.5v-256q-30 1 -57 0t-50 -4t-41 -11t-30.5 -21.5t-19.5 -35.5t-7 -53v-27h205v-233h-205v-811h-387zM1227 1288q0 -85 -59 -139.5t-152 -54.5q-92 0 -150.5 54.5t-58.5 139.5t58.5 140t150.5 55
q93 0 152 -55t59 -140zM823 0v1044h387v-1044h-387z" />
    <glyph glyph-name="fl" unicode="fl" horiz-adv-x="1290" 
d="M823 0v1464h398v-1464h-398zM143 0v811h-129v233h129v58q0 177 90 264q68 66 203 84.5t299 1.5v-256q-30 1 -57 0t-50 -4t-41 -11t-30.5 -21.5t-19.5 -35.5t-7 -53v-27h205v-233h-205v-811h-387z" />
    <glyph glyph-name="f_f_i" unicode="ffi" horiz-adv-x="1931" 
d="M143 0v811h-129v233h129v48q0 177 90 264q68 65 200.5 84t275.5 2v-256q-34 1 -54 0t-47 -7.5t-41.5 -19t-25.5 -37.5t-11 -61v-17h265v58q0 177 90 264q68 66 202.5 84.5t298.5 1.5v-256q-45 1 -69 0t-54 -7t-45 -19t-25.5 -37.5t-10.5 -61.5v-27h204v-233h-204v-811
h-387v811h-265v-811h-387zM1878 1288q0 -85 -59 -139.5t-152 -54.5q-92 0 -150.5 54.5t-58.5 139.5t58.5 140t150.5 55q93 0 152 -55t59 -140zM1475 0v1044h387v-1044h-387z" />
    <glyph glyph-name="f_f_l" unicode="ffl" horiz-adv-x="1941" 
d="M1475 0v1464h397v-1464h-397zM143 0v811h-129v233h129v48q0 177 90 264q68 65 200.5 84t275.5 2v-256q-34 1 -54 0t-47 -7.5t-41.5 -19t-25.5 -37.5t-11 -61v-17h265v58q0 177 90 264q68 66 202.5 84.5t298.5 1.5v-256q-45 1 -69 0t-54 -7t-45 -19t-25.5 -37.5
t-10.5 -61.5v-27h204v-233h-204v-811h-387v811h-265v-811h-387z" />
    <glyph glyph-name=".notdef" 
 />
    <glyph glyph-name=".null" horiz-adv-x="0" 
 />
    <glyph glyph-name="nonmarkingreturn" horiz-adv-x="682" 
 />
    <glyph glyph-name="space" unicode=" " horiz-adv-x="305" 
 />
    <glyph glyph-name="exclam" unicode="!" horiz-adv-x="559" 
d="M176 528l-96 566v370h399v-370l-96 -566h-207zM279 403q93 0 153 -58t60 -148q0 -91 -60.5 -150t-152.5 -59t-151.5 59t-59.5 150t59.5 148.5t151.5 57.5z" />
    <glyph glyph-name="quotedbl" unicode="&#x22;" horiz-adv-x="956" 
d="M539 877v587h335v-587h-335zM82 877v587h336v-587h-336z" />
    <glyph glyph-name="numbersign" unicode="#" horiz-adv-x="1241" 
d="M512 631h201l28 168h-200zM168 0l57 332h-182l53 299h180l29 168h-180l53 299h180l54 307h235l-53 -307h201l53 307h235l-53 -307h184l-53 -299h-184l-29 -168h182l-53 -299h-180l-57 -332h-236l58 332h-201l-58 -332h-235z" />
    <glyph glyph-name="dollar" unicode="$" horiz-adv-x="1294" 
d="M575 -223v192q-262 17 -407.5 143.5t-149.5 352.5h402q15 -154 155 -182v272q-6 0 -8 2q-112 32 -172 53t-136 59.5t-112.5 81.5t-63 112t-26.5 159q0 96 40 173t111 126t164 76.5t203 32.5v126h127v-129q231 -14 361 -121.5t139 -316.5h-373q-9 64 -38.5 96.5
t-88.5 42.5v-241l60 -17q88 -26 154 -52.5t127 -65.5t99.5 -85.5t61.5 -111t23 -143.5q0 -135 -70.5 -234.5t-187 -150.5t-267.5 -58v-192h-127zM702 281q56 10 91.5 38.5t35.5 73.5q0 46 -28.5 71.5t-98.5 49.5v-233zM575 924v209q-64 -7 -96.5 -35.5t-32.5 -67.5
q0 -40 28 -61.5t101 -44.5z" />
    <glyph glyph-name="percent" unicode="%" horiz-adv-x="1841" 
d="M430 608q-168 0 -278.5 113.5t-110.5 298.5q0 184 109.5 298t279.5 114q175 0 284 -113.5t109 -298.5t-111 -298.5t-282 -113.5zM418 0l794 1405h209l-794 -1405h-209zM432 805q105 0 105 215q0 100 -25.5 159.5t-79.5 59.5q-104 0 -104 -219q0 -215 104 -215zM1407 -35
q-168 0 -278.5 113.5t-110.5 298.5q0 184 109.5 297.5t279.5 113.5q175 0 284 -113t109 -298t-111 -298.5t-282 -113.5zM1409 162q104 0 104 215q0 219 -104 219t-104 -219q0 -215 104 -215z" />
    <glyph glyph-name="ampersand" unicode="&#x26;" horiz-adv-x="1509" 
d="M719 961q110 58 110 159q0 45 -27.5 77t-74.5 32q-49 0 -76.5 -30t-27.5 -77q0 -83 96 -161zM623 287q84 0 161 41l-227 295q-108 -63 -108 -183q0 -70 47.5 -111.5t126.5 -41.5zM602 -18q-260 0 -406.5 125.5t-146.5 324.5q0 86 26 155.5t74.5 118.5t101.5 82.5
t124 63.5q-105 122 -105 264q0 165 119.5 270t327.5 105q197 0 320.5 -99.5t123.5 -269.5q0 -229 -280 -348l157 -192q37 69 54 133h331q-12 -90 -58.5 -190t-121.5 -195l273 -330h-478l-67 88q-178 -106 -369 -106z" />
    <glyph glyph-name="quotesingle" unicode="'" horiz-adv-x="499" 
d="M82 877v587h336v-587h-336z" />
    <glyph glyph-name="parenleft" unicode="(" horiz-adv-x="686" 
d="M315 -295q-96 168 -158.5 393t-62.5 480q0 285 61.5 543t159.5 423h328q-180 -454 -180 -966q0 -133 16 -261.5t45.5 -242.5t55.5 -194t63 -175h-328z" />
    <glyph glyph-name="parenright" unicode=")" horiz-adv-x="686" 
d="M43 -295q180 454 180 967q0 133 -16 261t-45.5 242t-55.5 194t-63 175h328q96 -169 158.5 -393t62.5 -479q0 -285 -61.5 -543.5t-159.5 -423.5h-328z" />
    <glyph glyph-name="asterisk" unicode="*" horiz-adv-x="983" 
d="M330 645l-174 127l163 215l-260 86l76 201l244 -88v278h225v-278l244 88l76 -201l-260 -86l163 -215l-170 -127l-163 225z" />
    <glyph glyph-name="plus" unicode="+" horiz-adv-x="1153" 
d="M397 170v340h-305v334h305v336h359v-336h305v-334h-305v-340h-359z" />
    <glyph glyph-name="comma" unicode="," horiz-adv-x="514" 
d="M84 -324v177q140 27 158 157q-89 -1 -143 51t-54 140t59 145t152 57q98 0 157.5 -76t59.5 -225q0 -187 -109 -298.5t-280 -127.5z" />
    <glyph glyph-name="hyphen" unicode="-" horiz-adv-x="677" 
d="M59 354v334h559v-334h-559z" />
    <glyph glyph-name="period" unicode="." horiz-adv-x="514" 
d="M256 403q93 0 153 -58t60 -148q0 -91 -60.5 -150t-152.5 -59t-151.5 59t-59.5 150t59.5 148.5t151.5 57.5z" />
    <glyph glyph-name="slash" unicode="/" horiz-adv-x="940" 
d="M20 0l521 1464h354l-520 -1464h-355z" />
    <glyph glyph-name="zero" unicode="0" horiz-adv-x="1380" 
d="M688 -33q-138 0 -258 52t-207.5 145.5t-137.5 231.5t-50 302t49 301.5t135.5 232.5t207 147.5t261.5 52.5q296 0 477 -201t181 -533q0 -219 -85.5 -386t-234.5 -256t-338 -89zM690 270q122 0 179 114t57 314t-57.5 317.5t-178.5 117.5t-178 -117.5t-57 -317.5t56.5 -314
t178.5 -114z" />
    <glyph glyph-name="one" unicode="1" horiz-adv-x="860" 
d="M336 0v815h-287v281q154 6 257.5 88.5t133.5 230.5h305v-1415h-409z" />
    <glyph glyph-name="two" unicode="2" horiz-adv-x="1257" 
d="M35 0q0 151 35.5 243.5t124.5 174.5q33 30 76 64.5t76 59.5t91 65.5t81.5 57t90.5 61.5t78 52q123 84 123 187q0 67 -43 106t-125 39q-100 0 -147 -61q-54 -69 -54 -193h-385q0 123 15 191.5t55 140.5q62 110 196.5 177t327.5 67q270 0 416.5 -125.5t146.5 -325.5
q0 -192 -114 -303q-78 -76 -245 -184t-222 -152v-4h573v-338h-1171z" />
    <glyph glyph-name="three" unicode="3" horiz-adv-x="1290" 
d="M668 -35q-312 0 -469 127q-174 139 -174 400h387q3 -102 62.5 -162t174.5 -60q93 0 143 45t50 115q0 154 -221 154h-82v266h69q99 0 154 36t55 107q0 62 -44.5 98.5t-125.5 36.5q-98 0 -146.5 -50.5t-56.5 -129.5h-376q0 214 156.5 349t428.5 135q251 0 406 -109.5
t155 -302.5q0 -178 -188 -266v-4q225 -92 225 -338q0 -91 -32 -166t-86.5 -126t-129.5 -86.5t-159 -52t-176 -16.5z" />
    <glyph glyph-name="four" unicode="4" horiz-adv-x="1318" 
d="M696 0v315h-659v334l661 766h396v-799h192v-301h-192v-315h-398zM332 616h364v420h-4l-360 -415v-5z" />
    <glyph glyph-name="five" unicode="5" horiz-adv-x="1284" 
d="M647 -35q-126 0 -231.5 27.5t-188 83t-134.5 146.5t-66 210h399q17 -72 74.5 -111.5t136.5 -39.5q91 0 144 57.5t53 157.5q0 91 -53.5 146.5t-145.5 55.5q-54 0 -100.5 -23t-71.5 -61h-379l149 789h914v-322h-612l-46 -196h5q35 33 101 56.5t153 23.5q220 0 356.5 -129
t136.5 -344q0 -247 -159 -387t-435 -140z" />
    <glyph glyph-name="six" unicode="6" horiz-adv-x="1312" 
d="M688 -33q-313 0 -482 193t-169 538q0 342 168 533q176 201 485 201q226 0 370.5 -102.5t184.5 -287.5h-393q-36 111 -162 111q-105 0 -171 -79t-81 -228h4q128 121 316 121q141 0 259.5 -59.5t190.5 -174t72 -262.5q0 -229 -164 -366.5t-428 -137.5zM674 260
q97 0 157 59.5t60 151.5t-60 151.5t-157 59.5q-96 0 -156.5 -59.5t-60.5 -151.5t60.5 -151.5t156.5 -59.5z" />
    <glyph glyph-name="seven" unicode="7" horiz-adv-x="1144" 
d="M227 0q6 145 38 285t78 250t107 211.5t118 173t118 131.5v4h-655v348h1077v-303q-194 -194 -324.5 -486t-136.5 -614h-420z" />
    <glyph glyph-name="eight" unicode="8" horiz-adv-x="1271" 
d="M633 -35q-278 0 -441 119.5t-163 310.5q0 109 59.5 194.5t171.5 137.5q-2 4 0 6q-176 93 -176 289q0 177 148 293.5t401 116.5q258 0 404.5 -109.5t146.5 -292.5q0 -86 -45 -159t-127 -123v-7q114 -46 172.5 -135t58.5 -205q0 -197 -165 -316.5t-445 -119.5zM633 854
q84 0 134 43.5t50 112.5t-50.5 113t-133.5 44t-132.5 -44t-49.5 -113t49.5 -112.5t132.5 -43.5zM637 252q92 0 149.5 48.5t57.5 129.5t-57.5 130.5t-149.5 49.5t-151.5 -49.5t-59.5 -130.5t59.5 -129.5t151.5 -48.5z" />
    <glyph glyph-name="nine" unicode="9" horiz-adv-x="1302" 
d="M639 709q96 0 156.5 61.5t60.5 153.5t-60.5 153.5t-156.5 61.5q-97 0 -157 -61.5t-60 -153.5t60 -153.5t157 -61.5zM635 -33q-232 0 -385.5 106t-188.5 287h385q17 -48 62.5 -81t118.5 -33q105 0 166 73q63 75 69 226h-4q-125 -121 -303 -121q-141 0 -259.5 60.5
t-190.5 176t-72 263.5q0 228 168 368t434 140q120 0 229.5 -37.5t186.5 -100.5q215 -174 215 -594q0 -165 -41 -307t-123 -237q-165 -189 -467 -189z" />
    <glyph glyph-name="colon" unicode=":" horiz-adv-x="526" 
d="M262 1057q93 0 153 -58.5t60 -148.5q0 -91 -60.5 -150t-152.5 -59t-151.5 59t-59.5 150t59.5 149t151.5 58zM262 403q93 0 153 -58t60 -148q0 -91 -60.5 -150t-152.5 -59t-151.5 59t-59.5 150t59.5 148.5t151.5 57.5z" />
    <glyph glyph-name="semicolon" unicode=";" horiz-adv-x="526" 
d="M262 1057q93 0 153 -58.5t60 -148.5q0 -91 -60.5 -150t-152.5 -59t-151.5 59t-59.5 150t59.5 149t151.5 58zM90 -324v177q140 27 158 157q-89 -1 -143 51t-54 140t59 145t152 57q98 0 157.5 -76t59.5 -225q0 -187 -109 -298.5t-280 -127.5z" />
    <glyph glyph-name="less" unicode="&#x3c;" horiz-adv-x="1030" 
d="M930 92l-846 354v369l846 354v-354l-303 -117l-195 -69v-4q111 -31 195 -60l303 -102v-371z" />
    <glyph glyph-name="equal" unicode="=" horiz-adv-x="1153" 
d="M92 707v319h969v-319h-969zM92 236v319h969v-319h-969z" />
    <glyph glyph-name="greater" unicode="&#x3e;" horiz-adv-x="1030" 
d="M100 92v354l303 117l195 70v4q-111 30 -195 59l-303 103v370l846 -354v-369z" />
    <glyph glyph-name="question" unicode="?" horiz-adv-x="1163" 
d="M385 528q0 144 10 193.5t60 103.5q29 32 77 62.5t82.5 49.5t61 52.5t26.5 77.5q0 49 -37.5 78t-93.5 29q-70 0 -113.5 -45.5t-43.5 -122.5h-394q3 228 160.5 356.5t421.5 128.5q149 0 267.5 -49t187.5 -143t69 -218q0 -64 -16 -116t-46 -88.5t-59.5 -60t-70.5 -46.5
q-20 -11 -50 -27t-44.5 -24t-32.5 -19.5t-29.5 -21.5t-19.5 -21q-19 -26 -25 -53.5t-6 -75.5h-342zM549 403q93 0 153 -58t60 -148q0 -91 -60.5 -150t-152.5 -59t-151.5 59t-59.5 150t59.5 148.5t151.5 57.5z" />
    <glyph glyph-name="at" unicode="@" horiz-adv-x="1875" 
d="M924 -223q-243 0 -437 96.5t-306.5 279.5t-112.5 422q0 168 50.5 312.5t138 248.5t204 178.5t249 111t271.5 36.5t265 -33t232 -98.5t184 -158t121.5 -217.5t43.5 -271q0 -251 -124.5 -389.5t-316.5 -138.5q-116 0 -197.5 42.5t-115.5 127.5h-4q-91 -154 -264 -154
q-153 0 -242.5 108t-89.5 293q0 215 104.5 350.5t286.5 135.5q156 0 221 -146h5l14 121h305l-63 -547q-15 -133 71 -133q33 0 63 16.5t57.5 51.5t44.5 101.5t17 156.5q0 193 -79 327t-216.5 197.5t-322.5 63.5q-140 0 -263.5 -47t-216.5 -133t-147.5 -217.5t-54.5 -290.5
q0 -133 42.5 -244t121.5 -192t199.5 -126t269.5 -45q169 0 360 72l72 -184q-189 -84 -440 -84zM909 414q67 0 110.5 66t43.5 171q0 73 -30 120.5t-81 47.5q-66 0 -108.5 -67.5t-42.5 -169.5q0 -75 27 -121.5t81 -46.5z" />
    <glyph glyph-name="A" unicode="A" horiz-adv-x="1503" 
d="M586 510h303l-92 287l-56 188h-4q-30 -116 -55 -188zM-8 0l540 1464h437l542 -1464h-454l-72 215h-496l-71 -215h-426z" />
    <glyph glyph-name="B" unicode="B" horiz-adv-x="1402" 
d="M88 0v1464h758q204 0 328 -94q139 -107 139 -289q0 -104 -45 -172t-138 -108v-6q119 -38 185.5 -132.5t66.5 -220.5q0 -230 -168 -350q-133 -92 -354 -92h-772zM508 895h266q63 0 100 30t37 87q0 56 -38.5 88.5t-100.5 32.5h-264v-238zM508 336h305q70 0 113 39t43 104
q0 68 -44.5 105t-113.5 37h-303v-285z" />
    <glyph glyph-name="C" unicode="C" horiz-adv-x="1472" 
d="M772 -35q-219 0 -388.5 99t-261 272t-91.5 391q0 217 92.5 391t262.5 273.5t386 99.5q245 0 410 -115q112 -77 178 -194.5t80 -259.5h-428q-8 89 -76.5 153t-169.5 64q-147 0 -224 -112.5t-77 -299.5q0 -183 82.5 -297.5t222.5 -114.5q109 0 176 64t78 166h432
q-9 -118 -59.5 -223.5t-130.5 -182.5q-93 -90 -213 -132t-281 -42z" />
    <glyph glyph-name="D" unicode="D" horiz-adv-x="1509" 
d="M88 0v1464h676q211 0 372 -86t252 -253.5t91 -395.5q0 -205 -71 -358.5t-204 -245.5q-181 -125 -459 -125h-657zM516 354h195q152 0 242.5 97t90.5 278q0 180 -89 280.5t-244 100.5h-195v-756z" />
    <glyph glyph-name="E" unicode="E" horiz-adv-x="1304" 
d="M88 0v1464h1141v-348h-713v-198h596v-322h-596v-229h733v-367h-1161z" />
    <glyph glyph-name="F" unicode="F" horiz-adv-x="1249" 
d="M88 0v1464h1129v-360h-701v-240h580v-332h-580v-532h-428z" />
    <glyph glyph-name="G" unicode="G" horiz-adv-x="1515" 
d="M1137 156q-132 -191 -420 -191q-301 0 -484 195q-202 214 -202 567q0 162 50 302t144 243q96 105 231.5 162t301.5 57q285 0 460.5 -139t211.5 -385h-414q-18 74 -82.5 123t-159.5 49q-149 0 -229 -113t-80 -299q0 -185 87 -301.5t239 -116.5q109 0 172.5 51t85.5 132
h-195v303h604v-795h-284l-33 156h-4z" />
    <glyph glyph-name="H" unicode="H" horiz-adv-x="1482" 
d="M88 0v1464h428v-536h451v536h428v-1464h-428v573h-451v-573h-428z" />
    <glyph glyph-name="I" unicode="I" horiz-adv-x="604" 
d="M88 0v1464h428v-1464h-428z" />
    <glyph glyph-name="J" unicode="J" horiz-adv-x="1175" 
d="M561 -27q-140 0 -247.5 40.5t-171 112t-95 161t-31.5 194.5v113h396v-117q0 -74 34 -110.5t97 -36.5q127 0 127 143v991h428v-1005q0 -202 -101 -320q-67 -78 -179.5 -122t-256.5 -44z" />
    <glyph glyph-name="K" unicode="K" horiz-adv-x="1472" 
d="M88 0v1464h428v-479l442 479h492l-547 -590l578 -874h-498l-373 580l-94 -107v-473h-428z" />
    <glyph glyph-name="L" unicode="L" horiz-adv-x="1167" 
d="M88 0v1464h428v-1097h627v-367h-1055z" />
    <glyph glyph-name="M" unicode="M" horiz-adv-x="1748" 
d="M465 918v-918h-377v1464h557l150 -546l75 -273h4l76 273l150 546h561v-1464h-387v918h-4l-72 -267l-172 -651h-313l-244 918h-4z" />
    <glyph glyph-name="N" unicode="N" horiz-adv-x="1501" 
d="M502 829v-829h-414v1464h428l381 -653l98 -170h4v823h414v-1464h-442l-359 641l-106 188h-4z" />
    <glyph glyph-name="O" unicode="O" horiz-adv-x="1548" 
d="M772 -35q-223 0 -392.5 99t-259 271.5t-89.5 391.5t89.5 392t259 272.5t392.5 99.5q168 0 308 -58t236 -159.5t149 -242.5t53 -304t-53 -303.5t-149 -242t-236 -159t-308 -57.5zM774 307q149 0 229 116.5t80 303.5t-80 304.5t-229 117.5t-229 -117.5t-80 -304.5
t80 -303.5t229 -116.5z" />
    <glyph glyph-name="P" unicode="P" horiz-adv-x="1363" 
d="M88 0v1464h674q267 0 418 -135q163 -144 163 -387q0 -214 -141.5 -355t-361.5 -141h-324v-446h-428zM516 778h232q77 0 123.5 47t46.5 123q0 74 -46.5 118t-128.5 44h-227v-332z" />
    <glyph glyph-name="Q" unicode="Q" horiz-adv-x="1548" 
d="M1331 -150l-196 197q-161 -82 -363 -82q-223 0 -392.5 99t-259 271.5t-89.5 391.5t89.5 392t259 272.5t392.5 99.5q168 0 308 -58t236 -159.5t149 -242.5t53 -304q0 -308 -177 -516l175 -174zM774 307q48 0 88 12l-137 138l184 186l138 -137q36 91 36 221
q0 187 -80 304.5t-229 117.5t-229 -117.5t-80 -304.5t80 -303.5t229 -116.5z" />
    <glyph glyph-name="R" unicode="R" horiz-adv-x="1415" 
d="M516 815h229q93 0 142 40t49 116q0 74 -47 115.5t-137 41.5h-236v-313zM88 0v1464h727q114 0 212.5 -26.5t175.5 -78.5t121 -137t44 -194q0 -247 -240 -356v-6q166 -63 205 -242q15 -70 19.5 -173.5t11 -162.5t29.5 -65v-23h-422q-18 13 -25 67t-13 138t-18 135
q-21 89 -65.5 129.5t-134.5 40.5h-199v-510h-428z" />
    <glyph glyph-name="S" unicode="S" horiz-adv-x="1347" 
d="M688 -35q-145 0 -266 31.5t-212.5 92.5t-143.5 157.5t-54 220.5h439q21 -172 245 -172q46 0 86.5 11.5t70.5 40t30 69.5q0 21 -6.5 37.5t-25 30.5t-35 23.5t-54 21t-62.5 18t-80 20.5q-11 3 -16 4q-65 16 -108.5 28.5t-105.5 34.5t-104 44.5t-88 58t-73.5 75.5
t-45.5 95.5t-18 120.5q0 98 31.5 177t86 131.5t132 88t165.5 51t190 15.5q93 0 177 -15.5t159 -50t129.5 -86t87 -127t34.5 -168.5h-424q-20 132 -186 132q-70 0 -115 -29t-45 -74q0 -14 4 -26t14.5 -22t21.5 -17.5t31.5 -15.5t38.5 -13.5t48 -13t54 -13t63 -14.5t69 -16
q69 -17 122.5 -34t113.5 -43.5t103 -61.5t79.5 -81t55 -109t18.5 -138q0 -116 -50 -210.5t-136 -155t-200 -92.5t-245 -32z" />
    <glyph glyph-name="T" unicode="T" horiz-adv-x="1323" 
d="M444 0v1100h-413v364h1261v-364h-420v-1100h-428z" />
    <glyph glyph-name="U" unicode="U" horiz-adv-x="1462" 
d="M731 -27q-324 0 -488.5 152.5t-164.5 433.5v905h428v-929q0 -104 57.5 -162t173.5 -58q106 0 162.5 62.5t56.5 165.5v921h428v-905q0 -276 -165.5 -431t-487.5 -155z" />
    <glyph glyph-name="V" unicode="V" horiz-adv-x="1398" 
d="M459 0l-469 1464h440l201 -688q16 -56 34 -127t27 -114l10 -43h5q36 159 71 284l197 688h434l-471 -1464h-479z" />
    <glyph glyph-name="W" unicode="W" horiz-adv-x="1974" 
d="M365 0l-375 1464h428l106 -501q16 -71 34 -173t28 -168l10 -67h4q39 219 76 387l112 522h388l112 -518q16 -76 34.5 -173.5t29.5 -157.5l10 -60h4q39 248 74 412l106 497h439l-386 -1464h-432l-131 621q-12 56 -25 127t-19 114l-7 43h-4q-24 -157 -51 -284l-127 -621
h-438z" />
    <glyph glyph-name="X" unicode="X" horiz-adv-x="1505" 
d="M-4 0l498 770l-453 694h494l227 -391h4l231 391h465l-440 -690l487 -774h-510l-251 457h-5l-266 -457h-481z" />
    <glyph glyph-name="Y" unicode="Y" horiz-adv-x="1425" 
d="M498 0v514l-502 950h465l155 -325q24 -49 48.5 -108t37.5 -93l13 -35h4q47 125 100 236l156 325h455l-504 -950v-514h-428z" />
    <glyph glyph-name="Z" unicode="Z" horiz-adv-x="1370" 
d="M49 0v352l547 629q22 25 51 55t47 47l19 17v6q-74 -8 -140 -8h-471v366h1180v-321l-543 -625q-30 -35 -67.5 -73t-59.5 -59l-22 -21v-7q82 9 172 9h559v-367h-1272z" />
    <glyph glyph-name="bracketleft" unicode="[" horiz-adv-x="847" 
d="M104 -295v1839h672v-297h-309v-1249h309v-293h-672z" />
    <glyph glyph-name="backslash" unicode="\" horiz-adv-x="940" 
d="M541 0l-521 1464h355l520 -1464h-354z" />
    <glyph glyph-name="bracketright" unicode="]" horiz-adv-x="847" 
d="M72 -295v293h309v1249h-309v297h671v-1839h-671z" />
    <glyph glyph-name="asciicircum" unicode="^" horiz-adv-x="991" 
d="M6 864l363 600h254l362 -600h-342l-149 266h-2l-156 -266h-330z" />
    <glyph glyph-name="underscore" unicode="_" horiz-adv-x="894" 
d="M-6 -346v237h907v-237h-907z" />
    <glyph glyph-name="grave" unicode="`" 
d="M408 1159l-273 318h445l118 -318h-290z" />
    <glyph glyph-name="a" unicode="a" horiz-adv-x="1144" 
d="M516 203q74 0 125 44t51 132v92q-63 -31 -149 -49q-83 -18 -115.5 -45t-32.5 -74q0 -49 35 -74.5t86 -25.5zM371 -27q-156 0 -252 82t-96 232q0 67 20.5 119.5t54 86.5t84 58.5t102.5 37t117 19.5q165 19 223 43t58 74q0 100 -111 100q-61 0 -95 -33t-42 -92h-366
q3 79 35 146.5t92 119.5t154 81.5t214 29.5q229 0 342 -69q162 -101 162 -314v-522q0 -71 8 -106.5t31 -49.5v-16h-381q-25 45 -35 115h-4q-104 -142 -315 -142z" />
    <glyph glyph-name="b" unicode="b" horiz-adv-x="1239" 
d="M766 -35q-103 0 -188.5 42t-135.5 128h-4v-135h-368v1464h387v-528h6q57 71 130.5 106t176.5 35q136 0 238 -75.5t153 -200t51 -277.5q0 -265 -119 -412t-327 -147zM639 260q88 0 134 71.5t46 196.5t-47 197t-133 72q-88 0 -142.5 -76.5t-54.5 -192.5q0 -117 54.5 -192.5
t142.5 -75.5z" />
    <glyph glyph-name="c" unicode="c" horiz-adv-x="1144" 
d="M600 -33q-255 0 -414 156.5t-159 396.5q0 158 71 284t202 198.5t300 72.5q218 0 357.5 -116t160.5 -302h-373q-31 148 -149 148q-87 0 -131.5 -75t-44.5 -210q0 -133 46 -206.5t134 -73.5q137 0 152 182h372q0 -196 -146 -325.5t-378 -129.5z" />
    <glyph glyph-name="d" unicode="d" horiz-adv-x="1247" 
d="M608 258q85 0 139 78t54 194q0 114 -54 191.5t-139 77.5t-136.5 -74.5t-51.5 -194.5q0 -121 51.5 -196.5t136.5 -75.5zM498 -35q-209 0 -340 148t-131 411q0 246 129 399.5t338 153.5q105 0 169.5 -35t120.5 -108h7v530h387v-1464h-369v145h-4q-51 -87 -130.5 -133.5
t-176.5 -46.5z" />
    <glyph glyph-name="e" unicode="e" horiz-adv-x="1177" 
d="M598 -29q-254 0 -412.5 156t-158.5 397q0 156 69.5 282.5t197.5 199.5t290 73q231 0 385 -141q93 -86 139 -218.5t43 -291.5h-745q37 -195 204 -195q102 0 146 78h374q-17 -70 -69 -136t-129 -116q-138 -88 -334 -88zM406 633h360q-12 87 -58.5 136.5t-115.5 49.5
q-78 0 -124.5 -48.5t-61.5 -137.5z" />
    <glyph glyph-name="f" unicode="f" horiz-adv-x="753" 
d="M143 0v811h-129v233h129v58q0 177 90 264q68 66 203 84.5t299 1.5v-256q-30 1 -57 0t-50 -4t-41 -11t-30.5 -21.5t-19.5 -35.5t-7 -53v-27h205v-233h-205v-811h-387z" />
    <glyph glyph-name="g" unicode="g" horiz-adv-x="1193" 
d="M582 322q83 0 130.5 67t47.5 172q0 102 -48 169t-130 67q-81 0 -130 -65t-49 -171q0 -105 49 -172t130 -67zM582 -365q-225 0 -366.5 88.5t-168.5 258.5h373q12 -36 51.5 -62t103.5 -26q168 0 168 182v94h-8q-104 -119 -264 -119q-91 0 -170 31.5t-141 91.5t-97.5 156
t-35.5 215q0 149 52.5 270t150.5 191.5t223 70.5q201 0 297 -147h6v114h368v-919q0 -122 -41 -218t-112 -157q-135 -115 -389 -115z" />
    <glyph glyph-name="h" unicode="h" horiz-adv-x="1208" 
d="M70 0v1464h387v-538h6q63 73 138.5 112t178.5 39q178 0 272.5 -108t94.5 -293v-676h-387v582q0 84 -36.5 132t-109.5 48q-72 0 -114.5 -56t-42.5 -143v-563h-387z" />
    <glyph glyph-name="i" unicode="i" horiz-adv-x="526" 
d="M473 1288q0 -85 -59 -139.5t-152 -54.5q-92 0 -150.5 54.5t-58.5 139.5t58.5 140t150.5 55q93 0 152 -55t59 -140zM70 0v1044h387v-1044h-387z" />
    <glyph glyph-name="j" unicode="j" horiz-adv-x="526" 
d="M473 1288q0 -85 -59 -139.5t-152 -54.5q-92 0 -150.5 54.5t-58.5 139.5t58.5 140t150.5 55q93 0 152 -55t59 -140zM111 -356q-122 0 -220 20v264q45 -2 79 -1t56 10t33 33.5t11 70.5v1003h387v-1017q0 -202 -90 -295q-84 -88 -256 -88z" />
    <glyph glyph-name="k" unicode="k" horiz-adv-x="1175" 
d="M70 0v1464h381v-731l251 311h435l-349 -385l390 -659h-439l-209 375l-79 -88v-287h-381z" />
    <glyph glyph-name="l" unicode="l" horiz-adv-x="536" 
d="M70 0v1464h397v-1464h-397z" />
    <glyph glyph-name="m" unicode="m" horiz-adv-x="1849" 
d="M70 0v1044h368v-155h6q57 94 137 141t195 47q103 0 180 -47.5t117 -134.5h6q64 99 148.5 140.5t193.5 41.5q184 0 275.5 -115t91.5 -305v-657h-387v586q0 176 -133 176q-70 0 -108 -55.5t-38 -143.5v-563h-387v586q0 176 -133 176q-70 0 -107.5 -55.5t-37.5 -143.5v-563
h-387z" />
    <glyph glyph-name="n" unicode="n" horiz-adv-x="1208" 
d="M70 0v1044h368v-143h6q129 176 336 176q178 0 272.5 -108t94.5 -293v-676h-387v582q0 84 -36.5 132t-109.5 48q-72 0 -114.5 -56t-42.5 -143v-563h-387z" />
    <glyph glyph-name="o" unicode="o" horiz-adv-x="1196" 
d="M600 -33q-171 0 -302 72t-201 197.5t-70 283.5q0 241 158 398t415 157q170 0 300.5 -72.5t199.5 -198.5t69 -284q0 -242 -156 -397.5t-413 -155.5zM596 225q87 0 133.5 79.5t46.5 215.5t-46.5 215.5t-133.5 79.5t-131.5 -79.5t-44.5 -215.5t44.5 -215.5t131.5 -79.5z" />
    <glyph glyph-name="p" unicode="p" horiz-adv-x="1239" 
d="M639 250q86 0 133 68.5t47 189.5t-47.5 190.5t-132.5 69.5q-88 0 -142.5 -73t-54.5 -187q0 -115 54 -186.5t143 -71.5zM70 -346v1390h368v-122h6q120 155 326 155q136 0 238 -75.5t153 -200t51 -277.5q0 -256 -124.5 -407.5t-333.5 -151.5q-183 0 -291 133h-6v-444h-387z
" />
    <glyph glyph-name="q" unicode="q" horiz-adv-x="1239" 
d="M782 -346v448h-6q-107 -137 -295 -137q-206 0 -330 151.5t-124 407.5q0 155 51 278t158.5 199t255.5 76q196 0 303 -168h6v135h368v-1390h-387zM600 256q89 0 143 71.5t54 186.5q0 114 -54.5 187t-142.5 73q-85 0 -132.5 -69.5t-47.5 -190.5t47 -189.5t133 -68.5z" />
    <glyph glyph-name="r" unicode="r" horiz-adv-x="847" 
d="M70 0v1044h368v-157h6q61 96 138 138t180 42q43 0 63 -10v-330h-8q-172 30 -266 -47t-94 -252v-428h-387z" />
    <glyph glyph-name="s" unicode="s" horiz-adv-x="1071" 
d="M535 -35q-237 0 -381.5 98.5t-145.5 274.5h371q5 -65 45 -101t113 -36q60 0 96.5 22.5t36.5 67.5q0 19 -8 34.5t-24.5 26.5t-34.5 18.5t-47.5 14t-53 10.5t-60.5 9q-19 3 -28 4q-53 8 -90 16.5t-85.5 24t-81 39t-62.5 57.5t-45 84.5t-15 113.5q0 104 66 181t172.5 115
t236.5 38q235 0 361 -83.5t137 -239.5h-365q-12 94 -131 94q-47 0 -79 -19.5t-32 -56.5q0 -14 7 -25.5t23.5 -20t31.5 -14.5t45.5 -11.5t49.5 -8.5t58 -8q51 -7 84.5 -13t83.5 -19.5t83 -29t70.5 -43t59.5 -61.5t37 -84t15 -110q0 -121 -70 -203.5t-183 -119t-261 -36.5z
" />
    <glyph glyph-name="t" unicode="t" horiz-adv-x="757" 
d="M532 -20q-199 0 -290.5 70t-91.5 251v510h-136v233h136v338h378v-338h199v-233h-199v-424q0 -59 32 -80.5t99 -19.5q41 0 64 2v-285q-101 -24 -191 -24z" />
    <glyph glyph-name="u" unicode="u" horiz-adv-x="1204" 
d="M434 -33q-182 0 -277.5 109t-95.5 295v673h388v-581q0 -166 139 -166q75 0 117.5 49.5t42.5 134.5v563h387v-1044h-369v135h-6q-123 -168 -326 -168z" />
    <glyph glyph-name="v" unicode="v" horiz-adv-x="1140" 
d="M344 0l-358 1044h401l119 -401l67 -252h5q38 146 69 252l119 401h389l-358 -1044h-453z" />
    <glyph glyph-name="w" unicode="w" horiz-adv-x="1679" 
d="M319 0l-333 1044h399l102 -378q10 -36 22.5 -88.5t20.5 -86.5l7 -34h4q26 129 49 217l90 370h328l90 -370l49 -221h4q31 131 51 213l101 378h391l-332 -1044h-373l-106 434l-43 195h-4q-23 -115 -43 -195l-107 -434h-367z" />
    <glyph glyph-name="x" unicode="x" horiz-adv-x="1198" 
d="M12 0l346 543l-317 501h444l123 -237h4l121 237h412l-299 -493l340 -551h-445l-147 279h-4l-156 -279h-422z" />
    <glyph glyph-name="y" unicode="y" horiz-adv-x="1148" 
d="M117 -346v299h129q64 0 92.5 18.5t28.5 59.5q0 32 -48 149l-333 864h407l129 -419q15 -47 30.5 -110.5t23.5 -103.5l8 -40h4q30 148 63 254l127 419h385l-356 -1044q-65 -190 -163 -268t-259 -78h-268z" />
    <glyph glyph-name="z" unicode="z" horiz-adv-x="1075" 
d="M43 0v281l367 372l102 97v6q-81 -4 -147 -4h-285v290h917v-266l-346 -354l-133 -127v-6q76 4 170 4h344v-293h-989z" />
    <glyph glyph-name="braceleft" unicode="{" horiz-adv-x="847" 
d="M739 -295q-139 0 -231 18.5t-158.5 64.5t-96.5 126.5t-30 202.5v215q0 73 -40 109t-132 40v287q92 4 132 40.5t40 109.5v215q0 122 30 202.5t96.5 126.5t158.5 64t231 18h37v-297h-18q-97 0 -134.5 -21t-37.5 -91v-277q0 -70 -17.5 -115t-46.5 -69t-80 -45v-6
q51 -21 80 -45.5t46.5 -69.5t17.5 -115v-278q0 -70 38 -93.5t134 -23.5h18v-293h-37z" />
    <glyph glyph-name="bar" unicode="|" horiz-adv-x="444" 
d="M104 -295v1839h236v-1839h-236z" />
    <glyph glyph-name="braceright" unicode="}" horiz-adv-x="847" 
d="M72 -295v293h18q97 0 134.5 21.5t37.5 91.5v280q0 70 17.5 115t46.5 69.5t80 45.5v6q-51 21 -80 45t-46.5 69t-17.5 115v274q0 70 -38 93.5t-134 23.5h-18v297h37q139 0 231 -18t158.5 -64t96.5 -126.5t30 -202.5v-215q0 -73 40 -109.5t132 -40.5v-287q-91 -4 -131.5 -40
t-40.5 -109v-215q0 -122 -30 -202.5t-96.5 -126.5t-158.5 -64.5t-231 -18.5h-37z" />
    <glyph glyph-name="asciitilde" unicode="~" horiz-adv-x="940" 
d="M31 465q0 194 79 296.5t199 102.5q52 0 89 -12t81 -37q38 -21 51 -28t32 -13t38 -6q37 0 54 24.5t20 71.5h235q0 -181 -67 -283t-193 -102q-86 0 -170 43q-80 41 -104 46q-15 3 -31 3q-33 0 -53.5 -28.5t-26.5 -77.5h-233z" />
    <glyph glyph-name="uni00A0" unicode="&#xa0;" horiz-adv-x="305" 
 />
    <glyph glyph-name="exclamdown" unicode="&#xa1;" horiz-adv-x="559" 
d="M383 676l96 -565v-371h-399v371l96 565h207zM281 801q-93 0 -153 58.5t-60 148.5q0 91 60.5 150t152.5 59t151.5 -59t59.5 -150t-59.5 -149t-151.5 -58z" />
    <glyph glyph-name="cent" unicode="&#xa2;" horiz-adv-x="1153" 
d="M520 248v549q-60 -25 -91.5 -97t-31.5 -180q0 -218 123 -272zM520 -233v204q-226 22 -359.5 173t-133.5 376q0 224 133.5 376t359.5 175v146h127v-144q194 -17 315 -130t138 -286h-348q-25 110 -105 140v-553q99 36 111 178h348q0 -184 -125.5 -310t-333.5 -143v-202
h-127z" />
    <glyph glyph-name="sterling" unicode="&#xa3;" horiz-adv-x="1234" 
d="M885 -33q-71 0 -134 16t-102 35.5t-92 35.5t-106 16q-59 0 -111.5 -23.5t-114.5 -69.5l-188 289q89 55 140.5 122.5t51.5 135.5q0 34 -6 64h-174v205h72q-51 90 -51 188q0 198 147.5 324.5t419.5 126.5q249 0 395 -113q87 -66 130 -162.5t46 -247.5h-385q0 209 -178 209
q-74 0 -111.5 -40t-37.5 -109q0 -33 9.5 -66t19.5 -54t30 -56h252v-205h-189v-10q0 -124 -147 -224l4 -6q63 25 139 25q79 0 147.5 -21.5t115.5 -21.5q89 0 174 76l155 -318q-61 -54 -146.5 -87.5t-174.5 -33.5z" />
    <glyph glyph-name="currency" unicode="&#xa4;" horiz-adv-x="1048" 
d="M201 201l-172 168l131 131q-51 94 -51 215q0 119 51 213l-131 135l172 168l133 -139q84 41 190 41q105 0 189 -41l135 139l172 -168l-135 -135q53 -92 53 -213q0 -119 -51 -213l133 -133l-172 -168l-135 137q-86 -39 -189 -39q-109 0 -188 39zM524 487q85 0 130.5 61.5
t45.5 166.5t-45.5 167t-130.5 62q-86 0 -134 -62t-48 -167t48 -166.5t134 -61.5z" />
    <glyph glyph-name="yen" unicode="&#xa5;" horiz-adv-x="1380" 
d="M485 0v233h-333v144h333v104h-333v144h282l-438 780h446l150 -303q23 -46 46.5 -101.5t35.5 -87.5l12 -32h4q45 117 96 221l150 303h436l-440 -780h282v-144h-333v-104h333v-144h-333v-233h-396z" />
    <glyph glyph-name="brokenbar" unicode="&#xa6;" horiz-adv-x="444" 
d="M104 803v741h236v-741h-236zM104 -295v764h236v-764h-236z" />
    <glyph glyph-name="section" unicode="&#xa7;" horiz-adv-x="1347" 
d="M852 408q88 19 88 79q0 38 -43.5 63.5t-172.5 77.5l-7.5 3t-7 3t-7.5 3q-132 52 -223 96q-78 -17 -78 -80q0 -37 42 -62.5t180 -83.5q8 -4 13 -6t13 -5.5t15 -6.5q23 -10 87.5 -37t100.5 -44zM713 -391q-234 0 -372.5 107t-147.5 321h339q0 -65 42 -102t124 -37
q64 0 100 29.5t36 78.5q0 20 -7 36t-24.5 30t-36.5 24.5t-55 24.5t-67 24.5t-84.5 29t-96.5 34.5q-97 36 -161 68.5t-121.5 79t-85 107.5t-27.5 140q0 118 66 197t173 108q-40 42 -59 88t-19 123q0 158 130.5 264.5t336.5 106.5q104 0 191 -25t154.5 -75t106.5 -132t42 -188
h-324q-5 70 -38.5 105.5t-110.5 35.5q-61 0 -92 -26.5t-31 -69.5q0 -14 3.5 -25.5t12 -22t18.5 -19t28 -18.5t34.5 -18t44.5 -19t51.5 -20.5t62 -24t69.5 -27.5q84 -34 143 -66t117 -77.5t88 -105t30 -130.5q0 -225 -223 -289q117 -93 117 -246q0 -189 -130.5 -294
t-346.5 -105z" />
    <glyph glyph-name="dieresis" unicode="&#xa8;" 
d="M936 1296q0 -79 -52.5 -130.5t-135.5 -51.5q-82 0 -135.5 52t-53.5 130q0 79 53.5 131t135.5 52q83 0 135.5 -51.5t52.5 -131.5zM465 1296q0 -78 -53.5 -130t-135.5 -52q-83 0 -135.5 51.5t-52.5 130.5q0 80 52.5 131.5t135.5 51.5q82 0 135.5 -52t53.5 -131z" />
    <glyph glyph-name="copyright" unicode="&#xa9;" horiz-adv-x="1675" 
d="M838 -35q-156 0 -295.5 58t-241 158.5t-160.5 242.5t-59 303q0 215 100.5 390.5t273.5 274.5t382 99q156 0 295.5 -58.5t240.5 -159t160 -243t59 -303.5q0 -215 -100.5 -390t-273 -273.5t-381.5 -98.5zM838 76q132 0 247.5 49.5t198 135.5t130.5 207t48 259t-48 259
t-130.5 207t-198 135.5t-247.5 49.5q-176 0 -319 -84.5t-224.5 -233.5t-81.5 -333t81.5 -333t224.5 -233.5t319 -84.5zM846 279q-199 0 -322 128.5t-123 327.5t124 329t321 130q139 0 246 -70q136 -90 155 -272h-270q-8 46 -42.5 76t-88.5 30q-79 0 -118.5 -61t-39.5 -162
q0 -99 43.5 -160t118.5 -61q57 0 93 32.5t42 80.5h272q-12 -145 -114 -244q-110 -104 -297 -104z" />
    <glyph glyph-name="ordfeminine" unicode="&#xaa;" horiz-adv-x="1069" 
d="M477 662q70 0 118 38.5t48 116.5v82q-52 -27 -141 -45q-82 -17 -108.5 -39t-26.5 -65t31 -65.5t79 -22.5zM354 461q-138 0 -225.5 72t-87.5 202q0 60 18 106.5t47 75.5t75 50t91.5 32t106.5 19q158 22 207 41.5t49 62.5q0 88 -103 88q-111 0 -124 -110h-330
q6 145 122 238.5t326 93.5q207 0 308 -62q145 -89 145 -276v-457q0 -64 6.5 -94t26.5 -43v-17h-338q-23 39 -31 101h-4q-89 -123 -285 -123z" />
    <glyph glyph-name="guillemotleft" unicode="&#xab;" horiz-adv-x="884" 
d="M799 49l-326 270v369l326 264v-321l-160 -131v-4l160 -131v-316zM403 49l-333 270v369l333 264v-321l-167 -131v-4l167 -131v-316z" />
    <glyph glyph-name="logicalnot" unicode="&#xac;" horiz-adv-x="1095" 
d="M625 252v319h-533v334h891v-653h-358z" />
    <glyph glyph-name="uni00AD" unicode="&#xad;" horiz-adv-x="677" 
d="M59 354v334h559v-334h-559z" />
    <glyph glyph-name="registered" unicode="&#xae;" horiz-adv-x="1089" 
d="M545 500q-207 0 -349.5 141.5t-142.5 353.5t142.5 354t349.5 142t349 -142t142 -354t-142 -353.5t-349 -141.5zM545 584q169 0 281 116.5t112 294.5q0 177 -112 293.5t-281 116.5t-281 -116.5t-112 -293.5q0 -178 112 -294.5t281 -116.5zM489 1030h70q66 0 66 51
q0 49 -66 49h-70v-100zM322 737v523h262q88 0 147.5 -40.5t59.5 -115.5q0 -44 -22.5 -77t-63.5 -48v-4q33 -11 49 -32.5t24 -55.5q5 -23 7.5 -58t6 -55t13.5 -24v-13h-166q-6 4 -9 22.5t-5.5 49t-6.5 49.5q-6 31 -21.5 43t-49.5 12h-58v-176h-167z" />
    <glyph glyph-name="macron" unicode="&#xaf;" 
d="M217 1190v217h590v-217h-590z" />
    <glyph glyph-name="degree" unicode="&#xb0;" horiz-adv-x="806" 
d="M403 780q-140 0 -240 93.5t-100 230.5t100.5 232.5t239.5 95.5q138 0 239 -95.5t101 -232.5q0 -136 -101 -230t-239 -94zM403 971q58 0 93.5 39t35.5 94t-35.5 96t-93.5 41q-59 0 -94 -40.5t-35 -96.5q0 -55 35 -94t94 -39z" />
    <glyph glyph-name="plusminus" unicode="&#xb1;" horiz-adv-x="1153" 
d="M406 371v243h-314v326h314v240h342v-240h313v-326h-313v-243h-342zM92 0v303h969v-303h-969z" />
    <glyph glyph-name="twosuperior" unicode="&#xb2;" horiz-adv-x="856" 
d="M57 590q0 164 105 266q38 37 80.5 67t110.5 69.5t87 51.5q38 25 56 48t18 53q0 74 -86 74q-50 0 -78 -35.5t-28 -98.5h-252q0 161 102 247.5t266 86.5q160 0 252 -77t92 -187q0 -124 -75 -190q-49 -45 -147.5 -95t-123.5 -73v-2h344v-205h-723z" />
    <glyph glyph-name="threesuperior" unicode="&#xb3;" horiz-adv-x="872" 
d="M436 569q-187 0 -287 81t-102 214h252q10 -106 123 -106q50 0 76 22.5t26 61.5q0 82 -127 82h-47v163h39q121 0 121 76q0 33 -24 52.5t-66 19.5q-92 0 -103 -88h-245q5 118 100.5 195t259.5 77q152 0 247 -63t95 -174q0 -97 -112 -156v-2q133 -56 133 -195
q0 -88 -49.5 -148t-128.5 -86t-181 -26z" />
    <glyph glyph-name="acute" unicode="&#xb4;" 
d="M326 1159l118 318h445l-273 -318h-290z" />
    <glyph glyph-name="mu" unicode="&#xb5;" horiz-adv-x="1212" 
d="M70 -346v1390h387v-587q0 -166 139 -166q75 0 117.5 49.5t42.5 134.5v569h387v-1044h-369v135h-6q-83 -158 -233 -158q-47 0 -84 25h-5v-348h-376z" />
    <glyph glyph-name="paragraph" unicode="&#xb6;" horiz-adv-x="1284" 
d="M578 0v674h-146q-166 0 -272.5 109t-106.5 276q0 189 121 301q113 104 315 104h689v-1464h-240v1235h-121v-1235h-239z" />
    <glyph glyph-name="periodcentered" unicode="&#xb7;" horiz-adv-x="514" 
d="M256 862q93 0 153 -58.5t60 -148.5q0 -91 -60.5 -150t-152.5 -59t-151.5 59t-59.5 150t59.5 149t151.5 58z" />
    <glyph glyph-name="cedilla" unicode="&#xb8;" 
d="M473 -395q-148 0 -242 59l43 76q67 -31 140 -31q104 0 104 58q0 49 -69 49q-31 0 -68 -15l-37 54l145 145h138l-107 -88v-4q98 5 156.5 -32t58.5 -112q0 -73 -73.5 -116t-188.5 -43z" />
    <glyph glyph-name="onesuperior" unicode="&#xb9;" horiz-adv-x="604" 
d="M236 590v446h-187v189q103 4 166 52t82 134h221v-821h-282z" />
    <glyph glyph-name="ordmasculine" unicode="&#xba;" horiz-adv-x="1060" 
d="M532 457q-229 0 -369 137t-140 350q0 212 140 350t369 138q227 0 365.5 -137.5t138.5 -350.5q0 -214 -138.5 -350.5t-365.5 -136.5zM528 684q75 0 116.5 70.5t41.5 189.5q0 118 -41.5 188t-116.5 70t-114 -69.5t-39 -188.5q0 -120 39 -190t114 -70z" />
    <glyph glyph-name="guillemotright" unicode="&#xbb;" horiz-adv-x="884" 
d="M481 49v322l168 131v4l-168 131v315l334 -270v-369zM86 49v322l160 131v4l-160 131v315l326 -270v-369z" />
    <glyph glyph-name="onequarter" unicode="&#xbc;" horiz-adv-x="1658" 
d="M229 651v447h-186v188q102 4 165.5 52t82.5 135h221v-822h-283zM96 0l1213 1464h231l-1210 -1464h-234zM1223 821h268v-471h117v-184h-117v-166h-270v166h-394v203zM1221 578h-2l-199 -226v-2h201v228z" />
    <glyph glyph-name="onehalf" unicode="&#xbd;" horiz-adv-x="1792" 
d="M229 651v447h-186v188q102 4 165.5 52t82.5 135h221v-822h-283zM109 0l1212 1464h231l-1210 -1464h-233zM983 0q0 165 104 266q38 37 83.5 68t111.5 68.5t90 52.5q39 25 56.5 47.5t17.5 52.5q0 74 -88 74q-50 0 -80.5 -35.5t-30.5 -97.5h-252q0 161 102.5 247t266.5 86
q161 0 252.5 -74.5t91.5 -183.5q0 -123 -76 -190q-49 -45 -147 -98t-123 -76v-2h344v-205h-723z" />
    <glyph glyph-name="threequarters" unicode="&#xbe;" horiz-adv-x="1847" 
d="M444 631q-187 0 -288 81.5t-103 213.5h250q11 -107 125 -107q50 0 76 22.5t26 61.5q0 82 -127 82h-47v164h39q121 0 121 76q0 33 -24 52t-66 19q-93 0 -104 -88h-244q5 118 101 195.5t259 77.5q151 0 243.5 -63t92.5 -175q0 -97 -112 -156v-2q133 -56 133 -194
q0 -130 -97 -195t-254 -65zM281 0l1212 1464h231l-1210 -1464h-233zM1411 821h268v-471h117v-184h-117v-166h-270v166h-393v203zM1409 578h-2l-199 -226v-2h201v228z" />
    <glyph glyph-name="questiondown" unicode="&#xbf;" horiz-adv-x="1163" 
d="M778 676q0 -146 -10 -194.5t-59 -102.5q-29 -32 -77 -62.5t-83 -49.5t-61.5 -52.5t-26.5 -77.5q0 -49 37.5 -77.5t93.5 -28.5q70 0 114 45.5t44 122.5h393q-3 -228 -160.5 -357t-421.5 -129q-149 0 -267.5 49t-187.5 143t-69 218q0 64 16 116t46 88.5t59.5 60t70.5 46.5
q20 11 60 32.5t54.5 30t33.5 22.5t29 28q19 26 24.5 53t5.5 76h342zM614 801q-93 0 -153 58.5t-60 148.5q0 91 60.5 150t152.5 59t151.5 -59t59.5 -150t-59.5 -149t-151.5 -58z" />
    <glyph glyph-name="Agrave" unicode="&#xc0;" horiz-adv-x="1503" 
d="M586 510h303l-92 287l-56 188h-4q-30 -116 -55 -188zM-8 0l540 1464h437l542 -1464h-454l-72 215h-496l-71 -215h-426zM637 1528l-238 276h441l88 -276h-291z" />
    <glyph glyph-name="Aacute" unicode="&#xc1;" horiz-adv-x="1503" 
d="M586 510h303l-92 287l-56 188h-4q-30 -116 -55 -188zM-8 0l540 1464h437l542 -1464h-454l-72 215h-496l-71 -215h-426zM594 1528l88 276h440l-237 -276h-291z" />
    <glyph glyph-name="Acircumflex" unicode="&#xc2;" horiz-adv-x="1503" 
d="M586 510h303l-92 287l-56 188h-4q-30 -116 -55 -188zM-8 0l540 1464h437l542 -1464h-454l-72 215h-496l-71 -215h-426zM340 1528l244 280h342l239 -280h-319l-86 104h-4l-86 -104h-330z" />
    <glyph glyph-name="Atilde" unicode="&#xc3;" horiz-adv-x="1503" 
d="M586 510h303l-92 287l-56 188h-4q-30 -116 -55 -188zM-8 0l540 1464h437l542 -1464h-454l-72 215h-496l-71 -215h-426zM379 1524q0 151 66.5 231t170.5 80q66 0 146 -39q6 -3 17.5 -9t15.5 -8.5t12.5 -6.5t12.5 -5.5t10.5 -4t11 -3.5t10.5 -1.5t12 -0.5q33 0 48 20t18 58
h196q0 -139 -56.5 -220t-166.5 -81q-66 0 -141 33l-31 15.5t-26.5 12.5t-19 7.5t-20.5 6t-20 1.5q-29 0 -47 -22.5t-23 -63.5h-196z" />
    <glyph glyph-name="Adieresis" unicode="&#xc4;" horiz-adv-x="1503" 
d="M586 510h303l-92 287l-56 188h-4q-30 -116 -55 -188zM-8 0l540 1464h437l542 -1464h-454l-72 215h-496l-71 -215h-426zM705 1710q0 -78 -53.5 -130t-135.5 -52q-83 0 -135.5 51.5t-52.5 130.5q0 80 52.5 131t135.5 51q82 0 135.5 -51.5t53.5 -130.5zM1176 1710
q0 -79 -53 -130.5t-136 -51.5q-81 0 -134.5 52t-53.5 130q0 79 53 130.5t135 51.5q83 0 136 -51t53 -131z" />
    <glyph glyph-name="Aring" unicode="&#xc5;" horiz-adv-x="1503" 
d="M586 510h303l-92 287l-56 188h-4q-30 -116 -55 -188zM-8 0l540 1464h437l542 -1464h-454l-72 215h-496l-71 -215h-426zM752 1505q-90 0 -155 60.5t-65 148.5t65 149.5t155 61.5t154.5 -61t64.5 -150q0 -88 -64.5 -148.5t-154.5 -60.5zM752 1636q34 0 55.5 23t21.5 55
t-21.5 56t-55.5 24t-56 -24t-22 -56t22 -55t56 -23z" />
    <glyph glyph-name="AE" unicode="&#xc6;" horiz-adv-x="2084" 
d="M555 489h338v627h-143zM-12 0l483 1464h1538v-348h-688v-198h571v-322h-571v-229h709v-367h-1137v203h-428l-62 -203h-415z" />
    <glyph glyph-name="Ccedilla" unicode="&#xc7;" horiz-adv-x="1472" 
d="M717 -395q-148 0 -242 59l43 76q67 -31 139 -31q105 0 105 58q0 49 -70 49q-30 0 -67 -15l-37 54l112 114q-302 23 -485.5 233.5t-183.5 524.5q0 217 92.5 391t262.5 273.5t386 99.5q245 0 410 -115q112 -77 178 -194.5t80 -259.5h-428q-8 89 -76.5 153t-169.5 64
q-147 0 -224 -112.5t-77 -299.5q0 -183 82.5 -297.5t222.5 -114.5q109 0 176 64t78 166h432q-9 -118 -59.5 -223.5t-130.5 -182.5q-166 -160 -437 -172l-65 -55v-4q98 5 156.5 -32t58.5 -112q0 -73 -73.5 -116t-188.5 -43z" />
    <glyph glyph-name="Egrave" unicode="&#xc8;" horiz-adv-x="1304" 
d="M88 0v1464h1141v-348h-713v-198h596v-322h-596v-229h733v-367h-1161zM567 1528l-237 276h440l88 -276h-291z" />
    <glyph glyph-name="Eacute" unicode="&#xc9;" horiz-adv-x="1304" 
d="M88 0v1464h1141v-348h-713v-198h596v-322h-596v-229h733v-367h-1161zM524 1528l88 276h441l-238 -276h-291z" />
    <glyph glyph-name="Ecircumflex" unicode="&#xca;" horiz-adv-x="1304" 
d="M88 0v1464h1141v-348h-713v-198h596v-322h-596v-229h733v-367h-1161zM270 1528l244 280h342l240 -280h-320l-86 104h-4l-86 -104h-330z" />
    <glyph glyph-name="Edieresis" unicode="&#xcb;" horiz-adv-x="1304" 
d="M88 0v1464h1141v-348h-713v-198h596v-322h-596v-229h733v-367h-1161zM635 1710q0 -78 -53.5 -130t-135.5 -52q-83 0 -135.5 51.5t-52.5 130.5q0 80 52.5 131t135.5 51q82 0 135.5 -51.5t53.5 -130.5zM1106 1710q0 -79 -52.5 -130.5t-135.5 -51.5q-82 0 -135.5 52
t-53.5 130q0 79 53.5 130.5t135.5 51.5q83 0 135.5 -51t52.5 -131z" />
    <glyph glyph-name="Igrave" unicode="&#xcc;" horiz-adv-x="604" 
d="M88 0v1464h428v-1464h-428zM186 1528l-237 276h440l88 -276h-291z" />
    <glyph glyph-name="Iacute" unicode="&#xcd;" horiz-adv-x="604" 
d="M88 0v1464h428v-1464h-428zM143 1528l88 276h441l-238 -276h-291z" />
    <glyph glyph-name="Icircumflex" unicode="&#xce;" horiz-adv-x="604" 
d="M88 0v1464h428v-1464h-428zM-111 1528l244 280h342l240 -280h-320l-86 104h-4l-86 -104h-330z" />
    <glyph glyph-name="Idieresis" unicode="&#xcf;" horiz-adv-x="604" 
d="M88 0v1464h428v-1464h-428zM254 1710q0 -78 -53.5 -130t-134.5 -52q-83 0 -136 51.5t-53 130.5q0 80 53 131t136 51q82 0 135 -51.5t53 -130.5zM725 1710q0 -79 -52.5 -130.5t-135.5 -51.5q-82 0 -135.5 52t-53.5 130q0 79 53.5 130.5t135.5 51.5q83 0 135.5 -51
t52.5 -131z" />
    <glyph glyph-name="Eth" unicode="&#xd0;" horiz-adv-x="1525" 
d="M104 0v588h-94v321h94v555h676q211 0 372 -86t252 -253.5t91 -395.5q0 -348 -197 -539q-190 -190 -536 -190h-658zM532 354h195q152 0 243 97t91 278q0 180 -89.5 280.5t-244.5 100.5h-195v-201h302v-321h-302v-234z" />
    <glyph glyph-name="Ntilde" unicode="&#xd1;" horiz-adv-x="1501" 
d="M502 829v-829h-414v1464h428l381 -653l98 -170h4v823h414v-1464h-442l-359 641l-106 188h-4zM391 1524q0 151 67 231t171 80q65 0 145 -39q5 -2 16 -8t14 -8t11.5 -6t11.5 -5.5t10 -4t10.5 -3.5t9 -2t10.5 -1.5t10 -0.5q33 0 47.5 19.5t17.5 58.5h197q0 -139 -57 -220
t-167 -81q-66 0 -141 33l-31 15.5t-26.5 12.5t-19 7.5t-20.5 6t-20 1.5q-60 0 -69 -86h-197z" />
    <glyph glyph-name="Ograve" unicode="&#xd2;" horiz-adv-x="1548" 
d="M772 -35q-223 0 -392.5 99t-259 271.5t-89.5 391.5t89.5 392t259 272.5t392.5 99.5q168 0 308 -58t236 -159.5t149 -242.5t53 -304t-53 -303.5t-149 -242t-236 -159t-308 -57.5zM774 307q149 0 229 116.5t80 303.5t-80 304.5t-229 117.5t-229 -117.5t-80 -304.5
t80 -303.5t229 -116.5zM659 1528l-237 276h440l88 -276h-291z" />
    <glyph glyph-name="Oacute" unicode="&#xd3;" horiz-adv-x="1548" 
d="M772 -35q-223 0 -392.5 99t-259 271.5t-89.5 391.5t89.5 392t259 272.5t392.5 99.5q168 0 308 -58t236 -159.5t149 -242.5t53 -304t-53 -303.5t-149 -242t-236 -159t-308 -57.5zM774 307q149 0 229 116.5t80 303.5t-80 304.5t-229 117.5t-229 -117.5t-80 -304.5
t80 -303.5t229 -116.5zM616 1528l89 276h440l-238 -276h-291z" />
    <glyph glyph-name="Ocircumflex" unicode="&#xd4;" horiz-adv-x="1548" 
d="M772 -35q-223 0 -392.5 99t-259 271.5t-89.5 391.5t89.5 392t259 272.5t392.5 99.5q168 0 308 -58t236 -159.5t149 -242.5t53 -304t-53 -303.5t-149 -242t-236 -159t-308 -57.5zM774 307q149 0 229 116.5t80 303.5t-80 304.5t-229 117.5t-229 -117.5t-80 -304.5
t80 -303.5t229 -116.5zM362 1528l244 280h342l240 -280h-320l-86 104h-4l-86 -104h-330z" />
    <glyph glyph-name="Otilde" unicode="&#xd5;" horiz-adv-x="1548" 
d="M772 -35q-223 0 -392.5 99t-259 271.5t-89.5 391.5t89.5 392t259 272.5t392.5 99.5q168 0 308 -58t236 -159.5t149 -242.5t53 -304t-53 -303.5t-149 -242t-236 -159t-308 -57.5zM774 307q149 0 229 116.5t80 303.5t-80 304.5t-229 117.5t-229 -117.5t-80 -304.5
t80 -303.5t229 -116.5zM401 1524q0 151 67 231t171 80q65 0 145 -39q5 -2 16 -8t14 -8t11.5 -6t11.5 -5.5t10 -4t10.5 -3.5t9 -2t10.5 -1.5t10 -0.5q33 0 47.5 19.5t17.5 58.5h197q0 -139 -56.5 -220t-166.5 -81q-67 0 -142 33q-13 6 -31.5 15t-26 13t-18.5 8t-20 5.5
t-20 1.5q-29 0 -47 -22.5t-23 -63.5h-197z" />
    <glyph glyph-name="Odieresis" unicode="&#xd6;" horiz-adv-x="1548" 
d="M772 -35q-223 0 -392.5 99t-259 271.5t-89.5 391.5t89.5 392t259 272.5t392.5 99.5q168 0 308 -58t236 -159.5t149 -242.5t53 -304t-53 -303.5t-149 -242t-236 -159t-308 -57.5zM774 307q149 0 229 116.5t80 303.5t-80 304.5t-229 117.5t-229 -117.5t-80 -304.5
t80 -303.5t229 -116.5zM727 1710q0 -78 -53.5 -130t-134.5 -52q-83 0 -136 51.5t-53 130.5q0 80 53 131t136 51q82 0 135 -51.5t53 -130.5zM1198 1710q0 -79 -52.5 -130.5t-135.5 -51.5q-82 0 -135.5 52t-53.5 130q0 79 53.5 130.5t135.5 51.5q83 0 135.5 -51t52.5 -131z
" />
    <glyph glyph-name="multiply" unicode="&#xd7;" horiz-adv-x="1153" 
d="M291 162l-236 229l281 285l-277 282l236 228l270 -277l275 277l235 -228l-278 -282l278 -283l-235 -227l-273 276z" />
    <glyph glyph-name="Oslash" unicode="&#xd8;" horiz-adv-x="1548" 
d="M489 537l478 536q-79 76 -193 76q-149 0 -229 -117.5t-80 -304.5q0 -105 24 -190zM774 307q149 0 229 116.5t80 303.5q0 109 -26 188l-475 -534q77 -74 192 -74zM154 -98l-127 114l176 197q-172 206 -172 514q0 219 89.5 392t259 272.5t392.5 99.5q260 0 447 -135
l176 196l127 -114l-176 -199q172 -206 172 -512q0 -163 -53 -303.5t-149 -242t-236 -159t-308 -57.5q-256 0 -444 133z" />
    <glyph glyph-name="Ugrave" unicode="&#xd9;" horiz-adv-x="1462" 
d="M731 -27q-324 0 -488.5 152.5t-164.5 433.5v905h428v-929q0 -104 57.5 -162t173.5 -58q106 0 162.5 62.5t56.5 165.5v921h428v-905q0 -276 -165.5 -431t-487.5 -155zM616 1528l-237 276h440l88 -276h-291z" />
    <glyph glyph-name="Uacute" unicode="&#xda;" horiz-adv-x="1462" 
d="M731 -27q-324 0 -488.5 152.5t-164.5 433.5v905h428v-929q0 -104 57.5 -162t173.5 -58q106 0 162.5 62.5t56.5 165.5v921h428v-905q0 -276 -165.5 -431t-487.5 -155zM573 1528l89 276h440l-238 -276h-291z" />
    <glyph glyph-name="Ucircumflex" unicode="&#xdb;" horiz-adv-x="1462" 
d="M731 -27q-324 0 -488.5 152.5t-164.5 433.5v905h428v-929q0 -104 57.5 -162t173.5 -58q106 0 162.5 62.5t56.5 165.5v921h428v-905q0 -276 -165.5 -431t-487.5 -155zM319 1528l244 280h342l240 -280h-320l-86 104h-4l-86 -104h-330z" />
    <glyph glyph-name="Udieresis" unicode="&#xdc;" horiz-adv-x="1462" 
d="M731 -27q-324 0 -488.5 152.5t-164.5 433.5v905h428v-929q0 -104 57.5 -162t173.5 -58q106 0 162.5 62.5t56.5 165.5v921h428v-905q0 -276 -165.5 -431t-487.5 -155zM684 1710q0 -78 -53.5 -130t-134.5 -52q-83 0 -136 51.5t-53 130.5q0 80 53 131t136 51q82 0 135 -51.5
t53 -130.5zM1155 1710q0 -79 -52.5 -130.5t-135.5 -51.5q-82 0 -135.5 52t-53.5 130q0 79 53.5 130.5t135.5 51.5q83 0 135.5 -51t52.5 -131z" />
    <glyph glyph-name="Yacute" unicode="&#xdd;" horiz-adv-x="1425" 
d="M498 0v514l-502 950h465l155 -325q24 -49 48.5 -108t37.5 -93l13 -35h4q47 125 100 236l156 325h455l-504 -950v-514h-428zM561 1528l88 276h441l-238 -276h-291z" />
    <glyph glyph-name="Thorn" unicode="&#xde;" horiz-adv-x="1363" 
d="M88 0v1464h428v-184h246q267 0 418 -135q163 -144 163 -387q0 -214 -141.5 -355t-361.5 -141h-324v-262h-428zM516 594h232q77 0 123.5 47t46.5 123q0 74 -46.5 118t-128.5 44h-227v-332z" />
    <glyph glyph-name="germandbls" unicode="&#xdf;" horiz-adv-x="1236" 
d="M743 -18q-100 0 -180 26v281q128 -13 196 41.5t68 163.5q0 95 -55.5 146.5t-155.5 51.5h-47v211q25 0 35 2q170 10 170 148q0 64 -40.5 102.5t-110.5 38.5q-73 0 -119.5 -46t-46.5 -130v-1018h-387v1030q0 217 145 339t397 122q240 0 379 -107.5t139 -287.5
q0 -203 -169 -273v-6q119 -41 184 -134t65 -237q0 -221 -129 -342.5t-338 -121.5z" />
    <glyph glyph-name="agrave" unicode="&#xe0;" horiz-adv-x="1144" 
d="M516 203q74 0 125 44t51 132v92q-63 -31 -149 -49q-83 -18 -115.5 -45t-32.5 -74q0 -49 35 -74.5t86 -25.5zM371 -27q-156 0 -252 82t-96 232q0 67 20.5 119.5t54 86.5t84 58.5t102.5 37t117 19.5q165 19 223 43t58 74q0 100 -111 100q-61 0 -95 -33t-42 -92h-366
q3 79 35 146.5t92 119.5t154 81.5t214 29.5q229 0 342 -69q162 -101 162 -314v-522q0 -71 8 -106.5t31 -49.5v-16h-381q-25 45 -35 115h-4q-104 -142 -315 -142zM469 1159l-272 318h444l119 -318h-291z" />
    <glyph glyph-name="aacute" unicode="&#xe1;" horiz-adv-x="1144" 
d="M516 203q74 0 125 44t51 132v92q-63 -31 -149 -49q-83 -18 -115.5 -45t-32.5 -74q0 -49 35 -74.5t86 -25.5zM371 -27q-156 0 -252 82t-96 232q0 67 20.5 119.5t54 86.5t84 58.5t102.5 37t117 19.5q165 19 223 43t58 74q0 100 -111 100q-61 0 -95 -33t-42 -92h-366
q3 79 35 146.5t92 119.5t154 81.5t214 29.5q229 0 342 -69q162 -101 162 -314v-522q0 -71 8 -106.5t31 -49.5v-16h-381q-25 45 -35 115h-4q-104 -142 -315 -142zM426 1159l119 318h444l-272 -318h-291z" />
    <glyph glyph-name="acircumflex" unicode="&#xe2;" horiz-adv-x="1144" 
d="M516 203q74 0 125 44t51 132v92q-63 -31 -149 -49q-83 -18 -115.5 -45t-32.5 -74q0 -49 35 -74.5t86 -25.5zM371 -27q-156 0 -252 82t-96 232q0 67 20.5 119.5t54 86.5t84 58.5t102.5 37t117 19.5q165 19 223 43t58 74q0 100 -111 100q-61 0 -95 -33t-42 -92h-366
q3 79 35 146.5t92 119.5t154 81.5t214 29.5q229 0 342 -69q162 -101 162 -314v-522q0 -71 8 -106.5t31 -49.5v-16h-381q-25 45 -35 115h-4q-104 -142 -315 -142zM172 1159l244 305h342l239 -305h-319l-86 129h-4l-86 -129h-330z" />
    <glyph glyph-name="atilde" unicode="&#xe3;" horiz-adv-x="1144" 
d="M516 203q74 0 125 44t51 132v92q-63 -31 -149 -49q-83 -18 -115.5 -45t-32.5 -74q0 -49 35 -74.5t86 -25.5zM371 -27q-156 0 -252 82t-96 232q0 67 20.5 119.5t54 86.5t84 58.5t102.5 37t117 19.5q165 19 223 43t58 74q0 100 -111 100q-61 0 -95 -33t-42 -92h-366
q3 79 35 146.5t92 119.5t154 81.5t214 29.5q229 0 342 -69q162 -101 162 -314v-522q0 -71 8 -106.5t31 -49.5v-16h-381q-25 45 -35 115h-4q-104 -142 -315 -142zM211 1155q0 151 67 231t171 80q65 0 145 -39q63 -33 83 -37q9 -1 19 -1q33 0 48 19.5t18 57.5h196
q0 -139 -56.5 -220t-166.5 -81q-66 0 -141 33l-31 15.5t-26.5 12.5t-19 7.5t-20.5 6t-20 1.5q-60 0 -69 -86h-197z" />
    <glyph glyph-name="adieresis" unicode="&#xe4;" horiz-adv-x="1144" 
d="M516 203q74 0 125 44t51 132v92q-63 -31 -149 -49q-83 -18 -115.5 -45t-32.5 -74q0 -49 35 -74.5t86 -25.5zM371 -27q-156 0 -252 82t-96 232q0 67 20.5 119.5t54 86.5t84 58.5t102.5 37t117 19.5q165 19 223 43t58 74q0 100 -111 100q-61 0 -95 -33t-42 -92h-366
q3 79 35 146.5t92 119.5t154 81.5t214 29.5q229 0 342 -69q162 -101 162 -314v-522q0 -71 8 -106.5t31 -49.5v-16h-381q-25 45 -35 115h-4q-104 -142 -315 -142zM1008 1296q0 -79 -53 -130.5t-136 -51.5q-81 0 -134.5 52t-53.5 130q0 80 53 131.5t135 51.5q83 0 136 -51.5
t53 -131.5zM537 1296q0 -78 -53.5 -130t-135.5 -52q-83 0 -135.5 51.5t-52.5 130.5q0 80 52.5 131.5t135.5 51.5q82 0 135.5 -52t53.5 -131z" />
    <glyph glyph-name="aring" unicode="&#xe5;" horiz-adv-x="1144" 
d="M516 203q74 0 125 44t51 132v92q-63 -31 -149 -49q-83 -18 -115.5 -45t-32.5 -74q0 -49 35 -74.5t86 -25.5zM371 -27q-156 0 -252 82t-96 232q0 67 20.5 119.5t54 86.5t84 58.5t102.5 37t117 19.5q165 19 223 43t58 74q0 100 -111 100q-61 0 -95 -33t-42 -92h-366
q3 79 35 146.5t92 119.5t154 81.5t214 29.5q229 0 342 -69q162 -101 162 -314v-522q0 -71 8 -106.5t31 -49.5v-16h-381q-25 45 -35 115h-4q-104 -142 -315 -142zM584 1137q-90 0 -154.5 60.5t-64.5 148.5t64.5 149t154.5 61t154.5 -61t64.5 -149t-64.5 -148.5t-154.5 -60.5z
M584 1268q34 0 56 23t22 55t-22 55.5t-56 23.5t-56 -23.5t-22 -55.5t22 -55t56 -23z" />
    <glyph glyph-name="ae" unicode="&#xe6;" horiz-adv-x="1837" 
d="M1249 819q-78 0 -124.5 -48.5t-61.5 -137.5h360q-12 87 -58.5 136.5t-115.5 49.5zM518 203q80 0 135.5 44t55.5 132v92q-56 -27 -162 -49q-94 -20 -127 -46t-33 -73q0 -49 37.5 -74.5t93.5 -25.5zM436 -33q-190 0 -301.5 84.5t-111.5 235.5q0 68 20.5 120.5t54 85.5
t85.5 57t104 36.5t121 21.5q178 23 234 45.5t56 71.5q0 100 -118 100q-132 0 -148 -125h-366q6 164 136.5 270.5t370.5 106.5q115 0 198 -19.5t144 -82.5q132 104 326 104q231 0 385 -141q93 -86 139 -218.5t43 -291.5h-745q37 -195 205 -195q101 0 145 78h375
q-17 -70 -69.5 -136t-129.5 -116q-138 -88 -334 -88q-249 0 -393 154q-74 -80 -173.5 -119t-252.5 -39z" />
    <glyph glyph-name="ccedilla" unicode="&#xe7;" horiz-adv-x="1144" 
d="M545 -395q-148 0 -242 59l43 76q67 -31 139 -31q105 0 105 58q0 49 -70 49q-30 0 -67 -15l-37 54l114 116q-228 22 -365.5 173.5t-137.5 375.5q0 158 71 284t202 198.5t300 72.5q218 0 357.5 -116t160.5 -302h-373q-31 148 -149 148q-87 0 -131.5 -75t-44.5 -210
q0 -133 46 -206.5t134 -73.5q137 0 152 182h372q0 -183 -127 -308.5t-335 -144.5l-70 -57v-4q98 5 156.5 -32t58.5 -112q0 -73 -73.5 -116t-188.5 -43z" />
    <glyph glyph-name="egrave" unicode="&#xe8;" horiz-adv-x="1177" 
d="M598 -29q-254 0 -412.5 156t-158.5 397q0 156 69.5 282.5t197.5 199.5t290 73q231 0 385 -141q93 -86 139 -218.5t43 -291.5h-745q37 -195 204 -195q102 0 146 78h374q-17 -70 -69 -136t-129 -116q-138 -88 -334 -88zM406 633h360q-12 87 -58.5 136.5t-115.5 49.5
q-78 0 -124.5 -48.5t-61.5 -137.5zM473 1159l-272 318h444l119 -318h-291z" />
    <glyph glyph-name="eacute" unicode="&#xe9;" horiz-adv-x="1177" 
d="M598 -29q-254 0 -412.5 156t-158.5 397q0 156 69.5 282.5t197.5 199.5t290 73q231 0 385 -141q93 -86 139 -218.5t43 -291.5h-745q37 -195 204 -195q102 0 146 78h374q-17 -70 -69 -136t-129 -116q-138 -88 -334 -88zM406 633h360q-12 87 -58.5 136.5t-115.5 49.5
q-78 0 -124.5 -48.5t-61.5 -137.5zM430 1159l119 318h444l-272 -318h-291z" />
    <glyph glyph-name="ecircumflex" unicode="&#xea;" horiz-adv-x="1177" 
d="M598 -29q-254 0 -412.5 156t-158.5 397q0 156 69.5 282.5t197.5 199.5t290 73q231 0 385 -141q93 -86 139 -218.5t43 -291.5h-745q37 -195 204 -195q102 0 146 78h374q-17 -70 -69 -136t-129 -116q-138 -88 -334 -88zM406 633h360q-12 87 -58.5 136.5t-115.5 49.5
q-78 0 -124.5 -48.5t-61.5 -137.5zM176 1159l244 305h342l239 -305h-319l-86 129h-4l-86 -129h-330z" />
    <glyph glyph-name="edieresis" unicode="&#xeb;" horiz-adv-x="1177" 
d="M598 -29q-254 0 -412.5 156t-158.5 397q0 156 69.5 282.5t197.5 199.5t290 73q231 0 385 -141q93 -86 139 -218.5t43 -291.5h-745q37 -195 204 -195q102 0 146 78h374q-17 -70 -69 -136t-129 -116q-138 -88 -334 -88zM406 633h360q-12 87 -58.5 136.5t-115.5 49.5
q-78 0 -124.5 -48.5t-61.5 -137.5zM1012 1296q0 -79 -53 -130.5t-136 -51.5q-81 0 -134.5 52t-53.5 130q0 80 53 131.5t135 51.5q83 0 136 -51.5t53 -131.5zM541 1296q0 -78 -53.5 -130t-135.5 -52q-83 0 -135.5 51.5t-52.5 130.5q0 80 52.5 131.5t135.5 51.5
q82 0 135.5 -52t53.5 -131z" />
    <glyph glyph-name="igrave" unicode="&#xec;" horiz-adv-x="526" 
d="M70 0v1044h387v-1044h-387zM147 1159l-272 318h444l119 -318h-291z" />
    <glyph glyph-name="iacute" unicode="&#xed;" horiz-adv-x="526" 
d="M70 0v1044h387v-1044h-387zM104 1159l119 318h445l-273 -318h-291z" />
    <glyph glyph-name="icircumflex" unicode="&#xee;" horiz-adv-x="526" 
d="M-109 1159l183 305h387l174 -305h-307l-58 121h-4l-57 -121h-318zM70 0v1044h387v-1044h-387z" />
    <glyph glyph-name="idieresis" unicode="&#xef;" horiz-adv-x="526" 
d="M227 1286q0 -74 -51.5 -123t-130.5 -49q-77 0 -129.5 49.5t-52.5 122.5q0 77 52.5 127.5t129.5 50.5q80 0 131 -50t51 -128zM659 1284q0 -73 -51.5 -121.5t-128.5 -48.5q-78 0 -129 48t-51 122q0 76 51 126t129 50q77 0 128.5 -50t51.5 -126zM70 0v1044h387v-1044h-387z
" />
    <glyph glyph-name="eth" unicode="&#xf0;" horiz-adv-x="1200" 
d="M600 -33q-264 0 -418.5 155t-154.5 398q0 238 131 384.5t346 146.5q58 0 95 -14t79 -46h2q-64 89 -164 183l-268 -93l-53 115l213 74q-121 97 -267 194h500q84 -52 113 -75l184 63l53 -115l-127 -43q301 -294 301 -716q0 -100 -17.5 -186.5t-59 -166t-105 -135.5
t-161.5 -89.5t-222 -33.5zM596 225q87 0 133.5 78t46.5 213q0 134 -46 209.5t-134 75.5q-87 0 -131.5 -75t-44.5 -210q0 -136 44.5 -213.5t131.5 -77.5z" />
    <glyph glyph-name="ntilde" unicode="&#xf1;" horiz-adv-x="1208" 
d="M70 0v1044h368v-143h6q129 176 336 176q178 0 272.5 -108t94.5 -293v-676h-387v582q0 84 -36.5 132t-109.5 48q-72 0 -114.5 -56t-42.5 -143v-563h-387zM250 1155q0 151 66.5 231t170.5 80q66 0 146 -39q63 -33 83 -37q9 -1 19 -1q33 0 48 19.5t18 57.5h196
q0 -139 -56.5 -220t-166.5 -81q-66 0 -141 33l-31 15.5t-26.5 12.5t-19 7.5t-20.5 6t-20 1.5q-29 0 -47 -22.5t-23 -63.5h-196z" />
    <glyph glyph-name="ograve" unicode="&#xf2;" horiz-adv-x="1196" 
d="M600 -33q-171 0 -302 72t-201 197.5t-70 283.5q0 241 158 398t415 157q170 0 300.5 -72.5t199.5 -198.5t69 -284q0 -242 -156 -397.5t-413 -155.5zM596 225q87 0 133.5 79.5t46.5 215.5t-46.5 215.5t-133.5 79.5t-131.5 -79.5t-44.5 -215.5t44.5 -215.5t131.5 -79.5z
M483 1159l-272 318h444l119 -318h-291z" />
    <glyph glyph-name="oacute" unicode="&#xf3;" horiz-adv-x="1196" 
d="M600 -33q-171 0 -302 72t-201 197.5t-70 283.5q0 241 158 398t415 157q170 0 300.5 -72.5t199.5 -198.5t69 -284q0 -242 -156 -397.5t-413 -155.5zM596 225q87 0 133.5 79.5t46.5 215.5t-46.5 215.5t-133.5 79.5t-131.5 -79.5t-44.5 -215.5t44.5 -215.5t131.5 -79.5z
M440 1159l119 318h445l-273 -318h-291z" />
    <glyph glyph-name="ocircumflex" unicode="&#xf4;" horiz-adv-x="1196" 
d="M600 -33q-171 0 -302 72t-201 197.5t-70 283.5q0 241 158 398t415 157q170 0 300.5 -72.5t199.5 -198.5t69 -284q0 -242 -156 -397.5t-413 -155.5zM596 225q87 0 133.5 79.5t46.5 215.5t-46.5 215.5t-133.5 79.5t-131.5 -79.5t-44.5 -215.5t44.5 -215.5t131.5 -79.5z
M186 1159l244 305h342l240 -305h-320l-86 129h-4l-86 -129h-330z" />
    <glyph glyph-name="otilde" unicode="&#xf5;" horiz-adv-x="1196" 
d="M600 -33q-171 0 -302 72t-201 197.5t-70 283.5q0 241 158 398t415 157q170 0 300.5 -72.5t199.5 -198.5t69 -284q0 -242 -156 -397.5t-413 -155.5zM596 225q87 0 133.5 79.5t46.5 215.5t-46.5 215.5t-133.5 79.5t-131.5 -79.5t-44.5 -215.5t44.5 -215.5t131.5 -79.5z
M225 1155q0 151 67 231t171 80q65 0 145 -39q33 -17 44 -22.5t27 -10.5t32 -5q33 0 47.5 19.5t17.5 57.5h197q0 -139 -56.5 -220t-166.5 -81q-67 0 -142 33q-13 6 -31.5 15t-26 13t-18.5 8t-20 5.5t-20 1.5q-29 0 -47 -22.5t-23 -63.5h-197z" />
    <glyph glyph-name="odieresis" unicode="&#xf6;" horiz-adv-x="1196" 
d="M600 -33q-171 0 -302 72t-201 197.5t-70 283.5q0 241 158 398t415 157q170 0 300.5 -72.5t199.5 -198.5t69 -284q0 -242 -156 -397.5t-413 -155.5zM596 225q87 0 133.5 79.5t46.5 215.5t-46.5 215.5t-133.5 79.5t-131.5 -79.5t-44.5 -215.5t44.5 -215.5t131.5 -79.5z
M1022 1296q0 -79 -52.5 -130.5t-135.5 -51.5q-82 0 -135.5 52t-53.5 130q0 79 53.5 131t135.5 52q83 0 135.5 -51.5t52.5 -131.5zM551 1296q0 -78 -53.5 -130t-135.5 -52q-83 0 -135.5 51.5t-52.5 130.5q0 80 52.5 131.5t135.5 51.5q82 0 135.5 -52t53.5 -131z" />
    <glyph glyph-name="divide" unicode="&#xf7;" horiz-adv-x="1153" 
d="M575 1296q91 0 146 -51.5t55 -136.5t-55.5 -137.5t-145.5 -52.5t-145 52.5t-55 137.5t54.5 136.5t145.5 51.5zM92 518v318h969v-318h-969zM575 436q91 0 146 -51.5t55 -136.5t-55.5 -138t-145.5 -53t-145 53t-55 138t54.5 136.5t145.5 51.5z" />
    <glyph glyph-name="oslash" unicode="&#xf8;" horiz-adv-x="1196" 
d="M424 432l291 324q-47 59 -119 59q-87 0 -131.5 -79.5t-44.5 -215.5q0 -61 4 -88zM596 225q87 0 133.5 79.5t46.5 215.5q0 46 -6 90l-293 -327q45 -58 119 -58zM162 -72l-101 97l105 116q-139 148 -139 379q0 241 158 398t415 157q179 0 322 -86l112 125l101 -96
l-105 -117q139 -151 139 -381q0 -242 -156 -397.5t-413 -155.5q-187 0 -328 86z" />
    <glyph glyph-name="ugrave" unicode="&#xf9;" horiz-adv-x="1204" 
d="M434 -33q-182 0 -277.5 109t-95.5 295v673h388v-581q0 -166 139 -166q75 0 117.5 49.5t42.5 134.5v563h387v-1044h-369v135h-6q-123 -168 -326 -168zM483 1159l-272 318h444l119 -318h-291z" />
    <glyph glyph-name="uacute" unicode="&#xfa;" horiz-adv-x="1204" 
d="M434 -33q-182 0 -277.5 109t-95.5 295v673h388v-581q0 -166 139 -166q75 0 117.5 49.5t42.5 134.5v563h387v-1044h-369v135h-6q-123 -168 -326 -168zM440 1159l119 318h445l-273 -318h-291z" />
    <glyph glyph-name="ucircumflex" unicode="&#xfb;" horiz-adv-x="1204" 
d="M434 -33q-182 0 -277.5 109t-95.5 295v673h388v-581q0 -166 139 -166q75 0 117.5 49.5t42.5 134.5v563h387v-1044h-369v135h-6q-123 -168 -326 -168zM186 1159l244 305h342l240 -305h-320l-86 129h-4l-86 -129h-330z" />
    <glyph glyph-name="udieresis" unicode="&#xfc;" horiz-adv-x="1204" 
d="M434 -33q-182 0 -277.5 109t-95.5 295v673h388v-581q0 -166 139 -166q75 0 117.5 49.5t42.5 134.5v563h387v-1044h-369v135h-6q-123 -168 -326 -168zM1022 1296q0 -79 -52.5 -130.5t-135.5 -51.5q-82 0 -135.5 52t-53.5 130q0 79 53.5 131t135.5 52q83 0 135.5 -51.5
t52.5 -131.5zM551 1296q0 -78 -53.5 -130t-135.5 -52q-83 0 -135.5 51.5t-52.5 130.5q0 80 52.5 131.5t135.5 51.5q82 0 135.5 -52t53.5 -131z" />
    <glyph glyph-name="yacute" unicode="&#xfd;" horiz-adv-x="1148" 
d="M117 -346v299h129q64 0 92.5 18.5t28.5 59.5q0 32 -48 149l-333 864h407l129 -419q15 -47 30.5 -110.5t23.5 -103.5l8 -40h4q30 148 63 254l127 419h385l-356 -1044q-65 -190 -163 -268t-259 -78h-268zM428 1159l119 318h444l-272 -318h-291z" />
    <glyph glyph-name="thorn" unicode="&#xfe;" horiz-adv-x="1239" 
d="M639 250q86 0 133 70t47 194t-47.5 196t-132.5 72q-88 0 -142.5 -76t-54.5 -192t54 -190t143 -74zM70 -346v1810h387v-528h6q57 71 130 106t177 35q136 0 238 -75.5t153 -200t51 -277.5q0 -256 -124.5 -407.5t-333.5 -151.5q-183 0 -291 133h-6v-444h-387z" />
    <glyph glyph-name="ydieresis" unicode="&#xff;" horiz-adv-x="1148" 
d="M117 -346v299h129q64 0 92.5 18.5t28.5 59.5q0 32 -48 149l-333 864h407l129 -419q15 -47 30.5 -110.5t23.5 -103.5l8 -40h4q30 148 63 254l127 419h385l-356 -1044q-65 -190 -163 -268t-259 -78h-268zM1010 1296q0 -79 -53 -130.5t-136 -51.5q-81 0 -134.5 52t-53.5 130
q0 80 53 131.5t135 51.5q83 0 136 -51.5t53 -131.5zM539 1296q0 -78 -53.5 -130t-135.5 -52q-83 0 -135.5 51.5t-52.5 130.5q0 80 52.5 131.5t135.5 51.5q82 0 135.5 -52t53.5 -131z" />
    <glyph glyph-name="Amacron" unicode="&#x100;" horiz-adv-x="1503" 
d="M586 510h303l-92 287l-56 188h-4q-30 -116 -55 -188zM-8 0l540 1464h437l542 -1464h-454l-72 215h-496l-71 -215h-426zM457 1559v217h590v-217h-590z" />
    <glyph glyph-name="amacron" unicode="&#x101;" horiz-adv-x="1144" 
d="M516 203q74 0 125 44t51 132v92q-63 -31 -149 -49q-83 -18 -115.5 -45t-32.5 -74q0 -49 35 -74.5t86 -25.5zM371 -27q-156 0 -252 82t-96 232q0 67 20.5 119.5t54 86.5t84 58.5t102.5 37t117 19.5q165 19 223 43t58 74q0 100 -111 100q-61 0 -95 -33t-42 -92h-366
q3 79 35 146.5t92 119.5t154 81.5t214 29.5q229 0 342 -69q162 -101 162 -314v-522q0 -71 8 -106.5t31 -49.5v-16h-381q-25 45 -35 115h-4q-104 -142 -315 -142zM289 1190v217h590v-217h-590z" />
    <glyph glyph-name="Abreve" unicode="&#x102;" horiz-adv-x="1503" 
d="M586 510h303l-92 287l-56 188h-4q-30 -116 -55 -188zM-8 0l540 1464h437l542 -1464h-454l-72 215h-496l-71 -215h-426zM756 1511q-102 0 -183.5 37t-131 111.5t-50.5 175.5h217q5 -42 44 -68t102 -26q59 0 98.5 28.5t42.5 65.5h217q-3 -147 -102.5 -235.5t-253.5 -88.5z
" />
    <glyph glyph-name="abreve" unicode="&#x103;" horiz-adv-x="1144" 
d="M516 203q74 0 125 44t51 132v92q-63 -31 -149 -49q-83 -18 -115.5 -45t-32.5 -74q0 -49 35 -74.5t86 -25.5zM371 -27q-156 0 -252 82t-96 232q0 67 20.5 119.5t54 86.5t84 58.5t102.5 37t117 19.5q165 19 223 43t58 74q0 100 -111 100q-61 0 -95 -33t-42 -92h-366
q3 79 35 146.5t92 119.5t154 81.5t214 29.5q229 0 342 -69q162 -101 162 -314v-522q0 -71 8 -106.5t31 -49.5v-16h-381q-25 45 -35 115h-4q-104 -142 -315 -142zM588 1143q-156 0 -260 86.5t-105 236.5h217q5 -42 44 -68t102 -26q59 0 98.5 28.5t42.5 65.5h217
q-3 -147 -102.5 -235t-253.5 -88z" />
    <glyph glyph-name="Aogonek" unicode="&#x104;" horiz-adv-x="1503" 
d="M1348 -367q-265 0 -265 177q0 66 38.5 113.5t95.5 76.5h-160l-72 215h-496l-71 -215h-426l540 1464h437l538 -1452q-98 -62 -98 -131q0 -45 51 -45q21 0 41 4v-188q-55 -19 -153 -19zM586 510h303l-92 287l-56 188h-4q-30 -116 -55 -188z" />
    <glyph glyph-name="aogonek" unicode="&#x105;" horiz-adv-x="1144" 
d="M961 -367q-271 0 -271 177q0 68 46.5 116t111.5 74h-123q-25 45 -35 115h-4q-104 -142 -315 -142q-156 0 -252 82t-96 232q0 67 20.5 119.5t54 86.5t84 58.5t102.5 37t117 19.5q165 19 223 43t58 74q0 100 -111 100q-61 0 -95 -33t-42 -92h-366q3 79 35 146.5t92 119.5
t154 81.5t214 29.5q229 0 342 -69q162 -101 162 -314v-522q0 -68 6.5 -102t24.5 -54v-16q-86 -57 -86 -121q0 -43 51 -43q21 0 41 4v-188q-55 -19 -143 -19zM516 203q74 0 125 44t51 132v92q-63 -31 -149 -49q-83 -18 -115.5 -45t-32.5 -74q0 -49 35 -74.5t86 -25.5z" />
    <glyph glyph-name="Cacute" unicode="&#x106;" horiz-adv-x="1472" 
d="M772 -35q-219 0 -388.5 99t-261 272t-91.5 391q0 217 92.5 391t262.5 273.5t386 99.5q245 0 410 -115q112 -77 178 -194.5t80 -259.5h-428q-8 89 -76.5 153t-169.5 64q-147 0 -224 -112.5t-77 -299.5q0 -183 82.5 -297.5t222.5 -114.5q109 0 176 64t78 166h432
q-9 -118 -59.5 -223.5t-130.5 -182.5q-93 -90 -213 -132t-281 -42zM606 1528l88 276h441l-238 -276h-291z" />
    <glyph glyph-name="cacute" unicode="&#x107;" horiz-adv-x="1144" 
d="M600 -33q-255 0 -414 156.5t-159 396.5q0 158 71 284t202 198.5t300 72.5q218 0 357.5 -116t160.5 -302h-373q-31 148 -149 148q-87 0 -131.5 -75t-44.5 -210q0 -133 46 -206.5t134 -73.5q137 0 152 182h372q0 -196 -146 -325.5t-378 -129.5zM434 1159l119 318h444
l-272 -318h-291z" />
    <glyph glyph-name="Ccircumflex" unicode="&#x108;" horiz-adv-x="1472" 
d="M772 -35q-219 0 -388.5 99t-261 272t-91.5 391q0 217 92.5 391t262.5 273.5t386 99.5q245 0 410 -115q112 -77 178 -194.5t80 -259.5h-428q-8 89 -76.5 153t-169.5 64q-147 0 -224 -112.5t-77 -299.5q0 -183 82.5 -297.5t222.5 -114.5q109 0 176 64t78 166h432
q-9 -118 -59.5 -223.5t-130.5 -182.5q-93 -90 -213 -132t-281 -42zM352 1528l244 280h342l240 -280h-320l-86 104h-4l-86 -104h-330z" />
    <glyph glyph-name="ccircumflex" unicode="&#x109;" horiz-adv-x="1144" 
d="M600 -33q-255 0 -414 156.5t-159 396.5q0 158 71 284t202 198.5t300 72.5q218 0 357.5 -116t160.5 -302h-373q-31 148 -149 148q-87 0 -131.5 -75t-44.5 -210q0 -133 46 -206.5t134 -73.5q137 0 152 182h372q0 -196 -146 -325.5t-378 -129.5zM180 1159l244 305h342
l240 -305h-320l-86 129h-4l-86 -129h-330z" />
    <glyph glyph-name="Cdotaccent" unicode="&#x10a;" horiz-adv-x="1472" 
d="M772 -35q-219 0 -388.5 99t-261 272t-91.5 391q0 217 92.5 391t262.5 273.5t386 99.5q245 0 410 -115q112 -77 178 -194.5t80 -259.5h-428q-8 89 -76.5 153t-169.5 64q-147 0 -224 -112.5t-77 -299.5q0 -183 82.5 -297.5t222.5 -114.5q109 0 176 64t78 166h432
q-9 -118 -59.5 -223.5t-130.5 -182.5q-93 -90 -213 -132t-281 -42zM975 1722q0 -85 -59 -139.5t-152 -54.5q-92 0 -150.5 54.5t-58.5 139.5t58.5 140t150.5 55q93 0 152 -55t59 -140z" />
    <glyph glyph-name="cdotaccent" unicode="&#x10b;" horiz-adv-x="1144" 
d="M801 1296q0 -80 -58.5 -133t-150.5 -53t-150.5 53t-58.5 133t59 133.5t150 53.5t150 -53.5t59 -133.5zM600 -33q-255 0 -414 156.5t-159 396.5q0 158 71 284t202 198.5t300 72.5q218 0 357.5 -116t160.5 -302h-373q-31 148 -149 148q-87 0 -131.5 -75t-44.5 -210
q0 -133 46 -206.5t134 -73.5q137 0 152 182h372q0 -196 -146 -325.5t-378 -129.5z" />
    <glyph glyph-name="Ccaron" unicode="&#x10c;" horiz-adv-x="1472" 
d="M772 -35q-219 0 -388.5 99t-261 272t-91.5 391q0 217 92.5 391t262.5 273.5t386 99.5q245 0 410 -115q112 -77 178 -194.5t80 -259.5h-428q-8 89 -76.5 153t-169.5 64q-147 0 -224 -112.5t-77 -299.5q0 -183 82.5 -297.5t222.5 -114.5q109 0 176 64t78 166h432
q-9 -118 -59.5 -223.5t-130.5 -182.5q-93 -90 -213 -132t-281 -42zM592 1528l-240 280h320l86 -104h4l86 104h330l-244 -280h-342z" />
    <glyph glyph-name="ccaron" unicode="&#x10d;" horiz-adv-x="1144" 
d="M600 -33q-255 0 -414 156.5t-159 396.5q0 158 71 284t202 198.5t300 72.5q218 0 357.5 -116t160.5 -302h-373q-31 148 -149 148q-87 0 -131.5 -75t-44.5 -210q0 -133 46 -206.5t134 -73.5q137 0 152 182h372q0 -196 -146 -325.5t-378 -129.5zM420 1159l-240 305h320
l86 -129h4l86 129h330l-244 -305h-342z" />
    <glyph glyph-name="Dcaron" unicode="&#x10e;" horiz-adv-x="1509" 
d="M88 0v1464h676q211 0 372 -86t252 -253.5t91 -395.5q0 -205 -71 -358.5t-204 -245.5q-181 -125 -459 -125h-657zM516 354h195q152 0 242.5 97t90.5 278q0 180 -89 280.5t-244 100.5h-195v-756zM528 1528l-239 280h319l86 -104h4l86 104h330l-244 -280h-342z" />
    <glyph glyph-name="dcaron" unicode="&#x10f;" horiz-adv-x="1247" 
d="M608 258q85 0 139 78t54 194q0 114 -54 191.5t-139 77.5t-136.5 -74.5t-51.5 -194.5q0 -121 51.5 -196.5t136.5 -75.5zM498 -35q-209 0 -340 148t-131 411q0 246 129 399.5t338 153.5q105 0 169.5 -35t120.5 -108h7v530h387v-1464h-369v145h-4q-51 -87 -130.5 -133.5
t-176.5 -46.5zM1233 1112l37 352h250l-88 -352h-199z" />
    <glyph glyph-name="Dcroat" unicode="&#x110;" horiz-adv-x="1525" 
d="M104 0v588h-94v321h94v555h676q211 0 372 -86t252 -253.5t91 -395.5q0 -208 -72 -362t-209 -246q-180 -121 -452 -121h-658zM532 354h195q152 0 243 97t91 278q0 180 -89.5 280.5t-244.5 100.5h-195v-201h302v-321h-302v-234z" />
    <glyph glyph-name="dcroat" unicode="&#x111;" horiz-adv-x="1247" 
d="M608 258q85 0 139 78t54 194q0 114 -54 191.5t-139 77.5t-136.5 -74.5t-51.5 -194.5q0 -121 51.5 -196.5t136.5 -75.5zM805 145q-51 -87 -130.5 -133.5t-176.5 -46.5q-209 0 -340 148t-131 411q0 246 129 399.5t338 153.5q105 0 169.5 -35t120.5 -108h7v217h-224v172h224
v141h387v-141h102v-172h-102v-1151h-369v145h-4z" />
    <glyph glyph-name="Emacron" unicode="&#x112;" horiz-adv-x="1304" 
d="M88 0v1464h1141v-348h-713v-198h596v-322h-596v-229h733v-367h-1161zM387 1559v217h590v-217h-590z" />
    <glyph glyph-name="emacron" unicode="&#x113;" horiz-adv-x="1177" 
d="M598 -29q-254 0 -412.5 156t-158.5 397q0 156 69.5 282.5t197.5 199.5t290 73q231 0 385 -141q93 -86 139 -218.5t43 -291.5h-745q37 -195 204 -195q102 0 146 78h374q-17 -70 -69 -136t-129 -116q-138 -88 -334 -88zM406 633h360q-12 87 -58.5 136.5t-115.5 49.5
q-78 0 -124.5 -48.5t-61.5 -137.5zM293 1190v217h590v-217h-590z" />
    <glyph glyph-name="Ebreve" unicode="&#x114;" horiz-adv-x="1304" 
d="M88 0v1464h1141v-348h-713v-198h596v-322h-596v-229h733v-367h-1161zM686 1511q-102 0 -183 37t-130.5 111.5t-50.5 175.5h217q5 -42 43.5 -68t101.5 -26q59 0 98.5 28.5t42.5 65.5h217q-3 -147 -102.5 -235.5t-253.5 -88.5z" />
    <glyph glyph-name="ebreve" unicode="&#x115;" horiz-adv-x="1177" 
d="M598 -29q-254 0 -412.5 156t-158.5 397q0 156 69.5 282.5t197.5 199.5t290 73q231 0 385 -141q93 -86 139 -218.5t43 -291.5h-745q37 -195 204 -195q102 0 146 78h374q-17 -70 -69 -136t-129 -116q-138 -88 -334 -88zM406 633h360q-12 87 -58.5 136.5t-115.5 49.5
q-78 0 -124.5 -48.5t-61.5 -137.5zM592 1143q-156 0 -260 86.5t-105 236.5h217q5 -42 44 -68t102 -26q59 0 98.5 28.5t42.5 65.5h217q-3 -147 -102.5 -235t-253.5 -88z" />
    <glyph glyph-name="Edotaccent" unicode="&#x116;" horiz-adv-x="1304" 
d="M88 0v1464h1141v-348h-713v-198h596v-322h-596v-229h733v-367h-1161zM893 1722q0 -85 -59 -139.5t-152 -54.5q-92 0 -150.5 54.5t-58.5 139.5t58.5 140t150.5 55q93 0 152 -55t59 -140z" />
    <glyph glyph-name="edotaccent" unicode="&#x117;" horiz-adv-x="1177" 
d="M797 1296q0 -80 -58.5 -133t-150.5 -53t-150.5 53t-58.5 133t59 133.5t150 53.5t150 -53.5t59 -133.5zM598 -29q-254 0 -412.5 156t-158.5 397q0 156 69.5 282.5t197.5 199.5t290 73q231 0 385 -141q93 -86 139 -218.5t43 -291.5h-745q37 -195 204 -195q102 0 146 78h374
q-17 -70 -69 -136t-129 -116q-138 -88 -334 -88zM406 633h360q-12 87 -58.5 136.5t-115.5 49.5q-78 0 -124.5 -48.5t-61.5 -137.5z" />
    <glyph glyph-name="Eogonek" unicode="&#x118;" horiz-adv-x="1304" 
d="M1192 -348q-55 -19 -152 -19q-139 0 -202.5 45t-63.5 132q0 122 135 190h-821v1464h1141v-348h-713v-198h596v-322h-596v-229h733v-367h-75q-74 -61 -74 -121q0 -43 51 -43q21 0 41 4v-188z" />
    <glyph glyph-name="eogonek" unicode="&#x119;" horiz-adv-x="1177" 
d="M754 -367q-133 0 -202 44.5t-69 115.5q0 109 127 178h-12q-254 0 -412.5 156t-158.5 397q0 156 69.5 282.5t197.5 199.5t290 73q231 0 385 -141q93 -86 139 -218.5t43 -291.5h-745q37 -195 204 -195q102 0 146 78h374q-9 -35 -27.5 -70t-36.5 -60.5t-47.5 -56.5t-46 -46
t-49 -43t-40.5 -35q-78 -68 -78 -121q0 -43 51 -43q21 0 41 4v-188q-55 -19 -143 -19zM406 633h360q-12 87 -58.5 136.5t-115.5 49.5q-78 0 -124.5 -48.5t-61.5 -137.5z" />
    <glyph glyph-name="Ecaron" unicode="&#x11a;" horiz-adv-x="1304" 
d="M88 0v1464h1141v-348h-713v-198h596v-322h-596v-229h733v-367h-1161zM510 1528l-240 280h320l86 -104h4l86 104h330l-244 -280h-342z" />
    <glyph glyph-name="ecaron" unicode="&#x11b;" horiz-adv-x="1177" 
d="M598 -29q-254 0 -412.5 156t-158.5 397q0 156 69.5 282.5t197.5 199.5t290 73q231 0 385 -141q93 -86 139 -218.5t43 -291.5h-745q37 -195 204 -195q102 0 146 78h374q-17 -70 -69 -136t-129 -116q-138 -88 -334 -88zM406 633h360q-12 87 -58.5 136.5t-115.5 49.5
q-78 0 -124.5 -48.5t-61.5 -137.5zM416 1159l-240 305h320l86 -129h4l86 129h329l-243 -305h-342z" />
    <glyph glyph-name="Gcircumflex" unicode="&#x11c;" horiz-adv-x="1515" 
d="M1137 156q-132 -191 -420 -191q-301 0 -484 195q-202 214 -202 567q0 162 50 302t144 243q96 105 231.5 162t301.5 57q285 0 460.5 -139t211.5 -385h-414q-18 74 -82.5 123t-159.5 49q-149 0 -229 -113t-80 -299q0 -185 87 -301.5t239 -116.5q109 0 172.5 51t85.5 132
h-195v303h604v-795h-284l-33 156h-4zM344 1528l244 280h342l239 -280h-319l-86 104h-4l-86 -104h-330z" />
    <glyph glyph-name="gcircumflex" unicode="&#x11d;" horiz-adv-x="1193" 
d="M582 322q83 0 130.5 67t47.5 172q0 102 -48 169t-130 67q-81 0 -130 -65t-49 -171q0 -105 49 -172t130 -67zM582 -365q-225 0 -366.5 88.5t-168.5 258.5h373q12 -36 51.5 -62t103.5 -26q168 0 168 182v94h-8q-104 -119 -264 -119q-91 0 -170 31.5t-141 91.5t-97.5 156
t-35.5 215q0 149 52.5 270t150.5 191.5t223 70.5q201 0 297 -147h6v114h368v-919q0 -122 -41 -218t-112 -157q-135 -115 -389 -115zM178 1159l244 305h342l240 -305h-320l-86 129h-4l-86 -129h-330z" />
    <glyph glyph-name="Gbreve" unicode="&#x11e;" horiz-adv-x="1515" 
d="M1137 156q-132 -191 -420 -191q-301 0 -484 195q-202 214 -202 567q0 162 50 302t144 243q96 105 231.5 162t301.5 57q285 0 460.5 -139t211.5 -385h-414q-18 74 -82.5 123t-159.5 49q-149 0 -229 -113t-80 -299q0 -185 87 -301.5t239 -116.5q109 0 172.5 51t85.5 132
h-195v303h604v-795h-284l-33 156h-4zM760 1511q-102 0 -183.5 37t-131 111.5t-50.5 175.5h217q5 -42 44 -68t102 -26q59 0 98.5 28.5t42.5 65.5h217q-3 -147 -102.5 -235.5t-253.5 -88.5z" />
    <glyph glyph-name="gbreve" unicode="&#x11f;" horiz-adv-x="1193" 
d="M582 322q83 0 130.5 67t47.5 172q0 102 -48 169t-130 67q-81 0 -130 -65t-49 -171q0 -105 49 -172t130 -67zM582 -365q-225 0 -366.5 88.5t-168.5 258.5h373q12 -36 51.5 -62t103.5 -26q168 0 168 182v94h-8q-104 -119 -264 -119q-91 0 -170 31.5t-141 91.5t-97.5 156
t-35.5 215q0 149 52.5 270t150.5 191.5t223 70.5q201 0 297 -147h6v114h368v-919q0 -122 -41 -218t-112 -157q-135 -115 -389 -115zM594 1143q-156 0 -260 86.5t-105 236.5h217q5 -42 44 -68t102 -26q59 0 98.5 28.5t42.5 65.5h217q-3 -147 -102.5 -235t-253.5 -88z" />
    <glyph glyph-name="Gdotaccent" unicode="&#x120;" horiz-adv-x="1515" 
d="M1137 156q-132 -191 -420 -191q-301 0 -484 195q-202 214 -202 567q0 162 50 302t144 243q96 105 231.5 162t301.5 57q285 0 460.5 -139t211.5 -385h-414q-18 74 -82.5 123t-159.5 49q-149 0 -229 -113t-80 -299q0 -185 87 -301.5t239 -116.5q109 0 172.5 51t85.5 132
h-195v303h604v-795h-284l-33 156h-4zM967 1722q0 -85 -59 -139.5t-152 -54.5q-92 0 -150.5 54.5t-58.5 139.5t58.5 140t150.5 55q93 0 152 -55t59 -140z" />
    <glyph glyph-name="gdotaccent" unicode="&#x121;" horiz-adv-x="1193" 
d="M807 1292q0 -83 -58.5 -136.5t-150.5 -53.5t-150.5 53.5t-58.5 136.5t58.5 137t150.5 54t150.5 -54t58.5 -137zM582 322q83 0 130.5 67t47.5 172q0 102 -48 169t-130 67q-81 0 -130 -65t-49 -171q0 -105 49 -172t130 -67zM582 -365q-225 0 -366.5 88.5t-168.5 258.5h373
q12 -36 51.5 -62t103.5 -26q168 0 168 182v94h-8q-104 -119 -264 -119q-91 0 -170 31.5t-141 91.5t-97.5 156t-35.5 215q0 149 52.5 270t150.5 191.5t223 70.5q201 0 297 -147h6v114h368v-919q0 -122 -41 -218t-112 -157q-135 -115 -389 -115z" />
    <glyph glyph-name="uni0122" unicode="&#x122;" horiz-adv-x="1515" 
d="M1137 156q-132 -191 -420 -191q-301 0 -484 195q-202 214 -202 567q0 162 50 302t144 243q96 105 231.5 162t301.5 57q285 0 460.5 -139t211.5 -385h-414q-18 74 -82.5 123t-159.5 49q-149 0 -229 -113t-80 -299q0 -185 87 -301.5t239 -116.5q109 0 172.5 51t85.5 132
h-195v303h604v-795h-284l-33 156h-4zM629 -522v116q48 9 79 32.5t37 58.5q-61 0 -102 32t-41 88q0 52 42.5 87.5t111.5 35.5q74 0 119 -48.5t45 -131.5q0 -114 -81 -187.5t-210 -82.5z" />
    <glyph glyph-name="uni0123" unicode="&#x123;" horiz-adv-x="1193" 
d="M582 322q83 0 130.5 67t47.5 172q0 102 -48 169t-130 67q-81 0 -130 -65t-49 -171q0 -105 49 -172t130 -67zM582 -365q-225 0 -366.5 88.5t-168.5 258.5h373q12 -36 51.5 -62t103.5 -26q168 0 168 182v94h-8q-104 -119 -264 -119q-91 0 -170 31.5t-141 91.5t-97.5 156
t-35.5 215q0 149 52.5 270t150.5 191.5t223 70.5q201 0 297 -147h6v114h368v-919q0 -122 -41 -218t-112 -157q-135 -115 -389 -115zM719 1602v-117q-105 -20 -117 -90q61 0 102 -32.5t41 -88.5q0 -52 -42 -87.5t-111 -35.5q-74 0 -119 48.5t-45 131.5q0 114 81 188t210 83z
" />
    <glyph glyph-name="Hcircumflex" unicode="&#x124;" horiz-adv-x="1482" 
d="M88 0v1464h428v-536h451v536h428v-1464h-428v573h-451v-573h-428zM330 1528l243 280h342l240 -280h-319l-86 104h-5l-86 -104h-329z" />
    <glyph glyph-name="hcircumflex" unicode="&#x125;" horiz-adv-x="1208" 
d="M70 0v1464h387v-538h6q63 73 138.5 112t178.5 39q178 0 272.5 -108t94.5 -293v-676h-387v582q0 84 -36.5 132t-109.5 48q-72 0 -114.5 -56t-42.5 -143v-563h-387zM197 1528l243 280h342l240 -280h-320l-86 104h-4l-86 -104h-329z" />
    <glyph glyph-name="Hbar" unicode="&#x126;" horiz-adv-x="1482" 
d="M516 928h451v157h-451v-157zM516 573v-573h-428v1085h-102v175h102v204h428v-204h451v204h428v-204h102v-175h-102v-1085h-428v573h-451z" />
    <glyph glyph-name="hbar" unicode="&#x127;" horiz-adv-x="1208" 
d="M457 563v-563h-387v1151h-101v172h101v141h387v-141h225v-172h-225v-225h6q63 73 138.5 112t178.5 39q178 0 272.5 -108t94.5 -293v-676h-387v582q0 84 -36.5 132t-109.5 48q-72 0 -114.5 -56t-42.5 -143z" />
    <glyph glyph-name="Itilde" unicode="&#x128;" horiz-adv-x="604" 
d="M88 0v1464h428v-1464h-428zM-72 1524q0 151 67 231t171 80q65 0 145 -39q5 -2 16 -8t14 -8t11.5 -6t11.5 -5.5t10 -4t10.5 -3.5t9 -2t10.5 -1.5t10 -0.5q33 0 47.5 19.5t17.5 58.5h197q0 -139 -56.5 -220t-166.5 -81q-67 0 -142 33q-13 6 -31.5 15t-26 13t-18.5 8
t-20 5.5t-20 1.5q-29 0 -47 -22.5t-23 -63.5h-197z" />
    <glyph glyph-name="itilde" unicode="&#x129;" horiz-adv-x="526" 
d="M-74 1155q0 152 60.5 231.5t154.5 79.5q63 0 135 -39q35 -21 48.5 -26.5t31.5 -5.5q29 0 40.5 17t13.5 54h190q0 -139 -52 -220t-149 -81q-63 0 -131 33q-44 23 -61.5 30t-36.5 7q-26 0 -37 -18.5t-14 -61.5h-193zM70 0v1044h387v-1044h-387z" />
    <glyph glyph-name="Imacron" unicode="&#x12a;" horiz-adv-x="604" 
d="M88 0v1464h428v-1464h-428zM6 1559v217h590v-217h-590z" />
    <glyph glyph-name="imacron" unicode="&#x12b;" horiz-adv-x="526" 
d="M-20 1190v217h569v-217h-569zM70 0v1044h387v-1044h-387z" />
    <glyph glyph-name="Ibreve" unicode="&#x12c;" horiz-adv-x="604" 
d="M88 0v1464h428v-1464h-428zM305 1511q-102 0 -183 37t-130.5 111.5t-50.5 175.5h217q5 -42 43.5 -68t101.5 -26q59 0 98.5 28.5t42.5 65.5h218q-3 -147 -103 -235.5t-254 -88.5z" />
    <glyph glyph-name="ibreve" unicode="&#x12d;" horiz-adv-x="526" 
d="M266 1143q-140 0 -233.5 86.5t-93.5 236.5h206q10 -94 119 -94q52 0 82 27.5t33 66.5h207q-1 -147 -91 -235t-229 -88zM70 0v1044h387v-1044h-387z" />
    <glyph glyph-name="Iogonek" unicode="&#x12e;" horiz-adv-x="604" 
d="M373 -367q-145 0 -210 44.5t-65 132.5q0 66 38 113.5t95 76.5h-143v1464h428v-1456q-92 -57 -92 -129q0 -43 51 -43q21 0 41 4v-188q-55 -19 -143 -19z" />
    <glyph glyph-name="iogonek" unicode="&#x12f;" horiz-adv-x="526" 
d="M473 1288q0 -85 -59 -139.5t-152 -54.5q-92 0 -150.5 54.5t-58.5 139.5t58.5 140t150.5 55q93 0 152 -55t59 -140zM313 -367q-270 0 -270 177q0 68 46.5 116t111.5 74h-131v1044h387v-1040q-92 -57 -92 -125q0 -43 51 -43q21 0 41 4v-188q-55 -19 -144 -19z" />
    <glyph glyph-name="Idotaccent" unicode="&#x130;" horiz-adv-x="604" 
d="M88 0v1464h428v-1464h-428zM512 1722q0 -85 -59 -139.5t-152 -54.5q-92 0 -150.5 54.5t-58.5 139.5t58.5 140t150.5 55q93 0 152 -55t59 -140z" />
    <glyph glyph-name="dotlessi" unicode="&#x131;" horiz-adv-x="526" 
d="M70 0v1044h387v-1044h-387z" />
    <glyph glyph-name="IJ" unicode="&#x132;" horiz-adv-x="1751" 
d="M88 0v1464h428v-1464h-428zM1137 -27q-140 0 -247.5 40.5t-171 112t-95 161t-31.5 194.5v113h395v-117q0 -74 34 -110.5t97 -36.5q127 0 127 143v991h428v-1005q0 -203 -100 -320q-67 -78 -179.5 -122t-256.5 -44z" />
    <glyph glyph-name="ij" unicode="&#x133;" horiz-adv-x="1052" 
d="M473 1288q0 -85 -59 -139.5t-152 -54.5q-92 0 -150.5 54.5t-58.5 139.5t58.5 140t150.5 55q93 0 152 -55t59 -140zM70 0v1044h387v-1044h-387zM999 1288q0 -85 -59 -139.5t-152 -54.5q-92 0 -150 54.5t-58 139.5t58 140t150 55q93 0 152 -55t59 -140zM637 -356
q-121 0 -219 20v264q45 -2 78.5 -1t55.5 10t33 33.5t11 70.5v1003h387v-1017q0 -202 -90 -295q-84 -88 -256 -88z" />
    <glyph glyph-name="Jcircumflex" unicode="&#x134;" horiz-adv-x="1175" 
d="M561 -27q-140 0 -247.5 40.5t-171 112t-95 161t-31.5 194.5v113h396v-117q0 -74 34 -110.5t97 -36.5q127 0 127 143v991h428v-1005q0 -202 -101 -320q-67 -78 -179.5 -122t-256.5 -44zM469 1528l244 280h342l239 -280h-319l-86 104h-4l-86 -104h-330z" />
    <glyph glyph-name="jcircumflex" unicode="&#x135;" horiz-adv-x="526" 
d="M-109 1159l183 305h387l174 -305h-307l-58 121h-4l-57 -121h-318zM111 -356q-122 0 -220 20v264q45 -2 79 -1t56 10t33 33.5t11 70.5v1003h387v-1017q0 -202 -90 -295q-84 -88 -256 -88z" />
    <glyph glyph-name="uni0136" unicode="&#x136;" horiz-adv-x="1472" 
d="M88 0v1464h428v-479l442 479h492l-547 -590l578 -874h-498l-373 580l-94 -107v-473h-428zM592 -522v116q48 9 79.5 33t37.5 58q-61 0 -102.5 32t-41.5 88q0 52 42.5 87.5t111.5 35.5q74 0 119 -48.5t45 -131.5q0 -114 -81 -187.5t-210 -82.5z" />
    <glyph glyph-name="uni0137" unicode="&#x137;" horiz-adv-x="1175" 
d="M70 0v1464h381v-731l251 311h435l-349 -385l390 -659h-439l-209 375l-79 -88v-287h-381zM438 -522v116q48 9 79.5 33t37.5 58q-61 0 -102 32t-41 88q0 52 42 87.5t111 35.5q74 0 119 -48.5t45 -131.5q0 -114 -81 -187.5t-210 -82.5z" />
    <glyph glyph-name="Lacute" unicode="&#x139;" horiz-adv-x="1167" 
d="M88 0v1464h428v-1097h627v-367h-1055zM147 1528l89 276h440l-238 -276h-291z" />
    <glyph glyph-name="lacute" unicode="&#x13a;" horiz-adv-x="536" 
d="M70 0v1464h397v-1464h-397zM111 1528l88 276h440l-238 -276h-290z" />
    <glyph glyph-name="uni013B" unicode="&#x13b;" horiz-adv-x="1167" 
d="M88 0v1464h428v-1097h627v-367h-1055zM487 -522v116q48 9 79.5 33t37.5 58q-61 0 -102 32t-41 88q0 52 42 87.5t111 35.5q74 0 119 -48.5t45 -131.5q0 -114 -81 -187.5t-210 -82.5z" />
    <glyph glyph-name="uni013C" unicode="&#x13c;" horiz-adv-x="536" 
d="M70 0v1464h397v-1464h-397zM141 -522v116q48 9 79.5 33t37.5 58q-61 0 -102 32t-41 88q0 52 42 87.5t111 35.5q74 0 119 -48.5t45 -131.5q0 -114 -81 -187.5t-210 -82.5z" />
    <glyph glyph-name="Lcaron" unicode="&#x13d;" horiz-adv-x="1167" 
d="M856 1069h-227l43 395h280zM88 0v1464h428v-1097h627v-367h-1055z" />
    <glyph glyph-name="lcaron" unicode="&#x13e;" horiz-adv-x="536" 
d="M70 0v1464h397v-1464h-397zM522 1112l37 352h250l-88 -352h-199z" />
    <glyph glyph-name="Ldot" unicode="&#x13f;" horiz-adv-x="1167" 
d="M88 0v1464h428v-1097h627v-367h-1055zM920 1010q93 0 153 -58.5t60 -148.5q0 -91 -60.5 -150t-152.5 -59t-151.5 59t-59.5 150t59.5 149t151.5 58z" />
    <glyph glyph-name="ldot" unicode="&#x140;" horiz-adv-x="913" 
d="M70 0v1464h397v-1464h-397zM725 901q88 0 144.5 -54t56.5 -140t-56.5 -141.5t-144.5 -55.5t-143.5 55.5t-55.5 141.5t55.5 140t143.5 54z" />
    <glyph glyph-name="Lslash" unicode="&#x141;" horiz-adv-x="1187" 
d="M109 0v432l-117 -61v280l117 62v751h428v-524l374 199v-281l-374 -199v-292h626v-367h-1054z" />
    <glyph glyph-name="lslash" unicode="&#x142;" horiz-adv-x="598" 
d="M100 0v416l-98 -70v281l98 69v768h398v-481l108 78v-281l-108 -78v-702h-398z" />
    <glyph glyph-name="Nacute" unicode="&#x143;" horiz-adv-x="1501" 
d="M502 829v-829h-414v1464h428l381 -653l98 -170h4v823h414v-1464h-442l-359 641l-106 188h-4zM606 1528l88 276h441l-238 -276h-291z" />
    <glyph glyph-name="nacute" unicode="&#x144;" horiz-adv-x="1208" 
d="M70 0v1044h368v-143h6q129 176 336 176q178 0 272.5 -108t94.5 -293v-676h-387v582q0 84 -36.5 132t-109.5 48q-72 0 -114.5 -56t-42.5 -143v-563h-387zM465 1159l119 318h444l-272 -318h-291z" />
    <glyph glyph-name="uni0145" unicode="&#x145;" horiz-adv-x="1501" 
d="M502 829v-829h-414v1464h428l381 -653l98 -170h4v823h414v-1464h-442l-359 641l-106 188h-4zM616 -522v116q48 9 79.5 33t37.5 58q-61 0 -102 32t-41 88q0 52 42 87.5t111 35.5q74 0 119 -48.5t45 -131.5q0 -114 -81 -187.5t-210 -82.5z" />
    <glyph glyph-name="uni0146" unicode="&#x146;" horiz-adv-x="1208" 
d="M70 0v1044h368v-143h6q129 176 336 176q178 0 272.5 -108t94.5 -293v-676h-387v582q0 84 -36.5 132t-109.5 48q-72 0 -114.5 -56t-42.5 -143v-563h-387zM481 -522v116q48 9 79.5 33t37.5 58q-61 0 -102 32t-41 88q0 52 42 87.5t111 35.5q74 0 119 -48.5t45 -131.5
q0 -114 -81 -187.5t-210 -82.5z" />
    <glyph glyph-name="Ncaron" unicode="&#x147;" horiz-adv-x="1501" 
d="M502 829v-829h-414v1464h428l381 -653l98 -170h4v823h414v-1464h-442l-359 641l-106 188h-4zM592 1528l-240 280h320l86 -104h4l86 104h330l-244 -280h-342z" />
    <glyph glyph-name="ncaron" unicode="&#x148;" horiz-adv-x="1208" 
d="M70 0v1044h368v-143h6q129 176 336 176q178 0 272.5 -108t94.5 -293v-676h-387v582q0 84 -36.5 132t-109.5 48q-72 0 -114.5 -56t-42.5 -143v-563h-387zM451 1159l-240 305h319l86 -129h5l86 129h329l-243 -305h-342z" />
    <glyph glyph-name="napostrophe" unicode="&#x149;" horiz-adv-x="1208" 
d="M-258 877v149q112 26 131 125q-74 3 -120 48t-46 118q0 80 49.5 127t128.5 47q88 0 138.5 -68t50.5 -186q0 -164 -91.5 -254t-240.5 -106zM70 0v1044h368v-143h6q129 176 336 176q178 0 272.5 -108t94.5 -293v-676h-387v582q0 84 -36.5 132t-109.5 48q-72 0 -114.5 -56
t-42.5 -143v-563h-387z" />
    <glyph glyph-name="Omacron" unicode="&#x14c;" horiz-adv-x="1548" 
d="M772 -35q-223 0 -392.5 99t-259 271.5t-89.5 391.5t89.5 392t259 272.5t392.5 99.5q168 0 308 -58t236 -159.5t149 -242.5t53 -304t-53 -303.5t-149 -242t-236 -159t-308 -57.5zM774 307q149 0 229 116.5t80 303.5t-80 304.5t-229 117.5t-229 -117.5t-80 -304.5
t80 -303.5t229 -116.5zM479 1559v217h590v-217h-590z" />
    <glyph glyph-name="omacron" unicode="&#x14d;" horiz-adv-x="1196" 
d="M600 -33q-171 0 -302 72t-201 197.5t-70 283.5q0 241 158 398t415 157q170 0 300.5 -72.5t199.5 -198.5t69 -284q0 -242 -156 -397.5t-413 -155.5zM596 225q87 0 133.5 79.5t46.5 215.5t-46.5 215.5t-133.5 79.5t-131.5 -79.5t-44.5 -215.5t44.5 -215.5t131.5 -79.5z
M303 1190v217h590v-217h-590z" />
    <glyph glyph-name="Obreve" unicode="&#x14e;" horiz-adv-x="1548" 
d="M772 -35q-223 0 -392.5 99t-259 271.5t-89.5 391.5t89.5 392t259 272.5t392.5 99.5q168 0 308 -58t236 -159.5t149 -242.5t53 -304t-53 -303.5t-149 -242t-236 -159t-308 -57.5zM774 307q149 0 229 116.5t80 303.5t-80 304.5t-229 117.5t-229 -117.5t-80 -304.5
t80 -303.5t229 -116.5zM778 1511q-102 0 -183 37t-130.5 111.5t-50.5 175.5h217q5 -42 43.5 -68t101.5 -26q59 0 99 28.5t43 65.5h217q-3 -147 -103 -235.5t-254 -88.5z" />
    <glyph glyph-name="obreve" unicode="&#x14f;" horiz-adv-x="1196" 
d="M600 -33q-171 0 -302 72t-201 197.5t-70 283.5q0 241 158 398t415 157q170 0 300.5 -72.5t199.5 -198.5t69 -284q0 -242 -156 -397.5t-413 -155.5zM596 225q87 0 133.5 79.5t46.5 215.5t-46.5 215.5t-133.5 79.5t-131.5 -79.5t-44.5 -215.5t44.5 -215.5t131.5 -79.5z
M602 1143q-102 0 -183 37t-130.5 111t-50.5 175h217q5 -42 43.5 -68t101.5 -26q59 0 98.5 28.5t42.5 65.5h217q-3 -147 -102.5 -235t-253.5 -88z" />
    <glyph glyph-name="Ohungarumlaut" unicode="&#x150;" horiz-adv-x="1548" 
d="M772 -35q-223 0 -392.5 99t-259 271.5t-89.5 391.5t89.5 392t259 272.5t392.5 99.5q168 0 308 -58t236 -159.5t149 -242.5t53 -304t-53 -303.5t-149 -242t-236 -159t-308 -57.5zM774 307q149 0 229 116.5t80 303.5t-80 304.5t-229 117.5t-229 -117.5t-80 -304.5
t80 -303.5t229 -116.5zM856 1528l119 317h383l-258 -317h-244zM412 1528l118 317h383l-258 -317h-243z" />
    <glyph glyph-name="ohungarumlaut" unicode="&#x151;" horiz-adv-x="1196" 
d="M600 -33q-171 0 -302 72t-201 197.5t-70 283.5q0 241 158 398t415 157q170 0 300.5 -72.5t199.5 -198.5t69 -284q0 -242 -156 -397.5t-413 -155.5zM596 225q87 0 133.5 79.5t46.5 215.5t-46.5 215.5t-133.5 79.5t-131.5 -79.5t-44.5 -215.5t44.5 -215.5t131.5 -79.5z
M680 1159l119 318h383l-258 -318h-244zM236 1159l118 318h383l-258 -318h-243z" />
    <glyph glyph-name="OE" unicode="&#x152;" horiz-adv-x="2254" 
d="M766 307q98 0 167 55.5t101.5 149t32.5 215.5t-32.5 216t-101.5 150t-167 56t-167 -56t-101.5 -150t-32.5 -216t32.5 -215.5t101.5 -149t167 -55.5zM764 -35q-223 0 -390.5 99.5t-255 271.5t-87.5 391t87.5 391.5t255 272.5t390.5 100q221 0 356 -129v102h1059v-348h-672
v-198h555v-322h-555v-229h693v-367h-1080v98q-136 -133 -356 -133z" />
    <glyph glyph-name="oe" unicode="&#x153;" horiz-adv-x="1908" 
d="M1135 633h360q-12 87 -58.5 136.5t-115.5 49.5q-78 0 -124.5 -48.5t-61.5 -137.5zM596 225q87 0 133.5 79.5t46.5 215.5t-46.5 215.5t-133.5 79.5t-131.5 -79.5t-44.5 -215.5t44.5 -215.5t131.5 -79.5zM600 -33q-171 0 -302 72t-201 197.5t-70 283.5q0 241 158 398
t415 157q225 0 358 -127q137 131 355 131q231 0 385 -141q93 -86 139 -218.5t43 -291.5h-745q37 -195 204 -195q102 0 146 78h375q-17 -70 -69.5 -136t-129.5 -116q-138 -88 -334 -88q-225 0 -362 125q-135 -129 -365 -129z" />
    <glyph glyph-name="Racute" unicode="&#x154;" horiz-adv-x="1415" 
d="M516 815h229q93 0 142 40t49 116q0 74 -47 115.5t-137 41.5h-236v-313zM88 0v1464h727q114 0 212.5 -26.5t175.5 -78.5t121 -137t44 -194q0 -247 -240 -356v-6q166 -63 205 -242q15 -70 19.5 -173.5t11 -162.5t29.5 -65v-23h-422q-18 13 -25 67t-13 138t-18 135
q-21 89 -65.5 129.5t-134.5 40.5h-199v-510h-428zM551 1528l88 276h440l-237 -276h-291z" />
    <glyph glyph-name="racute" unicode="&#x155;" horiz-adv-x="847" 
d="M70 0v1044h368v-157h6q61 96 138 138t180 42q43 0 63 -10v-330h-8q-172 30 -266 -47t-94 -252v-428h-387zM322 1159l118 318h445l-273 -318h-290z" />
    <glyph glyph-name="uni0156" unicode="&#x156;" horiz-adv-x="1415" 
d="M516 815h229q93 0 142 40t49 116q0 74 -47 115.5t-137 41.5h-236v-313zM88 0v1464h727q114 0 212.5 -26.5t175.5 -78.5t121 -137t44 -194q0 -247 -240 -356v-6q166 -63 205 -242q15 -70 19.5 -173.5t11 -162.5t29.5 -65v-23h-422q-18 13 -25 67t-13 138t-18 135
q-21 89 -65.5 129.5t-134.5 40.5h-199v-510h-428zM563 -522v116q48 9 79.5 33t37.5 58q-61 0 -102 32t-41 88q0 52 42 87.5t111 35.5q74 0 119 -48.5t45 -131.5q0 -114 -81 -187.5t-210 -82.5z" />
    <glyph glyph-name="uni0157" unicode="&#x157;" horiz-adv-x="847" 
d="M70 0v1044h368v-157h6q61 96 138 138t180 42q43 0 63 -10v-330h-8q-172 30 -266 -47t-94 -252v-428h-387zM125 -522v116q48 9 79.5 33t37.5 58q-61 0 -102.5 32t-41.5 88q0 52 42.5 87.5t111.5 35.5q74 0 119 -48.5t45 -131.5q0 -114 -81 -187.5t-210 -82.5z" />
    <glyph glyph-name="Rcaron" unicode="&#x158;" horiz-adv-x="1415" 
d="M516 815h229q93 0 142 40t49 116q0 74 -47 115.5t-137 41.5h-236v-313zM88 0v1464h727q114 0 212.5 -26.5t175.5 -78.5t121 -137t44 -194q0 -247 -240 -356v-6q166 -63 205 -242q15 -70 19.5 -173.5t11 -162.5t29.5 -65v-23h-422q-18 13 -25 67t-13 138t-18 135
q-21 89 -65.5 129.5t-134.5 40.5h-199v-510h-428zM537 1528l-240 280h319l86 -104h5l86 104h329l-243 -280h-342z" />
    <glyph glyph-name="rcaron" unicode="&#x159;" horiz-adv-x="847" 
d="M70 0v1044h368v-157h6q61 96 138 138t180 42q43 0 63 -10v-330h-8q-172 30 -266 -47t-94 -252v-428h-387zM307 1159l-239 305h319l86 -129h4l86 129h330l-244 -305h-342z" />
    <glyph glyph-name="Sacute" unicode="&#x15a;" horiz-adv-x="1347" 
d="M688 -35q-145 0 -266 31.5t-212.5 92.5t-143.5 157.5t-54 220.5h439q21 -172 245 -172q46 0 86.5 11.5t70.5 40t30 69.5q0 21 -6.5 37.5t-25 30.5t-35 23.5t-54 21t-62.5 18t-80 20.5q-11 3 -16 4q-65 16 -108.5 28.5t-105.5 34.5t-104 44.5t-88 58t-73.5 75.5
t-45.5 95.5t-18 120.5q0 98 31.5 177t86 131.5t132 88t165.5 51t190 15.5q93 0 177 -15.5t159 -50t129.5 -86t87 -127t34.5 -168.5h-424q-20 132 -186 132q-70 0 -115 -29t-45 -74q0 -14 4 -26t14.5 -22t21.5 -17.5t31.5 -15.5t38.5 -13.5t48 -13t54 -13t63 -14.5t69 -16
q69 -17 122.5 -34t113.5 -43.5t103 -61.5t79.5 -81t55 -109t18.5 -138q0 -116 -50 -210.5t-136 -155t-200 -92.5t-245 -32zM506 1528l88 276h440l-237 -276h-291z" />
    <glyph glyph-name="sacute" unicode="&#x15b;" horiz-adv-x="1071" 
d="M535 -35q-237 0 -381.5 98.5t-145.5 274.5h371q5 -65 45 -101t113 -36q60 0 96.5 22.5t36.5 67.5q0 19 -8 34.5t-24.5 26.5t-34.5 18.5t-47.5 14t-53 10.5t-60.5 9q-19 3 -28 4q-53 8 -90 16.5t-85.5 24t-81 39t-62.5 57.5t-45 84.5t-15 113.5q0 104 66 181t172.5 115
t236.5 38q235 0 361 -83.5t137 -239.5h-365q-12 94 -131 94q-47 0 -79 -19.5t-32 -56.5q0 -14 7 -25.5t23.5 -20t31.5 -14.5t45.5 -11.5t49.5 -8.5t58 -8q51 -7 84.5 -13t83.5 -19.5t83 -29t70.5 -43t59.5 -61.5t37 -84t15 -110q0 -121 -70 -203.5t-183 -119t-261 -36.5z
M371 1159l118 318h445l-272 -318h-291z" />
    <glyph glyph-name="Scircumflex" unicode="&#x15c;" horiz-adv-x="1347" 
d="M688 -35q-145 0 -266 31.5t-212.5 92.5t-143.5 157.5t-54 220.5h439q21 -172 245 -172q46 0 86.5 11.5t70.5 40t30 69.5q0 21 -6.5 37.5t-25 30.5t-35 23.5t-54 21t-62.5 18t-80 20.5q-11 3 -16 4q-65 16 -108.5 28.5t-105.5 34.5t-104 44.5t-88 58t-73.5 75.5
t-45.5 95.5t-18 120.5q0 98 31.5 177t86 131.5t132 88t165.5 51t190 15.5q93 0 177 -15.5t159 -50t129.5 -86t87 -127t34.5 -168.5h-424q-20 132 -186 132q-70 0 -115 -29t-45 -74q0 -14 4 -26t14.5 -22t21.5 -17.5t31.5 -15.5t38.5 -13.5t48 -13t54 -13t63 -14.5t69 -16
q69 -17 122.5 -34t113.5 -43.5t103 -61.5t79.5 -81t55 -109t18.5 -138q0 -116 -50 -210.5t-136 -155t-200 -92.5t-245 -32zM252 1528l244 280h342l239 -280h-319l-86 104h-4l-86 -104h-330z" />
    <glyph glyph-name="scircumflex" unicode="&#x15d;" horiz-adv-x="1071" 
d="M535 -35q-237 0 -381.5 98.5t-145.5 274.5h371q5 -65 45 -101t113 -36q60 0 96.5 22.5t36.5 67.5q0 19 -8 34.5t-24.5 26.5t-34.5 18.5t-47.5 14t-53 10.5t-60.5 9q-19 3 -28 4q-53 8 -90 16.5t-85.5 24t-81 39t-62.5 57.5t-45 84.5t-15 113.5q0 104 66 181t172.5 115
t236.5 38q235 0 361 -83.5t137 -239.5h-365q-12 94 -131 94q-47 0 -79 -19.5t-32 -56.5q0 -14 7 -25.5t23.5 -20t31.5 -14.5t45.5 -11.5t49.5 -8.5t58 -8q51 -7 84.5 -13t83.5 -19.5t83 -29t70.5 -43t59.5 -61.5t37 -84t15 -110q0 -121 -70 -203.5t-183 -119t-261 -36.5z
M117 1159l243 305h342l240 -305h-319l-86 129h-5l-86 -129h-329z" />
    <glyph glyph-name="uni015E" unicode="&#x15e;" horiz-adv-x="1347" 
d="M616 -395q-147 0 -241 59l43 76q67 -31 139 -31q105 0 105 58q0 49 -70 49q-30 0 -68 -15l-37 54l113 114q-172 12 -301 69.5t-206.5 167.5t-80.5 261h439q21 -172 245 -172q46 0 86.5 11.5t70.5 40t30 69.5q0 21 -6.5 37.5t-25 30.5t-35 23.5t-54 21t-62.5 18t-80 20.5
q-11 3 -16 4q-65 16 -108.5 28.5t-105.5 34.5t-104 44.5t-88 58t-73.5 75.5t-45.5 95.5t-18 120.5q0 98 31.5 177t86 131.5t132 88t165.5 51t190 15.5q93 0 177 -15.5t159 -50t129.5 -86t87 -127t34.5 -168.5h-424q-20 132 -186 132q-70 0 -115 -29t-45 -74q0 -14 4 -26
t14.5 -22t21.5 -17.5t31.5 -15.5t38.5 -13.5t48 -13t54 -13t63 -14.5t69 -16q69 -17 122.5 -34t113.5 -43.5t103 -61.5t79.5 -81t55 -109t18.5 -138q0 -149 -80 -259t-211.5 -166.5t-298.5 -62.5l-65 -55v-4q98 5 156.5 -32t58.5 -112q0 -73 -74 -116t-189 -43z" />
    <glyph glyph-name="uni015F" unicode="&#x15f;" horiz-adv-x="1071" 
d="M481 -395q-147 0 -241 59l43 76q67 -31 139 -31q104 0 104 58q0 49 -69 49q-30 0 -68 -15l-37 54l113 112q-208 14 -332 111t-125 260h371q5 -65 45 -101t113 -36q60 0 96.5 22.5t36.5 67.5q0 19 -8 34.5t-24.5 26.5t-34.5 18.5t-47.5 14t-53 10.5t-60.5 9q-19 3 -28 4
q-53 8 -90 16.5t-85.5 24t-81 39t-62.5 57.5t-45 84.5t-15 113.5q0 104 66 181t172.5 115t236.5 38q235 0 361 -83.5t137 -239.5h-365q-12 94 -131 94q-47 0 -79 -19.5t-32 -56.5q0 -14 7 -25.5t23.5 -20t31.5 -14.5t45.5 -11.5t49.5 -8.5t58 -8q51 -7 84.5 -13t83.5 -19.5
t83 -29t70.5 -43t59.5 -61.5t37 -84t15 -110q0 -113 -61 -192.5t-161 -118.5t-233 -46l-66 -55v-4q98 5 156.5 -32t58.5 -112q0 -73 -73.5 -116t-188.5 -43z" />
    <glyph glyph-name="Scaron" unicode="&#x160;" horiz-adv-x="1347" 
d="M688 -35q-145 0 -266 31.5t-212.5 92.5t-143.5 157.5t-54 220.5h439q21 -172 245 -172q46 0 86.5 11.5t70.5 40t30 69.5q0 21 -6.5 37.5t-25 30.5t-35 23.5t-54 21t-62.5 18t-80 20.5q-11 3 -16 4q-65 16 -108.5 28.5t-105.5 34.5t-104 44.5t-88 58t-73.5 75.5
t-45.5 95.5t-18 120.5q0 98 31.5 177t86 131.5t132 88t165.5 51t190 15.5q93 0 177 -15.5t159 -50t129.5 -86t87 -127t34.5 -168.5h-424q-20 132 -186 132q-70 0 -115 -29t-45 -74q0 -14 4 -26t14.5 -22t21.5 -17.5t31.5 -15.5t38.5 -13.5t48 -13t54 -13t63 -14.5t69 -16
q69 -17 122.5 -34t113.5 -43.5t103 -61.5t79.5 -81t55 -109t18.5 -138q0 -116 -50 -210.5t-136 -155t-200 -92.5t-245 -32zM492 1528l-240 280h319l86 -104h5l86 104h329l-243 -280h-342z" />
    <glyph glyph-name="scaron" unicode="&#x161;" horiz-adv-x="1071" 
d="M535 -35q-237 0 -381.5 98.5t-145.5 274.5h371q5 -65 45 -101t113 -36q60 0 96.5 22.5t36.5 67.5q0 19 -8 34.5t-24.5 26.5t-34.5 18.5t-47.5 14t-53 10.5t-60.5 9q-19 3 -28 4q-53 8 -90 16.5t-85.5 24t-81 39t-62.5 57.5t-45 84.5t-15 113.5q0 104 66 181t172.5 115
t236.5 38q235 0 361 -83.5t137 -239.5h-365q-12 94 -131 94q-47 0 -79 -19.5t-32 -56.5q0 -14 7 -25.5t23.5 -20t31.5 -14.5t45.5 -11.5t49.5 -8.5t58 -8q51 -7 84.5 -13t83.5 -19.5t83 -29t70.5 -43t59.5 -61.5t37 -84t15 -110q0 -121 -70 -203.5t-183 -119t-261 -36.5z
M356 1159l-239 305h319l86 -129h4l86 129h330l-244 -305h-342z" />
    <glyph glyph-name="Tcommaaccent" unicode="&#x162;" horiz-adv-x="1323" 
d="M444 0v1100h-413v364h1261v-364h-420v-1100h-428zM535 -522v116q48 9 79 32.5t37 58.5q-61 0 -102 32t-41 88q0 52 42.5 87.5t111.5 35.5q74 0 118.5 -48.5t44.5 -131.5q0 -114 -80.5 -187.5t-209.5 -82.5z" />
    <glyph glyph-name="tcommaaccent" unicode="&#x163;" horiz-adv-x="757" 
d="M532 -20q-199 0 -290.5 70t-91.5 251v510h-136v233h136v338h378v-338h199v-233h-199v-424q0 -59 32 -80.5t99 -19.5q41 0 64 2v-285q-101 -24 -191 -24zM276 -522v116q48 9 79.5 33t37.5 58q-61 0 -102 32t-41 88q0 52 42 87.5t111 35.5q74 0 119 -48.5t45 -131.5
q0 -114 -81 -187.5t-210 -82.5z" />
    <glyph glyph-name="Tcaron" unicode="&#x164;" horiz-adv-x="1323" 
d="M444 0v1100h-413v364h1261v-364h-420v-1100h-428zM489 1528l-239 280h319l86 -104h4l86 104h330l-244 -280h-342z" />
    <glyph glyph-name="tcaron" unicode="&#x165;" horiz-adv-x="757" 
d="M14 811v233h136v338h378v-338h199v-233h-199v-424q0 -59 31 -79.5t98 -20.5q43 0 66 2v-285q-101 -24 -191 -24q-199 0 -290.5 70t-91.5 251v510h-136zM588 1112l37 352h249l-88 -352h-198z" />
    <glyph glyph-name="Tbar" unicode="&#x166;" horiz-adv-x="1323" 
d="M1139 561h-267v-561h-428v561h-260v254h260v285h-413v364h1261v-364h-420v-285h267v-254z" />
    <glyph glyph-name="tbar" unicode="&#x167;" horiz-adv-x="757" 
d="M723 4q-101 -24 -191 -24q-199 0 -290.5 70t-91.5 251v240h-136v172h136v98h-136v233h136v338h378v-338h199v-233h-199v-98h199v-172h-199v-154q0 -59 31 -79.5t98 -20.5q41 0 66 2v-285z" />
    <glyph glyph-name="Utilde" unicode="&#x168;" horiz-adv-x="1462" 
d="M731 -27q-324 0 -488.5 152.5t-164.5 433.5v905h428v-929q0 -104 57.5 -162t173.5 -58q106 0 162.5 62.5t56.5 165.5v921h428v-905q0 -276 -165.5 -431t-487.5 -155zM358 1524q0 151 67 231t171 80q65 0 145 -39q5 -2 16 -8t14 -8t11.5 -6t11.5 -5.5t10 -4t10.5 -3.5
t9 -2t10.5 -1.5t10 -0.5q33 0 47.5 19.5t17.5 58.5h197q0 -139 -56.5 -220t-166.5 -81q-67 0 -142 33q-13 6 -31.5 15t-26 13t-18.5 8t-20 5.5t-20 1.5q-29 0 -47 -22.5t-23 -63.5h-197z" />
    <glyph glyph-name="utilde" unicode="&#x169;" horiz-adv-x="1204" 
d="M434 -33q-182 0 -277.5 109t-95.5 295v673h388v-581q0 -166 139 -166q75 0 117.5 49.5t42.5 134.5v563h387v-1044h-369v135h-6q-123 -168 -326 -168zM225 1155q0 151 67 231t171 80q65 0 145 -39q33 -17 44 -22.5t27 -10.5t32 -5q33 0 47.5 19.5t17.5 57.5h197
q0 -139 -56.5 -220t-166.5 -81q-67 0 -142 33q-13 6 -31.5 15t-26 13t-18.5 8t-20 5.5t-20 1.5q-29 0 -47 -22.5t-23 -63.5h-197z" />
    <glyph glyph-name="Umacron" unicode="&#x16a;" horiz-adv-x="1462" 
d="M731 -27q-324 0 -488.5 152.5t-164.5 433.5v905h428v-929q0 -104 57.5 -162t173.5 -58q106 0 162.5 62.5t56.5 165.5v921h428v-905q0 -276 -165.5 -431t-487.5 -155zM436 1559v217h590v-217h-590z" />
    <glyph glyph-name="umacron" unicode="&#x16b;" horiz-adv-x="1204" 
d="M434 -33q-182 0 -277.5 109t-95.5 295v673h388v-581q0 -166 139 -166q75 0 117.5 49.5t42.5 134.5v563h387v-1044h-369v135h-6q-123 -168 -326 -168zM303 1190v217h590v-217h-590z" />
    <glyph glyph-name="Ubreve" unicode="&#x16c;" horiz-adv-x="1462" 
d="M731 -27q-324 0 -488.5 152.5t-164.5 433.5v905h428v-929q0 -104 57.5 -162t173.5 -58q106 0 162.5 62.5t56.5 165.5v921h428v-905q0 -276 -165.5 -431t-487.5 -155zM735 1511q-102 0 -183 37t-130.5 111.5t-50.5 175.5h217q5 -42 43.5 -68t101.5 -26q59 0 98.5 28.5
t42.5 65.5h218q-3 -147 -103 -235.5t-254 -88.5z" />
    <glyph glyph-name="ubreve" unicode="&#x16d;" horiz-adv-x="1204" 
d="M434 -33q-182 0 -277.5 109t-95.5 295v673h388v-581q0 -166 139 -166q75 0 117.5 49.5t42.5 134.5v563h387v-1044h-369v135h-6q-123 -168 -326 -168zM602 1143q-102 0 -183 37t-130.5 111t-50.5 175h217q5 -42 43.5 -68t101.5 -26q59 0 98.5 28.5t42.5 65.5h217
q-3 -147 -102.5 -235t-253.5 -88z" />
    <glyph glyph-name="Uring" unicode="&#x16e;" horiz-adv-x="1462" 
d="M731 -27q-324 0 -488.5 152.5t-164.5 433.5v905h428v-929q0 -104 57.5 -162t173.5 -58q106 0 162.5 62.5t56.5 165.5v921h428v-905q0 -276 -165.5 -431t-487.5 -155zM731 1505q-90 0 -154.5 60.5t-64.5 148.5q0 89 64.5 150t154.5 61t154.5 -61t64.5 -150
q0 -88 -64.5 -148.5t-154.5 -60.5zM731 1636q34 0 56 23t22 55t-22 56t-56 24t-56 -24t-22 -56t22 -55t56 -23z" />
    <glyph glyph-name="uring" unicode="&#x16f;" horiz-adv-x="1204" 
d="M434 -33q-182 0 -277.5 109t-95.5 295v673h388v-581q0 -166 139 -166q75 0 117.5 49.5t42.5 134.5v563h387v-1044h-369v135h-6q-123 -168 -326 -168zM598 1137q-90 0 -154.5 60.5t-64.5 148.5t64.5 149t154.5 61t154.5 -61t64.5 -149t-64.5 -148.5t-154.5 -60.5z
M598 1268q34 0 56 23t22 55t-22 55.5t-56 23.5t-56 -23.5t-22 -55.5t22 -55t56 -23z" />
    <glyph glyph-name="Uhungarumlaut" unicode="&#x170;" horiz-adv-x="1462" 
d="M731 -27q-324 0 -488.5 152.5t-164.5 433.5v905h428v-929q0 -104 57.5 -162t173.5 -58q106 0 162.5 62.5t56.5 165.5v921h428v-905q0 -276 -165.5 -431t-487.5 -155zM813 1528l119 317h383l-258 -317h-244zM369 1528l118 317h383l-258 -317h-243z" />
    <glyph glyph-name="uhungarumlaut" unicode="&#x171;" horiz-adv-x="1204" 
d="M434 -33q-182 0 -277.5 109t-95.5 295v673h388v-581q0 -166 139 -166q75 0 117.5 49.5t42.5 134.5v563h387v-1044h-369v135h-6q-123 -168 -326 -168zM680 1159l119 318h383l-258 -318h-244zM236 1159l118 318h383l-258 -318h-243z" />
    <glyph glyph-name="Uogonek" unicode="&#x172;" horiz-adv-x="1462" 
d="M838 -367q-267 0 -267 177q0 96 97 165q-294 15 -442 166.5t-148 417.5v905h428v-929q0 -104 57.5 -162t173.5 -58q106 0 162.5 62.5t56.5 165.5v921h428v-905q0 -354 -268 -500q-142 -77 -167 -96q-51 -39 -52 -84q0 -43 51 -43q21 0 41 4v-188q-55 -19 -151 -19z" />
    <glyph glyph-name="uogonek" unicode="&#x173;" horiz-adv-x="1204" 
d="M991 -367q-270 0 -270 177q0 68 46.5 116t111.5 74h-113v135h-6q-123 -168 -326 -168q-182 0 -277.5 109t-95.5 295v673h388v-581q0 -166 139 -166q75 0 117.5 49.5t42.5 134.5v563h387v-1034q-93 -63 -93 -131q0 -43 52 -43q21 0 41 4v-188q-55 -19 -144 -19z" />
    <glyph glyph-name="Wcircumflex" unicode="&#x174;" horiz-adv-x="1974" 
d="M365 0l-375 1464h428l106 -501q16 -71 34 -173t28 -168l10 -67h4q39 219 76 387l112 522h388l112 -518q16 -76 34.5 -173.5t29.5 -157.5l10 -60h4q39 248 74 412l106 497h439l-386 -1464h-432l-131 621q-12 56 -25 127t-19 114l-7 43h-4q-24 -157 -51 -284l-127 -621
h-438zM575 1528l244 280h342l240 -280h-320l-86 104h-4l-86 -104h-330z" />
    <glyph glyph-name="wcircumflex" unicode="&#x175;" horiz-adv-x="1679" 
d="M319 0l-333 1044h399l102 -378q10 -36 22.5 -88.5t20.5 -86.5l7 -34h4q26 129 49 217l90 370h328l90 -370l49 -221h4q31 131 51 213l101 378h391l-332 -1044h-373l-106 434l-43 195h-4q-23 -115 -43 -195l-107 -434h-367zM428 1159l244 305h342l239 -305h-319l-86 129h-4
l-86 -129h-330z" />
    <glyph glyph-name="Ycircumflex" unicode="&#x176;" horiz-adv-x="1425" 
d="M498 0v514l-502 950h465l155 -325q24 -49 48.5 -108t37.5 -93l13 -35h4q47 125 100 236l156 325h455l-504 -950v-514h-428zM307 1528l244 280h342l240 -280h-320l-86 104h-4l-86 -104h-330z" />
    <glyph glyph-name="ycircumflex" unicode="&#x177;" horiz-adv-x="1148" 
d="M117 -346v299h129q64 0 92.5 18.5t28.5 59.5q0 32 -48 149l-333 864h407l129 -419q15 -47 30.5 -110.5t23.5 -103.5l8 -40h4q30 148 63 254l127 419h385l-356 -1044q-65 -190 -163 -268t-259 -78h-268zM174 1159l244 305h342l239 -305h-319l-86 129h-4l-86 -129h-330z
" />
    <glyph glyph-name="Ydieresis" unicode="&#x178;" horiz-adv-x="1425" 
d="M498 0v514l-502 950h465l155 -325q24 -49 48.5 -108t37.5 -93l13 -35h4q47 125 100 236l156 325h455l-504 -950v-514h-428zM672 1710q0 -78 -53.5 -130t-135.5 -52q-83 0 -135.5 51.5t-52.5 130.5q0 80 52.5 131t135.5 51q82 0 135.5 -51.5t53.5 -130.5zM1143 1710
q0 -79 -53 -130.5t-136 -51.5q-81 0 -134.5 52t-53.5 130q0 79 53 130.5t135 51.5q83 0 136 -51t53 -131z" />
    <glyph glyph-name="Zacute" unicode="&#x179;" horiz-adv-x="1370" 
d="M49 0v352l547 629q22 25 51 55t47 47l19 17v6q-74 -8 -140 -8h-471v366h1180v-321l-543 -625q-30 -35 -67.5 -73t-59.5 -59l-22 -21v-7q82 9 172 9h559v-367h-1272zM557 1528l88 276h440l-237 -276h-291z" />
    <glyph glyph-name="zacute" unicode="&#x17a;" horiz-adv-x="1075" 
d="M43 0v281l367 372l102 97v6q-81 -4 -147 -4h-285v290h917v-266l-346 -354l-133 -127v-6q76 4 170 4h344v-293h-989zM406 1159l118 318h445l-273 -318h-290z" />
    <glyph glyph-name="Zdotaccent" unicode="&#x17b;" horiz-adv-x="1370" 
d="M49 0v352l547 629q22 25 51 55t47 47l19 17v6q-74 -8 -140 -8h-471v366h1180v-321l-543 -625q-30 -35 -67.5 -73t-59.5 -59l-22 -21v-7q82 9 172 9h559v-367h-1272zM926 1722q0 -85 -59 -139.5t-152 -54.5q-92 0 -150.5 54.5t-58.5 139.5t58.5 140t150.5 55q93 0 152 -55
t59 -140z" />
    <glyph glyph-name="zdotaccent" unicode="&#x17c;" horiz-adv-x="1075" 
d="M43 0v281l367 372l102 97v6q-81 -4 -147 -4h-285v290h917v-266l-346 -354l-133 -127v-6q76 4 170 4h344v-293h-989zM774 1288q0 -85 -59 -139.5t-152 -54.5q-92 0 -150.5 54.5t-58.5 139.5t58.5 140t150.5 55q93 0 152 -55t59 -140z" />
    <glyph glyph-name="Zcaron" unicode="&#x17d;" horiz-adv-x="1370" 
d="M49 0v352l547 629q22 25 51 55t47 47l19 17v6q-74 -8 -140 -8h-471v366h1180v-321l-543 -625q-30 -35 -67.5 -73t-59.5 -59l-22 -21v-7q82 9 172 9h559v-367h-1272zM543 1528l-240 280h320l86 -104h4l86 104h329l-243 -280h-342z" />
    <glyph glyph-name="zcaron" unicode="&#x17e;" horiz-adv-x="1075" 
d="M43 0v281l367 372l102 97v6q-81 -4 -147 -4h-285v290h917v-266l-346 -354l-133 -127v-6q76 4 170 4h344v-293h-989zM391 1159l-239 305h319l86 -129h4l86 129h330l-244 -305h-342z" />
    <glyph glyph-name="uni0192" unicode="&#x192;" horiz-adv-x="923" 
d="M-39 -309v241q37 -2 65.5 -0.5t48 11t32 32.5t18.5 64l86 588h-154v233h189l35 238q24 173 129 254q132 104 469 63v-264q-61 3 -103.5 2t-68 -24t-33.5 -76l-29 -193h195v-233h-230l-92 -633q-13 -92 -39 -152t-80 -102q-39 -31 -90 -46.5t-116.5 -16.5t-112 2
t-119.5 12z" />
    <glyph glyph-name="AEacute" unicode="&#x1fc;" horiz-adv-x="2084" 
d="M555 489h338v627h-143zM-12 0l483 1464h1538v-348h-688v-198h571v-322h-571v-229h709v-367h-1137v203h-428l-62 -203h-415zM1051 1528l88 276h440l-238 -276h-290z" />
    <glyph glyph-name="aeacute" unicode="&#x1fd;" horiz-adv-x="1837" 
d="M1249 819q-78 0 -124.5 -48.5t-61.5 -137.5h360q-12 87 -58.5 136.5t-115.5 49.5zM518 203q80 0 135.5 44t55.5 132v92q-56 -27 -162 -49q-94 -20 -127 -46t-33 -73q0 -49 37.5 -74.5t93.5 -25.5zM436 -33q-190 0 -301.5 84.5t-111.5 235.5q0 68 20.5 120.5t54 85.5
t85.5 57t104 36.5t121 21.5q178 23 234 45.5t56 71.5q0 100 -118 100q-132 0 -148 -125h-366q6 164 136.5 270.5t370.5 106.5q115 0 198 -19.5t144 -82.5q132 104 326 104q231 0 385 -141q93 -86 139 -218.5t43 -291.5h-745q37 -195 205 -195q101 0 145 78h375
q-17 -70 -69.5 -136t-129.5 -116q-138 -88 -334 -88q-249 0 -393 154q-74 -80 -173.5 -119t-252.5 -39zM780 1159l119 318h444l-272 -318h-291z" />
    <glyph glyph-name="Oslashacute" unicode="&#x1fe;" horiz-adv-x="1548" 
d="M489 537l478 536q-79 76 -193 76q-149 0 -229 -117.5t-80 -304.5q0 -105 24 -190zM774 307q149 0 229 116.5t80 303.5q0 109 -26 188l-475 -534q77 -74 192 -74zM154 -98l-127 114l176 197q-172 206 -172 514q0 219 89.5 392t259 272.5t392.5 99.5q260 0 447 -135
l176 196l127 -114l-176 -199q172 -206 172 -512q0 -163 -53 -303.5t-149 -242t-236 -159t-308 -57.5q-256 0 -444 133zM616 1528l89 276h440l-238 -276h-291z" />
    <glyph glyph-name="oslashacute" unicode="&#x1ff;" horiz-adv-x="1196" 
d="M424 432l291 324q-47 59 -119 59q-87 0 -131.5 -79.5t-44.5 -215.5q0 -61 4 -88zM596 225q87 0 133.5 79.5t46.5 215.5q0 46 -6 90l-293 -327q45 -58 119 -58zM162 -72l-101 97l105 116q-139 148 -139 379q0 241 158 398t415 157q179 0 322 -86l112 125l101 -96
l-105 -117q139 -151 139 -381q0 -242 -156 -397.5t-413 -155.5q-187 0 -328 86zM440 1159l119 318h445l-273 -318h-291z" />
    <glyph glyph-name="uni0218" unicode="&#x218;" horiz-adv-x="1347" 
d="M688 -35q-145 0 -266 31.5t-212.5 92.5t-143.5 157.5t-54 220.5h439q21 -172 245 -172q46 0 86.5 11.5t70.5 40t30 69.5q0 21 -6.5 37.5t-25 30.5t-35 23.5t-54 21t-62.5 18t-80 20.5q-11 3 -16 4q-65 16 -108.5 28.5t-105.5 34.5t-104 44.5t-88 58t-73.5 75.5
t-45.5 95.5t-18 120.5q0 98 31.5 177t86 131.5t132 88t165.5 51t190 15.5q93 0 177 -15.5t159 -50t129.5 -86t87 -127t34.5 -168.5h-424q-20 132 -186 132q-70 0 -115 -29t-45 -74q0 -14 4 -26t14.5 -22t21.5 -17.5t31.5 -15.5t38.5 -13.5t48 -13t54 -13t63 -14.5t69 -16
q69 -17 122.5 -34t113.5 -43.5t103 -61.5t79.5 -81t55 -109t18.5 -138q0 -116 -50 -210.5t-136 -155t-200 -92.5t-245 -32zM537 -522v116q48 9 79 32.5t37 58.5q-61 0 -102 32t-41 88q0 52 42.5 87.5t111.5 35.5q74 0 118.5 -48.5t44.5 -131.5q0 -114 -80.5 -187.5
t-209.5 -82.5z" />
    <glyph glyph-name="uni0219" unicode="&#x219;" horiz-adv-x="1071" 
d="M535 -35q-237 0 -381.5 98.5t-145.5 274.5h371q5 -65 45 -101t113 -36q60 0 96.5 22.5t36.5 67.5q0 19 -8 34.5t-24.5 26.5t-34.5 18.5t-47.5 14t-53 10.5t-60.5 9q-19 3 -28 4q-53 8 -90 16.5t-85.5 24t-81 39t-62.5 57.5t-45 84.5t-15 113.5q0 104 66 181t172.5 115
t236.5 38q235 0 361 -83.5t137 -239.5h-365q-12 94 -131 94q-47 0 -79 -19.5t-32 -56.5q0 -14 7 -25.5t23.5 -20t31.5 -14.5t45.5 -11.5t49.5 -8.5t58 -8q51 -7 84.5 -13t83.5 -19.5t83 -29t70.5 -43t59.5 -61.5t37 -84t15 -110q0 -121 -70 -203.5t-183 -119t-261 -36.5z
M401 -522v116q48 9 79.5 33t37.5 58q-61 0 -102 32t-41 88q0 52 42 87.5t111 35.5q74 0 119 -48.5t45 -131.5q0 -114 -81 -187.5t-210 -82.5z" />
    <glyph glyph-name="uni021A" unicode="&#x21a;" horiz-adv-x="1323" 
d="M444 0v1100h-413v364h1261v-364h-420v-1100h-428zM535 -522v116q48 9 79 32.5t37 58.5q-61 0 -102 32t-41 88q0 52 42.5 87.5t111.5 35.5q74 0 118.5 -48.5t44.5 -131.5q0 -114 -80.5 -187.5t-209.5 -82.5z" />
    <glyph glyph-name="uni021B" unicode="&#x21b;" horiz-adv-x="757" 
d="M532 -20q-199 0 -290.5 70t-91.5 251v510h-136v233h136v338h378v-338h199v-233h-199v-424q0 -59 32 -80.5t99 -19.5q41 0 64 2v-285q-101 -24 -191 -24zM276 -522v116q48 9 79.5 33t37.5 58q-61 0 -102 32t-41 88q0 52 42 87.5t111 35.5q74 0 119 -48.5t45 -131.5
q0 -114 -81 -187.5t-210 -82.5z" />
    <glyph glyph-name="uni0237" unicode="&#x237;" horiz-adv-x="526" 
d="M111 -356q-122 0 -220 20v264q45 -2 79 -1t56 10t33 33.5t11 70.5v1003h387v-1017q0 -202 -90 -295q-84 -88 -256 -88z" />
    <glyph glyph-name="circumflex" unicode="&#x2c6;" 
d="M98 1159l244 305h342l240 -305h-320l-86 129h-4l-86 -129h-330z" />
    <glyph glyph-name="caron" unicode="&#x2c7;" 
d="M340 1159l-240 305h320l86 -129h4l86 129h330l-244 -305h-342z" />
    <glyph glyph-name="uni02C9" unicode="&#x2c9;" 
d="M217 1190v217h590v-217h-590z" />
    <glyph glyph-name="breve" unicode="&#x2d8;" 
d="M555 1143q-156 0 -260 86.5t-105 236.5h218q5 -42 43.5 -68t101.5 -26q59 0 98.5 28.5t42.5 65.5h217q-3 -147 -102.5 -235t-253.5 -88z" />
    <glyph glyph-name="dotaccent" unicode="&#x2d9;" horiz-adv-x="1021" 
d="M721 1288q0 -85 -59 -139.5t-152 -54.5q-92 0 -150.5 54.5t-58.5 139.5t58.5 140t150.5 55q93 0 152 -55t59 -140z" />
    <glyph glyph-name="ring" unicode="&#x2da;" 
d="M512 1137q-90 0 -154.5 60.5t-64.5 148.5t64.5 149t154.5 61t154.5 -61t64.5 -149t-64.5 -148.5t-154.5 -60.5zM512 1268q34 0 56 23t22 55t-22 55.5t-56 23.5t-56 -23.5t-22 -55.5t22 -55t56 -23z" />
    <glyph glyph-name="ogonek" unicode="&#x2db;" 
d="M492 -367q-271 0 -271 177q0 68 46.5 116t111.5 74h237q-73 -61 -73 -121q0 -43 51 -43q21 0 41 4v-188q-55 -19 -143 -19z" />
    <glyph glyph-name="tilde" unicode="&#x2dc;" 
d="M137 1155q0 151 67 231t171 80q65 0 145 -39q33 -17 44 -22.5t27 -10.5t32 -5q33 0 47.5 19.5t17.5 57.5h197q0 -139 -56.5 -220t-166.5 -81q-67 0 -142 33l-31 15.5t-26.5 12.5t-19 7.5t-20.5 6t-20 1.5q-60 0 -69 -86h-197z" />
    <glyph glyph-name="hungarumlaut" unicode="&#x2dd;" 
d="M602 1159l119 318h383l-258 -318h-244zM158 1159l118 318h383l-258 -318h-243z" />
    <glyph glyph-name="pi" unicode="&#x3c0;" horiz-adv-x="1339" 
d="M1102 -16q-162 0 -246 70.5t-84 232.5v524h-231v-811h-379v811h-133v233h1257v-233h-135v-473q0 -42 16 -58t56 -16q27 0 43 2v-262q-75 -20 -164 -20z" />
    <glyph glyph-name="Wgrave" unicode="&#x1e80;" horiz-adv-x="1974" 
d="M365 0l-375 1464h428l106 -501q16 -71 34 -173t28 -168l10 -67h4q39 219 76 387l112 522h388l112 -518q16 -76 34.5 -173.5t29.5 -157.5l10 -60h4q39 248 74 412l106 497h439l-386 -1464h-432l-131 621q-12 56 -25 127t-19 114l-7 43h-4q-24 -157 -51 -284l-127 -621
h-438zM872 1528l-237 276h440l88 -276h-291z" />
    <glyph glyph-name="wgrave" unicode="&#x1e81;" horiz-adv-x="1679" 
d="M319 0l-333 1044h399l102 -378q10 -36 22.5 -88.5t20.5 -86.5l7 -34h4q26 129 49 217l90 370h328l90 -370l49 -221h4q31 131 51 213l101 378h391l-332 -1044h-373l-106 434l-43 195h-4q-23 -115 -43 -195l-107 -434h-367zM725 1159l-272 318h444l119 -318h-291z" />
    <glyph glyph-name="Wacute" unicode="&#x1e82;" horiz-adv-x="1974" 
d="M365 0l-375 1464h428l106 -501q16 -71 34 -173t28 -168l10 -67h4q39 219 76 387l112 522h388l112 -518q16 -76 34.5 -173.5t29.5 -157.5l10 -60h4q39 248 74 412l106 497h439l-386 -1464h-432l-131 621q-12 56 -25 127t-19 114l-7 43h-4q-24 -157 -51 -284l-127 -621
h-438zM829 1528l89 276h440l-238 -276h-291z" />
    <glyph glyph-name="wacute" unicode="&#x1e83;" horiz-adv-x="1679" 
d="M319 0l-333 1044h399l102 -378q10 -36 22.5 -88.5t20.5 -86.5l7 -34h4q26 129 49 217l90 370h328l90 -370l49 -221h4q31 131 51 213l101 378h391l-332 -1044h-373l-106 434l-43 195h-4q-23 -115 -43 -195l-107 -434h-367zM682 1159l119 318h444l-272 -318h-291z" />
    <glyph glyph-name="Wdieresis" unicode="&#x1e84;" horiz-adv-x="1974" 
d="M365 0l-375 1464h428l106 -501q16 -71 34 -173t28 -168l10 -67h4q39 219 76 387l112 522h388l112 -518q16 -76 34.5 -173.5t29.5 -157.5l10 -60h4q39 248 74 412l106 497h439l-386 -1464h-432l-131 621q-12 56 -25 127t-19 114l-7 43h-4q-24 -157 -51 -284l-127 -621
h-438zM940 1710q0 -78 -53.5 -130t-134.5 -52q-83 0 -136 51.5t-53 130.5q0 80 53 131t136 51q82 0 135 -51.5t53 -130.5zM1411 1710q0 -79 -52.5 -130.5t-135.5 -51.5q-82 0 -135.5 52t-53.5 130q0 79 53.5 130.5t135.5 51.5q83 0 135.5 -51t52.5 -131z" />
    <glyph glyph-name="wdieresis" unicode="&#x1e85;" horiz-adv-x="1679" 
d="M319 0l-333 1044h399l102 -378q10 -36 22.5 -88.5t20.5 -86.5l7 -34h4q26 129 49 217l90 370h328l90 -370l49 -221h4q31 131 51 213l101 378h391l-332 -1044h-373l-106 434l-43 195h-4q-23 -115 -43 -195l-107 -434h-367zM1264 1296q0 -79 -53 -130.5t-136 -51.5
q-81 0 -134.5 52t-53.5 130q0 80 53 131.5t135 51.5q83 0 136 -51.5t53 -131.5zM793 1296q0 -78 -53.5 -130t-135.5 -52q-83 0 -135.5 51.5t-52.5 130.5q0 80 52.5 131.5t135.5 51.5q82 0 135.5 -52t53.5 -131z" />
    <glyph glyph-name="Ygrave" unicode="&#x1ef2;" horiz-adv-x="1425" 
d="M498 0v514l-502 950h465l155 -325q24 -49 48.5 -108t37.5 -93l13 -35h4q47 125 100 236l156 325h455l-504 -950v-514h-428zM604 1528l-237 276h440l88 -276h-291z" />
    <glyph glyph-name="ygrave" unicode="&#x1ef3;" horiz-adv-x="1148" 
d="M117 -346v299h129q64 0 92.5 18.5t28.5 59.5q0 32 -48 149l-333 864h407l129 -419q15 -47 30.5 -110.5t23.5 -103.5l8 -40h4q30 148 63 254l127 419h385l-356 -1044q-65 -190 -163 -268t-259 -78h-268zM471 1159l-272 318h444l119 -318h-291z" />
    <glyph glyph-name="uni2009" unicode="&#x2009;" horiz-adv-x="194" 
 />
    <glyph glyph-name="endash" unicode="&#x2013;" horiz-adv-x="1202" 
d="M86 354v334h1030v-334h-1030z" />
    <glyph glyph-name="emdash" unicode="&#x2014;" horiz-adv-x="2000" 
d="M86 354v334h1829v-334h-1829z" />
    <glyph glyph-name="quoteleft" unicode="&#x2018;" horiz-adv-x="481" 
d="M246 856q-88 0 -138.5 68t-50.5 186q0 164 91.5 254t240.5 106v-149q-112 -26 -131 -125q74 -3 120 -48t46 -118q0 -80 -49.5 -127t-128.5 -47z" />
    <glyph glyph-name="quoteright" unicode="&#x2019;" horiz-adv-x="481" 
d="M92 860v150q112 26 131 125q-74 3 -120 47.5t-46 117.5q0 80 50 127.5t129 47.5q88 0 138 -67.5t50 -186.5q0 -164 -91.5 -254.5t-240.5 -106.5z" />
    <glyph glyph-name="quotesinglbase" unicode="&#x201a;" horiz-adv-x="481" 
d="M92 -260v149q112 26 131 125q-74 3 -120 48t-46 118q0 80 50 127t129 47q88 0 138 -67.5t50 -186.5q0 -164 -91.5 -254t-240.5 -106z" />
    <glyph glyph-name="quotedblleft" unicode="&#x201c;" horiz-adv-x="935" 
d="M246 860q-88 0 -138.5 68t-50.5 186q0 164 91.5 254.5t240.5 106.5v-150q-112 -26 -131 -125q74 -3 120 -48t46 -118q0 -80 -49.5 -127t-128.5 -47zM700 860q-88 0 -138 67.5t-50 186.5q0 164 91.5 254.5t240.5 106.5v-150q-112 -26 -131 -125q74 -3 120 -48t46 -118
q0 -80 -50 -127t-129 -47z" />
    <glyph glyph-name="quotedblright" unicode="&#x201d;" horiz-adv-x="935" 
d="M547 860v150q112 26 131 125q-74 3 -120 47.5t-46 117.5q0 81 49.5 128t128.5 47q88 0 138.5 -68t50.5 -186q0 -164 -91.5 -254.5t-240.5 -106.5zM92 860v150q112 26 131 125q-74 3 -120 47.5t-46 117.5q0 80 50 127.5t129 47.5q88 0 138 -67.5t50 -186.5
q0 -164 -91.5 -254.5t-240.5 -106.5z" />
    <glyph glyph-name="quotedblbase" unicode="&#x201e;" horiz-adv-x="935" 
d="M547 -260v149q112 26 131 125q-74 3 -120 48t-46 118q0 80 49.5 127t128.5 47q88 0 138.5 -68t50.5 -186q0 -164 -91.5 -254t-240.5 -106zM92 -260v149q112 26 131 125q-74 3 -120 48t-46 118q0 80 50 127t129 47q88 0 138 -67.5t50 -186.5q0 -164 -91.5 -254
t-240.5 -106z" />
    <glyph glyph-name="dagger" unicode="&#x2020;" horiz-adv-x="1255" 
d="M414 -346v1061h-344v329h344v420h428v-420h344v-329h-344v-1061h-428z" />
    <glyph glyph-name="daggerdbl" unicode="&#x2021;" horiz-adv-x="1257" 
d="M414 -346v420h-344v329h344v312h-344v329h344v420h428v-420h344v-329h-344v-312h344v-329h-344v-420h-428z" />
    <glyph glyph-name="bullet" unicode="&#x2022;" horiz-adv-x="811" 
d="M406 324q-135 0 -231.5 96t-96.5 231t96.5 231.5t231.5 96.5t231 -96.5t96 -231.5t-96 -231t-231 -96z" />
    <glyph glyph-name="ellipsis" unicode="&#x2026;" horiz-adv-x="1617" 
d="M809 403q93 0 153 -58t60 -148q0 -91 -60.5 -150t-152.5 -59t-151.5 59t-59.5 150t59.5 148.5t151.5 57.5zM256 403q93 0 153 -58t60 -148q0 -91 -60.5 -150t-152.5 -59t-151.5 59t-59.5 150t59.5 148.5t151.5 57.5zM1360 403q93 0 153 -58t60 -148q0 -91 -60.5 -150
t-152.5 -59t-151.5 59t-59.5 150t59.5 148.5t151.5 57.5z" />
    <glyph glyph-name="perthousand" unicode="&#x2030;" horiz-adv-x="2689" 
d="M430 608q-168 0 -278.5 113.5t-110.5 298.5q0 184 109.5 298t279.5 114q175 0 284 -113.5t109 -298.5t-111 -298.5t-282 -113.5zM418 0l794 1405h209l-794 -1405h-209zM432 805q105 0 105 215q0 100 -25.5 159.5t-79.5 59.5q-104 0 -104 -219q0 -215 104 -215zM2255 -35
q-168 0 -278.5 113.5t-110.5 298.5q0 184 109.5 297.5t279.5 113.5q175 0 284 -113t109 -298t-111 -298.5t-282 -113.5zM1407 -35q-168 0 -278.5 113.5t-110.5 298.5q0 184 109.5 297.5t279.5 113.5q175 0 284 -113t109 -298t-111 -298.5t-282 -113.5zM2257 162
q104 0 104 215q0 219 -104 219q-105 0 -105 -219q0 -215 105 -215zM1409 162q104 0 104 215q0 219 -104 219t-104 -219q0 -215 104 -215z" />
    <glyph glyph-name="uni2032" unicode="&#x2032;" horiz-adv-x="499" 
d="M41 877l82 587h336l-82 -587h-336z" />
    <glyph glyph-name="uni2033" unicode="&#x2033;" horiz-adv-x="956" 
d="M498 877l82 587h335l-81 -587h-336zM41 877l82 587h336l-82 -587h-336z" />
    <glyph glyph-name="guilsinglleft" unicode="&#x2039;" horiz-adv-x="516" 
d="M430 25l-360 290v373l360 289v-344l-168 -131v-4l168 -131v-342z" />
    <glyph glyph-name="guilsinglright" unicode="&#x203a;" horiz-adv-x="516" 
d="M86 25v344l168 131v4l-168 131v342l360 -291v-373z" />
    <glyph glyph-name="fraction" unicode="&#x2044;" horiz-adv-x="663" 
d="M-391 0l1212 1464h232l-1211 -1464h-233z" />
    <glyph glyph-name="Euro" unicode="&#x20ac;" horiz-adv-x="1376" 
d="M768 -33q-243 0 -410 144t-221 385h-112v143h94q-2 18 -2 59v45h-92v144h110q50 246 219 395.5t412 149.5q136 0 244.5 -40t179.5 -112t111.5 -168t48.5 -213h-402q-11 101 -58 160t-130 59q-167 0 -211 -231h268v-144h-282v-104h282v-143h-266q48 -213 215 -213
q92 0 140.5 63.5t58.5 161.5h395q-15 -249 -168 -395t-424 -146z" />
    <glyph glyph-name="uni2113" unicode="&#x2113;" horiz-adv-x="858" 
d="M471 -16q-91 0 -155 15.5t-115.5 54t-77 109.5t-25.5 177q-75 -21 -86 -23v209l86 25v561q0 188 99.5 278.5t283.5 90.5q338 0 338 -369q0 -226 -85 -378.5t-271 -254.5v-53q0 -84 26 -111.5t111 -27.5q34 0 96 6v-285q-101 -24 -225 -24zM463 1143v-389q8 8 20 24
q41 52 58.5 135t17.5 226q0 61 -11.5 85.5t-37.5 24.5q-47 0 -47 -106z" />
    <glyph glyph-name="trademark" unicode="&#x2122;" horiz-adv-x="1470" 
d="M215 907v391h-152v166h506v-166h-151v-391h-203zM643 907v557h275l75 -274h4l76 274h279v-557h-189v307h-4l-96 -307h-139l-95 307h-4v-307h-182z" />
    <glyph glyph-name="Omega" unicode="&#x2126;" horiz-adv-x="1523" 
d="M55 0v317h181v7q-199 144 -199 467q0 200 91 359.5t256.5 250t377.5 90.5t377.5 -90.5t256.5 -250t91 -359.5q0 -323 -199 -467v-7h180v-317h-647v305q232 38 232 438q0 197 -73.5 301.5t-217.5 104.5t-217.5 -104.5t-73.5 -301.5t55.5 -307.5t175.5 -130.5v-305h-647z
" />
    <glyph glyph-name="estimated" unicode="&#x212e;" horiz-adv-x="1271" 
d="M670 -23q-196 0 -339 84t-215.5 231.5t-72.5 340.5q0 189 78 337.5t218.5 231t319.5 82.5q228 0 371 -121q109 -91 154 -225t43 -322h-836v-473q109 -67 279 -67q180 0 284 77.5t158 227.5h107q-42 -183 -183 -293.5t-366 -110.5zM391 707h494v434q-100 51 -226 51
q-157 0 -268 -70v-415z" />
    <glyph glyph-name="onethird" unicode="&#x2153;" horiz-adv-x="1792" 
d="M229 651v447h-186v188q102 4 165.5 52t82.5 135h221v-822h-283zM111 0l1212 1464h231l-1210 -1464h-233zM1395 -20q-188 0 -288.5 81t-102.5 213h249q10 -106 125 -106q50 0 76.5 22.5t26.5 61.5q0 82 -127 82h-47v164h39q120 0 120 75q0 33 -24 52.5t-66 19.5
q-93 0 -104 -88h-244q5 118 101 195t260 77q151 0 243 -62.5t92 -174.5q0 -97 -112 -156v-2q133 -56 133 -194q0 -130 -96.5 -195t-253.5 -65z" />
    <glyph glyph-name="twothirds" unicode="&#x2154;" horiz-adv-x="1974" 
d="M63 651q0 165 105 267q38 37 84 68t111 67.5t90 52.5q38 25 55.5 47.5t17.5 52.5q0 74 -88 74q-50 0 -80 -35.5t-30 -97.5h-252q0 161 102 247.5t266 86.5q161 0 252.5 -74.5t91.5 -183.5q0 -125 -75 -191q-49 -45 -147.5 -98t-123.5 -76v-2h344v-205h-723zM332 0
l1212 1464h232l-1211 -1464h-233zM1577 -20q-188 0 -288.5 81t-102.5 213h250q10 -106 125 -106q50 0 76 22.5t26 61.5q0 82 -127 82h-47v164h39q121 0 121 75q0 33 -24 52.5t-66 19.5q-94 0 -105 -88h-244q5 118 101 195t260 77q151 0 243.5 -62.5t92.5 -174.5
q0 -97 -113 -156v-2q133 -56 133 -194q0 -130 -96.5 -195t-253.5 -65z" />
    <glyph glyph-name="oneeighth" unicode="&#x215b;" horiz-adv-x="1796" 
d="M229 651v447h-186v188q102 4 165.5 52t82.5 135h221v-822h-283zM117 0l1212 1464h232l-1211 -1464h-233zM1374 -20q-180 0 -277.5 67.5t-97.5 179.5q0 63 39.5 114.5t110.5 80.5q-2 2 0 4q-54 26 -84.5 70.5t-30.5 97.5q0 102 92.5 168.5t247.5 66.5q159 0 250.5 -62
t91.5 -167q0 -50 -30 -94.5t-80 -71.5v-4q70 -26 108.5 -79t38.5 -120q0 -116 -98 -183.5t-281 -67.5zM1374 500q45 0 70.5 24t25.5 62t-25.5 62t-70.5 24q-44 0 -69 -24t-25 -62t25 -62t69 -24zM1376 150q52 0 83.5 27.5t31.5 70.5t-31.5 71.5t-83.5 28.5
q-49 0 -80.5 -28.5t-31.5 -71.5t31.5 -70.5t80.5 -27.5z" />
    <glyph glyph-name="threeeighths" unicode="&#x215c;" horiz-adv-x="1910" 
d="M444 631q-187 0 -288 81.5t-103 213.5h250q11 -107 125 -107q50 0 76 22.5t26 61.5q0 82 -127 82h-47v164h39q121 0 121 76q0 33 -24 52t-66 19q-93 0 -104 -88h-244q5 118 101 195.5t259 77.5q151 0 243.5 -63t92.5 -175q0 -97 -112 -156v-2q133 -56 133 -194
q0 -130 -97 -195t-254 -65zM260 0l1213 1464h231l-1210 -1464h-234zM1489 -20q-180 0 -277.5 67.5t-97.5 179.5q0 63 39.5 114.5t110.5 80.5q-2 2 0 4q-54 26 -84.5 70.5t-30.5 97.5q0 102 92.5 168.5t247.5 66.5q159 0 250.5 -62t91.5 -167q0 -50 -30.5 -94.5t-80.5 -71.5
v-4q70 -26 109 -79t39 -120q0 -116 -98 -183.5t-281 -67.5zM1489 500q45 0 70.5 24t25.5 62t-25.5 62t-70.5 24q-44 0 -69 -24t-25 -62t25 -62t69 -24zM1491 150q52 0 83.5 27.5t31.5 70.5t-31.5 71.5t-83.5 28.5q-49 0 -81 -28.5t-32 -71.5t32 -70.5t81 -27.5z" />
    <glyph glyph-name="fiveeighths" unicode="&#x215d;" horiz-adv-x="1878" 
d="M412 631q-150 0 -251.5 71t-113.5 193h240q7 -36 40.5 -56t80.5 -20q48 0 77 31.5t29 83.5q0 53 -28 80.5t-78 27.5q-34 0 -63 -12.5t-42 -34.5h-225l88 469h549v-192h-369l-27 -121h5q59 51 165 51q127 0 205 -70t78 -192q0 -141 -97.5 -225t-262.5 -84zM209 0
l1212 1464h232l-1211 -1464h-233zM1456 -20q-180 0 -277.5 67.5t-97.5 179.5q0 63 39.5 114.5t110.5 80.5q-2 2 0 4q-54 26 -84.5 70.5t-30.5 97.5q0 102 92.5 168.5t247.5 66.5q159 0 250.5 -62t91.5 -167q0 -50 -30 -94.5t-80 -71.5v-4q70 -26 108.5 -79t38.5 -120
q0 -116 -98 -183.5t-281 -67.5zM1456 500q45 0 70.5 24t25.5 62t-25.5 62t-70.5 24q-44 0 -69 -24t-25 -62t25 -62t69 -24zM1458 150q52 0 83.5 27.5t31.5 70.5t-31.5 71.5t-83.5 28.5q-49 0 -80.5 -28.5t-31.5 -71.5t31.5 -70.5t80.5 -27.5z" />
    <glyph glyph-name="seveneighths" unicode="&#x215e;" horiz-adv-x="1767" 
d="M174 651q10 347 270 596v2h-395v215h662v-190q-110 -106 -175 -266.5t-69 -356.5h-293zM72 0l1212 1464h232l-1211 -1464h-233zM1346 -20q-180 0 -277.5 67.5t-97.5 179.5q0 63 39.5 114.5t109.5 80.5q-2 2 0 4q-54 26 -84 70.5t-30 97.5q0 102 92.5 168.5t247.5 66.5
q159 0 250.5 -62t91.5 -167q0 -50 -30.5 -94.5t-80.5 -71.5v-4q70 -26 108.5 -79t38.5 -120q0 -116 -97.5 -183.5t-280.5 -67.5zM1346 500q45 0 70.5 24t25.5 62t-25.5 62t-70.5 24t-70 -24t-25 -62t25 -62t70 -24zM1348 150q52 0 83 27.5t31 70.5q0 44 -31 72t-83 28
q-49 0 -81 -28.5t-32 -71.5t32 -70.5t81 -27.5z" />
    <glyph glyph-name="partialdiff" unicode="&#x2202;" horiz-adv-x="1204" 
d="M553 -33q-126 0 -227.5 36t-167 99.5t-100.5 149t-35 186.5q0 239 146 391t382 152q144 0 215 -63q-66 195 -440 237v324q433 -20 639 -220t206 -597q0 -335 -155.5 -515t-462.5 -180zM557 225q67 0 114 46.5t67 113.5t20 145q0 96 -37 147.5t-107 51.5q-94 0 -148 -79.5
t-54 -207.5q0 -103 37.5 -160t107.5 -57z" />
    <glyph glyph-name="Delta" unicode="&#x2206;" horiz-adv-x="1425" 
d="M45 0v250l449 1214h436l450 -1214v-250h-1335zM469 313h463l-172 531l-55 188h-5q-30 -116 -55 -188z" />
    <glyph glyph-name="product" unicode="&#x220f;" horiz-adv-x="1509" 
d="M98 -205v1669h1313v-1669h-416v1325h-481v-1325h-416z" />
    <glyph glyph-name="summation" unicode="&#x2211;" horiz-adv-x="1257" 
d="M59 -205v338l455 512v4l-455 498v317h1141v-323h-657v-4l379 -402v-164l-394 -430v-4h693v-342h-1162z" />
    <glyph glyph-name="minus" unicode="&#x2212;" horiz-adv-x="1153" 
d="M92 510v334h969v-334h-969z" />
    <glyph glyph-name="uni2215" unicode="&#x2215;" horiz-adv-x="663" 
d="M-391 0l1212 1405h232l-1211 -1405h-233z" />
    <glyph glyph-name="uni2219" unicode="&#x2219;" horiz-adv-x="514" 
d="M256 862q93 0 153 -58.5t60 -148.5q0 -91 -60.5 -150t-152.5 -59t-151.5 59t-59.5 150t59.5 149t151.5 58z" />
    <glyph glyph-name="radical" unicode="&#x221a;" horiz-adv-x="1396" 
d="M420 -205l-264 584h-133v323h407l90 -223q21 -53 40.5 -109.5t28.5 -87.5l9 -30h4q25 110 64 229l317 983h397l-561 -1669h-399z" />
    <glyph glyph-name="infinity" unicode="&#x221e;" horiz-adv-x="1484" 
d="M381 231q-160 0 -253 111.5t-93 282.5q0 169 93.5 280t252.5 111q83 0 152 -28t116 -70t99 -109q53 68 97 109t110.5 69.5t146.5 28.5q154 0 251 -105.5t97 -285.5q0 -181 -97 -287.5t-251 -106.5q-80 0 -146.5 28.5t-110.5 69.5t-97 109q-52 -67 -99 -109t-116 -70
t-152 -28zM1071 510q44 0 68 32.5t24 82.5q0 48 -24 79t-68 31q-67 0 -133 -112q31 -53 62.5 -83t70.5 -30zM416 510q70 0 137 113q-66 112 -137 112q-44 0 -67 -31t-23 -79q0 -50 23 -82.5t67 -32.5z" />
    <glyph glyph-name="integral" unicode="&#x222b;" horiz-adv-x="804" 
d="M219 -358q-119 0 -209 20v285q59 -4 80 -2q62 0 90.5 21.5t28.5 80.5v1086q0 199 88 290q91 95 293 95q110 0 205 -21v-285q-64 4 -88 2q-59 -2 -85 -23.5t-26 -78.5v-1085q0 -200 -88 -291q-90 -94 -289 -94z" />
    <glyph glyph-name="approxequal" unicode="&#x2248;" horiz-adv-x="1083" 
d="M31 672q0 399 295 399q82 0 227 -35t182 -35q39 0 55 16t19 54h244q0 -196 -67 -290.5t-214 -94.5q-82 0 -230 33t-190 33q-68 0 -80 -80h-241zM31 215q0 399 295 399q82 0 227 -34.5t182 -34.5q39 0 55 15.5t19 53.5h244q0 -196 -67 -290.5t-214 -94.5q-82 0 -230 33
t-190 33q-68 0 -80 -80h-241z" />
    <glyph glyph-name="notequal" unicode="&#x2260;" horiz-adv-x="1153" 
d="M1061 236h-543l-74 -158h-233l74 158h-193v309h338l82 172h-420v309h563l80 168h234l-80 -168h172v-309h-316l-81 -172h397v-309z" />
    <glyph glyph-name="lessequal" unicode="&#x2264;" horiz-adv-x="1030" 
d="M930 279l-846 260v370l846 260v-311l-303 -84l-195 -51v-4q111 -23 195 -43l303 -76v-321zM84 0v262h846v-262h-846z" />
    <glyph glyph-name="greaterequal" unicode="&#x2265;" horiz-adv-x="1030" 
d="M100 279v321l303 76l195 43v4q-113 28 -195 51l-303 84v311l846 -260v-370zM100 0v262h846v-262h-846z" />
    <glyph glyph-name="uni24C5" unicode="&#x24c5;" horiz-adv-x="1675" 
d="M838 -35q-156 0 -295.5 58t-241 158.5t-160.5 242.5t-59 303q0 215 100.5 390.5t273.5 274.5t382 99q156 0 295.5 -58.5t240.5 -159t160 -243t59 -303.5q0 -215 -100.5 -390t-273 -273.5t-381.5 -98.5zM838 76q132 0 247.5 49.5t198 135.5t130.5 207t48 259t-48 259
t-130.5 207t-198 135.5t-247.5 49.5q-176 0 -319 -84.5t-224.5 -233.5t-81.5 -333t81.5 -333t224.5 -233.5t319 -84.5zM510 299v848h403q151 0 242 -78q96 -83 96 -225q0 -124 -83 -207.5t-210 -83.5h-188v-254h-260zM770 752h123q45 0 71.5 25t26.5 67q0 43 -26.5 67.5
t-73.5 24.5h-121v-184z" />
    <glyph glyph-name="lozenge" unicode="&#x25ca;" horiz-adv-x="1294" 
d="M442 0l-413 733l411 731h412l414 -733l-412 -731h-412zM647 317h4l213 408l-217 422h-4l-215 -410z" />
    <glyph glyph-name="zero.denominator" unicode="&#xe402;" horiz-adv-x="849" 
d="M424 -18q-164 0 -271.5 116t-107.5 308q0 191 106.5 307t272.5 116q171 0 276 -115.5t105 -307.5t-107 -308t-274 -116zM424 158q137 0 137 248q0 251 -137 251q-135 0 -135 -251q0 -248 135 -248z" />
    <glyph glyph-name="one.denominator" unicode="&#xe403;" horiz-adv-x="567" 
d="M223 0v446h-186v189q103 4 166 52t82 134h221v-821h-283z" />
    <glyph glyph-name="two.denominator" unicode="&#xe404;" horiz-adv-x="860" 
d="M57 0q0 164 105 266q38 37 83 68t111.5 68.5t89.5 52.5q39 25 56.5 47.5t17.5 52.5q0 74 -88 74q-50 0 -80 -35.5t-30 -97.5h-252q0 161 102 247t266 86q161 0 252.5 -74.5t91.5 -183.5q0 -124 -75 -190q-49 -45 -147.5 -98t-123.5 -76v-2h344v-205h-723z" />
    <glyph glyph-name="three.denominator" unicode="&#xe405;" horiz-adv-x="829" 
d="M438 -20q-188 0 -288.5 81t-102.5 213h250q10 -106 125 -106q50 0 76 22.5t26 61.5q0 82 -127 82h-47v164h39q121 0 121 75q0 33 -24 52.5t-66 19.5q-94 0 -105 -88h-243q5 118 100.5 195t259.5 77q151 0 243.5 -62.5t92.5 -174.5q0 -97 -113 -156v-2q133 -56 133 -194
q0 -130 -96.5 -195t-253.5 -65z" />
    <glyph glyph-name="four.denominator" unicode="&#xe406;" horiz-adv-x="862" 
d="M432 821h268v-471h117v-184h-117v-166h-270v166h-393v203zM430 578h-2l-199 -226v-2h201v228z" />
    <glyph glyph-name="five.denominator" unicode="&#xe407;" horiz-adv-x="813" 
d="M406 -20q-150 0 -251.5 71t-113.5 193h240q7 -36 40 -56t80 -20q48 0 77.5 31.5t29.5 83.5q0 53 -28 80.5t-79 27.5q-34 0 -62.5 -12.5t-41.5 -34.5h-225l88 469h549v-192h-369l-27 -121h4q59 51 166 51q127 0 205 -70t78 -192q0 -141 -97.5 -225t-262.5 -84z" />
    <glyph glyph-name="six.denominator" unicode="&#xe408;" horiz-adv-x="761" 
d="M399 -18q-183 0 -281 112t-98 312q0 192 99 309q97 114 280 114q132 0 216.5 -59t107.5 -166h-229q-20 66 -95 66q-60 0 -98 -46t-47 -132h2q76 69 184 69q126 0 214.5 -80t88.5 -209q0 -132 -95 -211t-249 -79zM391 152q56 0 90.5 33.5t34.5 86.5q0 54 -34 88.5
t-91 34.5t-92 -34.5t-35 -88.5q0 -53 35 -86.5t92 -33.5z" />
    <glyph glyph-name="seven.denominator" unicode="&#xe409;" horiz-adv-x="747" 
d="M168 0q10 347 270 596v2h-395v215h662v-190q-110 -106 -175 -266.5t-69 -356.5h-293z" />
    <glyph glyph-name="eight.denominator" unicode="&#xe40a;" horiz-adv-x="827" 
d="M412 -20q-180 0 -277.5 67.5t-97.5 179.5q0 63 39.5 114.5t109.5 80.5q-2 2 0 4q-54 26 -84 70.5t-30 97.5q0 102 92.5 168.5t247.5 66.5q159 0 250.5 -62t91.5 -167q0 -50 -30.5 -94.5t-80.5 -71.5v-4q70 -26 109 -79t39 -120q0 -116 -98 -183.5t-281 -67.5zM412 500
q45 0 70.5 24t25.5 62t-25.5 62t-70.5 24t-70 -24t-25 -62t25 -62t70 -24zM414 150q52 0 83 27.5t31 70.5q0 44 -31 72t-83 28q-49 0 -81 -28.5t-32 -71.5t32 -70.5t81 -27.5z" />
    <glyph glyph-name="nine.denominator" unicode="&#xe40b;" horiz-adv-x="755" 
d="M371 412q56 0 90.5 35t34.5 90q0 53 -34.5 87.5t-90.5 34.5t-91.5 -34.5t-35.5 -87.5q0 -55 35 -90t92 -35zM369 -18q-134 0 -223 61t-111 166h223q24 -66 104 -66q61 0 97.5 43t40.5 129h-2q-73 -69 -176 -69q-126 0 -215 80.5t-89 210.5q0 132 98 212t253 80
q151 0 241 -77q123 -103 123 -346q0 -208 -94 -316q-92 -108 -270 -108z" />
    <glyph glyph-name="zero.numerator" unicode="&#xe416;" horiz-adv-x="849" 
d="M424 633q-164 0 -271.5 116t-107.5 308q0 191 106.5 307.5t272.5 116.5q171 0 276 -115.5t105 -308.5q0 -192 -107 -308t-274 -116zM424 809q137 0 137 248q0 252 -137 252q-70 0 -102.5 -68t-32.5 -184q0 -248 135 -248z" />
    <glyph glyph-name="one.numerator" unicode="&#xe417;" horiz-adv-x="567" 
d="M223 651v447h-186v188q102 4 165.5 52t82.5 135h221v-822h-283z" />
    <glyph glyph-name="two.numerator" unicode="&#xe418;" horiz-adv-x="860" 
d="M57 651q0 165 105 267q38 37 83.5 68t110.5 67.5t90 52.5q39 25 56.5 47.5t17.5 52.5q0 74 -88 74q-50 0 -80 -35.5t-30 -97.5h-252q0 161 102 247.5t266 86.5q161 0 252.5 -74.5t91.5 -183.5q0 -125 -75 -191q-49 -45 -147.5 -98t-123.5 -76v-2h344v-205h-723z" />
    <glyph glyph-name="three.numerator" unicode="&#xe419;" horiz-adv-x="829" 
d="M438 631q-187 0 -288 81.5t-103 213.5h250q11 -107 125 -107q50 0 76 22.5t26 61.5q0 82 -127 82h-47v164h39q121 0 121 76q0 33 -24 52t-66 19q-94 0 -105 -88h-243q5 118 101 195.5t259 77.5q151 0 243.5 -63t92.5 -175q0 -97 -113 -156v-2q133 -56 133 -194
q0 -130 -96.5 -195t-253.5 -65z" />
    <glyph glyph-name="four.numerator" unicode="&#xe41a;" horiz-adv-x="862" 
d="M432 1473h268v-472h117v-184h-117v-166h-270v166h-393v203zM430 1229h-2l-199 -225v-3h201v228z" />
    <glyph glyph-name="five.numerator" unicode="&#xe41b;" horiz-adv-x="813" 
d="M406 631q-150 0 -251.5 71t-113.5 193h240q7 -36 40 -56t80 -20q48 0 77.5 31.5t29.5 83.5q0 53 -28 80.5t-79 27.5q-34 0 -62.5 -12.5t-41.5 -34.5h-225l88 469h549v-192h-369l-27 -121h4q59 51 166 51q127 0 205 -70t78 -192q0 -141 -97.5 -225t-262.5 -84z" />
    <glyph glyph-name="six.numerator" unicode="&#xe41c;" horiz-adv-x="761" 
d="M399 633q-183 0 -281 112t-98 312q0 192 99 309q98 115 280 115q132 0 216.5 -59t107.5 -167h-229q-20 66 -95 66q-60 0 -98 -46t-47 -132h2q76 69 184 69q126 0 214.5 -79.5t88.5 -208.5q0 -132 -95 -211.5t-249 -79.5zM391 803q56 0 90.5 34t34.5 87q0 54 -34 88.5
t-91 34.5t-92 -34.5t-35 -88.5q0 -53 35 -87t92 -34z" />
    <glyph glyph-name="seven.numerator" unicode="&#xe41d;" horiz-adv-x="747" 
d="M168 651q10 347 270 596v2h-395v215h662v-190q-110 -106 -175 -266.5t-69 -356.5h-293z" />
    <glyph glyph-name="eight.numerator" unicode="&#xe41e;" horiz-adv-x="827" 
d="M412 631q-180 0 -277.5 68t-97.5 180q0 63 39 114t110 80q-2 2 0 4q-54 26 -84 70.5t-30 97.5q0 102 92.5 169t247.5 67q159 0 250.5 -62.5t91.5 -167.5q0 -50 -30.5 -94.5t-80.5 -71.5v-4q70 -26 109 -78.5t39 -119.5q0 -116 -98 -184t-281 -68zM412 1151q45 0 70.5 24
t25.5 62t-25.5 62t-70.5 24t-70 -24t-25 -62t25 -62t70 -24zM414 801q52 0 83 27.5t31 70.5q0 44 -31 72t-83 28q-49 0 -81 -28.5t-32 -71.5t32 -70.5t81 -27.5z" />
    <glyph glyph-name="nine.numerator" unicode="&#xe41f;" horiz-adv-x="755" 
d="M371 1063q56 0 90.5 35t34.5 90q0 53 -34.5 88t-90.5 35t-91.5 -35t-35.5 -88q0 -54 35 -89.5t92 -35.5zM369 633q-134 0 -223 61t-111 166h223q24 -65 104 -65q61 0 97.5 43t40.5 129h-2q-74 -70 -176 -70q-126 0 -215 80.5t-89 210.5q0 132 98 212.5t253 80.5
q150 0 241 -78q123 -103 123 -346q0 -208 -94 -316q-92 -108 -270 -108z" />
    <glyph glyph-name="R.alt" unicode="&#xe491;" horiz-adv-x="1425" 
d="M516 799h246q79 0 124.5 41.5t45.5 115.5t-45.5 114t-128.5 40h-242v-311zM88 0v1464h688q272 0 418 -131q164 -145 164 -383q0 -135 -68 -242.5t-186 -170.5l315 -537h-473l-254 471h-176v-471h-428z" />
    <glyph glyph-name="a.alt" unicode="&#xe4c0;" horiz-adv-x="1144" 
d="M516 203q74 0 125 44t51 132v92q-63 -31 -149 -49q-83 -18 -115.5 -45t-32.5 -74q0 -49 35 -74.5t86 -25.5zM371 -27q-156 0 -252 82t-96 232q0 67 20.5 119.5t54 86.5t84 58.5t102.5 37t117 19.5q165 19 223 43t58 74q0 100 -111 100q-61 0 -95 -33t-42 -92h-366
q3 79 35 146.5t92 119.5t154 81.5t214 29.5q248 0 379 -96q66 -52 95.5 -118.5t29.5 -168.5v-395q0 -47 16.5 -60t49.5 -8h6v-219q-73 -30 -170 -30q-117 0 -179 33.5t-81 105.5h-4q-109 -148 -334 -148z" />
    <glyph glyph-name="uniF8FF" unicode="&#xf8ff;" horiz-adv-x="1732" 
d="M133 0v1466h1466v-1466h-1466zM719 242h295v346h344v295h-344v334h-295v-334h-344v-295h344v-346z" />
    <glyph glyph-name="idotaccent" horiz-adv-x="526" 
d="M473 1288q0 -85 -59 -139.5t-152 -54.5q-92 0 -150.5 54.5t-58.5 139.5t58.5 140t150.5 55q93 0 152 -55t59 -140zM70 0v1044h387v-1044h-387z" />
    <glyph glyph-name="space_uni0326" 
d="M383 -522v116q48 9 79.5 33t37.5 58q-61 0 -102.5 32t-41.5 88q0 52 42.5 87.5t111.5 35.5q74 0 119 -48.5t45 -131.5q0 -114 -81 -187.5t-210 -82.5z" />
    <glyph glyph-name="Racute.alt" horiz-adv-x="1425" 
d="M516 799h246q79 0 124.5 41.5t45.5 115.5t-45.5 114t-128.5 40h-242v-311zM88 0v1464h688q272 0 418 -131q164 -145 164 -383q0 -135 -68 -242.5t-186 -170.5l315 -537h-473l-254 471h-176v-471h-428zM551 1528l88 276h440l-237 -276h-291z" />
    <glyph glyph-name="Rcaron.alt" horiz-adv-x="1425" 
d="M516 799h246q79 0 124.5 41.5t45.5 115.5t-45.5 114t-128.5 40h-242v-311zM88 0v1464h688q272 0 418 -131q164 -145 164 -383q0 -135 -68 -242.5t-186 -170.5l315 -537h-473l-254 471h-176v-471h-428zM537 1528l-240 280h319l86 -104h5l86 104h329l-243 -280h-342z" />
    <glyph glyph-name="Rcommaaccent.alt" horiz-adv-x="1425" 
d="M516 799h246q79 0 124.5 41.5t45.5 115.5t-45.5 114t-128.5 40h-242v-311zM88 0v1464h688q272 0 418 -131q164 -145 164 -383q0 -135 -68 -242.5t-186 -170.5l315 -537h-473l-254 471h-176v-471h-428zM578 -522v116q48 9 79 32.5t37 58.5q-61 0 -102 32t-41 88
q0 52 42.5 87.5t111.5 35.5q74 0 118.5 -48.5t44.5 -131.5q0 -114 -80.5 -187.5t-209.5 -82.5z" />
    <glyph glyph-name="aacute.alt" horiz-adv-x="1144" 
d="M516 203q74 0 125 44t51 132v92q-63 -31 -149 -49q-83 -18 -115.5 -45t-32.5 -74q0 -49 35 -74.5t86 -25.5zM371 -27q-156 0 -252 82t-96 232q0 67 20.5 119.5t54 86.5t84 58.5t102.5 37t117 19.5q165 19 223 43t58 74q0 100 -111 100q-61 0 -95 -33t-42 -92h-366
q3 79 35 146.5t92 119.5t154 81.5t214 29.5q248 0 379 -96q66 -52 95.5 -118.5t29.5 -168.5v-395q0 -47 16.5 -60t49.5 -8h6v-219q-73 -30 -170 -30q-117 0 -179 33.5t-81 105.5h-4q-109 -148 -334 -148zM416 1159l119 318h444l-272 -318h-291z" />
    <glyph glyph-name="abreve.alt" horiz-adv-x="1144" 
d="M516 203q74 0 125 44t51 132v92q-63 -31 -149 -49q-83 -18 -115.5 -45t-32.5 -74q0 -49 35 -74.5t86 -25.5zM371 -27q-156 0 -252 82t-96 232q0 67 20.5 119.5t54 86.5t84 58.5t102.5 37t117 19.5q165 19 223 43t58 74q0 100 -111 100q-61 0 -95 -33t-42 -92h-366
q3 79 35 146.5t92 119.5t154 81.5t214 29.5q248 0 379 -96q66 -52 95.5 -118.5t29.5 -168.5v-395q0 -47 16.5 -60t49.5 -8h6v-219q-73 -30 -170 -30q-117 0 -179 33.5t-81 105.5h-4q-109 -148 -334 -148zM578 1143q-156 0 -260 86.5t-105 236.5h217q5 -42 43.5 -68
t101.5 -26q59 0 99 28.5t43 65.5h217q-3 -147 -102.5 -235t-253.5 -88z" />
    <glyph glyph-name="acircumflex.alt" horiz-adv-x="1144" 
d="M516 203q74 0 125 44t51 132v92q-63 -31 -149 -49q-83 -18 -115.5 -45t-32.5 -74q0 -49 35 -74.5t86 -25.5zM371 -27q-156 0 -252 82t-96 232q0 67 20.5 119.5t54 86.5t84 58.5t102.5 37t117 19.5q165 19 223 43t58 74q0 100 -111 100q-61 0 -95 -33t-42 -92h-366
q3 79 35 146.5t92 119.5t154 81.5t214 29.5q248 0 379 -96q66 -52 95.5 -118.5t29.5 -168.5v-395q0 -47 16.5 -60t49.5 -8h6v-219q-73 -30 -170 -30q-117 0 -179 33.5t-81 105.5h-4q-109 -148 -334 -148zM162 1159l244 305h342l239 -305h-319l-86 129h-4l-86 -129h-330z" />
    <glyph glyph-name="adieresis.alt" horiz-adv-x="1144" 
d="M516 203q74 0 125 44t51 132v92q-63 -31 -149 -49q-83 -18 -115.5 -45t-32.5 -74q0 -49 35 -74.5t86 -25.5zM371 -27q-156 0 -252 82t-96 232q0 67 20.5 119.5t54 86.5t84 58.5t102.5 37t117 19.5q165 19 223 43t58 74q0 100 -111 100q-61 0 -95 -33t-42 -92h-366
q3 79 35 146.5t92 119.5t154 81.5t214 29.5q248 0 379 -96q66 -52 95.5 -118.5t29.5 -168.5v-395q0 -47 16.5 -60t49.5 -8h6v-219q-73 -30 -170 -30q-117 0 -179 33.5t-81 105.5h-4q-109 -148 -334 -148zM997 1296q0 -79 -52.5 -130.5t-135.5 -51.5q-81 0 -134.5 52
t-53.5 130q0 80 53 131.5t135 51.5q83 0 135.5 -51.5t52.5 -131.5zM526 1296q0 -78 -53.5 -130t-134.5 -52q-83 0 -135.5 51.5t-52.5 130.5q0 80 52.5 131.5t135.5 51.5q82 0 135 -51.5t53 -131.5z" />
    <glyph glyph-name="agrave.alt" horiz-adv-x="1144" 
d="M516 203q74 0 125 44t51 132v92q-63 -31 -149 -49q-83 -18 -115.5 -45t-32.5 -74q0 -49 35 -74.5t86 -25.5zM371 -27q-156 0 -252 82t-96 232q0 67 20.5 119.5t54 86.5t84 58.5t102.5 37t117 19.5q165 19 223 43t58 74q0 100 -111 100q-61 0 -95 -33t-42 -92h-366
q3 79 35 146.5t92 119.5t154 81.5t214 29.5q248 0 379 -96q66 -52 95.5 -118.5t29.5 -168.5v-395q0 -47 16.5 -60t49.5 -8h6v-219q-73 -30 -170 -30q-117 0 -179 33.5t-81 105.5h-4q-109 -148 -334 -148zM459 1159l-273 318h445l119 -318h-291z" />
    <glyph glyph-name="amacron.alt" horiz-adv-x="1144" 
d="M516 203q74 0 125 44t51 132v92q-63 -31 -149 -49q-83 -18 -115.5 -45t-32.5 -74q0 -49 35 -74.5t86 -25.5zM371 -27q-156 0 -252 82t-96 232q0 67 20.5 119.5t54 86.5t84 58.5t102.5 37t117 19.5q165 19 223 43t58 74q0 100 -111 100q-61 0 -95 -33t-42 -92h-366
q3 79 35 146.5t92 119.5t154 81.5t214 29.5q248 0 379 -96q66 -52 95.5 -118.5t29.5 -168.5v-395q0 -47 16.5 -60t49.5 -8h6v-219q-73 -30 -170 -30q-117 0 -179 33.5t-81 105.5h-4q-109 -148 -334 -148zM279 1190v217h589v-217h-589z" />
    <glyph glyph-name="aogonek.alt" horiz-adv-x="1144" 
d="M991 -367q-270 0 -270 177q0 63 40 109t99 73q-127 24 -151 129h-4q-109 -148 -334 -148q-156 0 -252 82t-96 232q0 67 20.5 119.5t54 86.5t84 58.5t102.5 37t117 19.5q165 19 223 43t58 74q0 100 -111 100q-61 0 -95 -33t-42 -92h-366q3 79 35 146.5t92 119.5t154 81.5
t214 29.5q248 0 379 -96q66 -52 95.5 -118.5t29.5 -168.5v-395q0 -47 16.5 -60t49.5 -8h6v-219q-97 -60 -97 -133q0 -43 52 -43q21 0 41 4v-188q-55 -19 -144 -19zM516 203q74 0 125 44t51 132v92q-63 -31 -149 -49q-83 -18 -115.5 -45t-32.5 -74q0 -49 35 -74.5t86 -25.5z
" />
    <glyph glyph-name="aring.alt" horiz-adv-x="1144" 
d="M516 203q74 0 125 44t51 132v92q-63 -31 -149 -49q-83 -18 -115.5 -45t-32.5 -74q0 -49 35 -74.5t86 -25.5zM371 -27q-156 0 -252 82t-96 232q0 67 20.5 119.5t54 86.5t84 58.5t102.5 37t117 19.5q165 19 223 43t58 74q0 100 -111 100q-61 0 -95 -33t-42 -92h-366
q3 79 35 146.5t92 119.5t154 81.5t214 29.5q248 0 379 -96q66 -52 95.5 -118.5t29.5 -168.5v-395q0 -47 16.5 -60t49.5 -8h6v-219q-73 -30 -170 -30q-117 0 -179 33.5t-81 105.5h-4q-109 -148 -334 -148zM573 1137q-90 0 -154.5 60.5t-64.5 148.5t64.5 149t154.5 61t155 -61
t65 -149t-65 -148.5t-155 -60.5zM573 1268q34 0 56 23t22 55t-22 55.5t-56 23.5t-55.5 -23.5t-21.5 -55.5t21.5 -55t55.5 -23z" />
    <glyph glyph-name="atilde.alt" horiz-adv-x="1144" 
d="M516 203q74 0 125 44t51 132v92q-63 -31 -149 -49q-83 -18 -115.5 -45t-32.5 -74q0 -49 35 -74.5t86 -25.5zM371 -27q-156 0 -252 82t-96 232q0 67 20.5 119.5t54 86.5t84 58.5t102.5 37t117 19.5q165 19 223 43t58 74q0 100 -111 100q-61 0 -95 -33t-42 -92h-366
q3 79 35 146.5t92 119.5t154 81.5t214 29.5q248 0 379 -96q66 -52 95.5 -118.5t29.5 -168.5v-395q0 -47 16.5 -60t49.5 -8h6v-219q-73 -30 -170 -30q-117 0 -179 33.5t-81 105.5h-4q-109 -148 -334 -148zM201 1155q0 151 66.5 231t170.5 80q66 0 146 -39q63 -33 83 -37
q9 -1 19 -1q33 0 48 19.5t18 57.5h196q0 -139 -56.5 -220t-166.5 -81q-66 0 -141 33l-31 15.5t-26.5 12.5t-19 7.5t-20.5 6t-20 1.5q-29 0 -47 -22.5t-23 -63.5h-196z" />
    <glyph glyph-name="space_uni0326.alt" 
d="M643 1602v-117q-105 -20 -117 -90q61 0 102.5 -32.5t41.5 -88.5q0 -52 -42.5 -87.5t-111.5 -35.5q-74 0 -119 48.5t-45 131.5q0 114 81 188t210 83z" />
    <glyph glyph-name="registered.alt" horiz-adv-x="1675" 
d="M838 -35q-156 0 -295.5 58t-241 158.5t-160.5 242.5t-59 303q0 215 100.5 390.5t273.5 274.5t382 99q156 0 295.5 -58.5t240.5 -159t160 -243t59 -303.5q0 -215 -100.5 -390t-273 -273.5t-381.5 -98.5zM838 76q132 0 247.5 49.5t198 135.5t130.5 207t48 259t-48 259
t-130.5 207t-198 135.5t-247.5 49.5q-176 0 -319 -84.5t-224.5 -233.5t-81.5 -333t81.5 -333t224.5 -233.5t319 -84.5zM745 782h117q107 0 107 84q0 80 -103 80h-121v-164zM489 317v826h414q140 0 232 -62.5t92 -183.5q0 -141 -135 -199v-4q51 -20 78 -53.5t38 -85.5
q8 -37 11 -93t8 -87.5t20 -38.5v-19h-256q-11 6 -15 36t-7.5 77.5t-10.5 77.5q-12 50 -36 70t-76 20h-101v-281h-256z" />
    <glyph glyph-name="caron.alt" 
d="M371 1112l37 352h249l-88 -352h-198z" />
    <glyph glyph-name="dollar.cap" horiz-adv-x="1331" 
d="M463 1073q0 -41 35 -66t102 -44v221q-137 -16 -137 -111zM872 416q0 47 -33 74.5t-106 50.5v-250q65 8 102 39.5t37 85.5zM733 -233h-133v200q-171 13 -298.5 71t-203 167.5t-78.5 261.5h414q9 -78 48.5 -120t117.5 -54v285q-63 16 -106.5 28t-98 30.5t-92 37.5
t-78.5 44.5t-67 56t-48.5 68.5t-33 85.5t-10.5 103.5q0 111 40 197t113 140.5t168.5 84t212.5 35.5v135h133v-135q107 -7 197.5 -36.5t163 -81.5t115 -136t44.5 -191h-383q-10 57 -40.5 91t-96.5 45v-248q106 -26 181.5 -52t149 -66.5t118 -90t71.5 -121t27 -162.5
q0 -214 -150 -339t-397 -136v-198z" />
    <glyph glyph-name="Euro.cap" horiz-adv-x="1429" 
d="M797 -35q-253 0 -424 150t-228 403h-116v150h98q-2 31 -2 108h-96v150h114q52 258 225 413.5t427 155.5q280 0 436 -152.5t172 -404.5h-420q-11 106 -60.5 167.5t-136.5 61.5q-175 0 -219 -241h281v-150h-295v-108h295v-150h-279q51 -223 226 -223q95 0 145.5 66.5
t60.5 168.5h412q-15 -259 -174 -412t-442 -153z" />
    <glyph glyph-name="sterling.cap" horiz-adv-x="1280" 
d="M913 -35q-74 0 -140 16.5t-106.5 37t-95.5 37t-110 16.5q-61 0 -113.5 -23.5t-116.5 -71.5l-196 302q93 57 147 127.5t54 140.5q0 31 -7 71h-182v205h76q-55 94 -55 201q0 100 37 184.5t108.5 149t184.5 101t257 36.5q260 0 412 -119q92 -69 136.5 -169t47.5 -257h-391
q0 217 -196 217q-78 0 -120 -42t-42 -113q0 -84 61 -189h289v-205h-223v-16q0 -142 -148 -242l4 -6q62 27 146 27q83 0 154 -22.5t120 -22.5q93 0 182 80l162 -324q-64 -57 -153.5 -92t-182.5 -35z" />
    <glyph glyph-name="yen.cap" horiz-adv-x="1441" 
d="M506 0v244h-348v149h348v109h-348v149h295l-457 815h467l155 -315q24 -49 48.5 -107t37.5 -91l13 -33h4q47 120 100 231l156 315h455l-459 -815h295v-149h-348v-109h348v-149h-348v-244h-414z" />
    <glyph glyph-name="zero.cap" horiz-adv-x="1441" 
d="M719 -35q-148 0 -274 54t-216 152t-141 242t-51 316q0 171 51 315t141.5 242.5t216.5 153.5t273 55q309 0 497.5 -209.5t188.5 -556.5q0 -230 -87.5 -404t-242.5 -267t-356 -93zM721 295q128 0 189 114.5t61 319.5q0 204 -62.5 322t-189.5 118q-128 0 -188 -117t-60 -323
t60.5 -320t189.5 -114z" />
    <glyph glyph-name="one.cap" horiz-adv-x="897" 
d="M350 0v852h-299v293q161 6 269.5 92.5t138.5 239.5h319v-1477h-428z" />
    <glyph glyph-name="two.cap" horiz-adv-x="1296" 
d="M37 0q0 161 38 256.5t132 181.5q34 32 79 68.5t76 61t93.5 68.5t81.5 57.5t94 64.5t80 55q127 87 127 195q0 70 -44.5 110.5t-129.5 40.5q-106 0 -154 -63q-55 -69 -55 -203h-400q0 127 16 199t58 149q63 115 202 184.5t341 69.5q281 0 430 -130.5t149 -340.5
q0 -200 -118 -315q-79 -77 -253.5 -194t-240.5 -173v-4h604v-338h-1206z" />
    <glyph glyph-name="three.cap" horiz-adv-x="1341" 
d="M690 -37q-164 0 -279.5 32.5t-201.5 100.5q-180 145 -180 418h395q3 -108 62.5 -170.5t185.5 -62.5q97 0 148.5 47.5t51.5 120.5q0 161 -231 161h-84v277h72q104 0 161.5 37.5t57.5 111.5q0 65 -47 104.5t-131 39.5q-102 0 -152 -54t-59 -137h-387q0 224 160.5 365
t443.5 141q272 0 429 -111.5t157 -314.5q0 -187 -205 -283v-4q243 -99 243 -352q0 -95 -33.5 -173.5t-90.5 -132t-135 -90.5t-166.5 -54t-184.5 -17z" />
    <glyph glyph-name="four.cap" horiz-adv-x="1376" 
d="M727 0v330h-688v340l690 807h412v-842h202v-305h-202v-330h-414zM346 635h381v446h-4l-377 -442v-4z" />
    <glyph glyph-name="five.cap" horiz-adv-x="1329" 
d="M672 -37q-132 0 -241.5 29t-196.5 87t-141 152.5t-68 219.5h411q18 -78 79.5 -120t146.5 -42q95 0 151.5 61.5t56.5 167.5q0 96 -57.5 155.5t-153.5 59.5q-59 0 -107.5 -25t-76.5 -67h-391l156 823h954v-325h-657l-52 -232h4q34 42 113.5 71.5t173.5 29.5
q229 0 372.5 -135t143.5 -359q0 -258 -166 -404.5t-454 -146.5z" />
    <glyph glyph-name="six.cap" horiz-adv-x="1368" 
d="M717 -35q-327 0 -503.5 202t-176.5 562q0 358 174 555q186 211 508 211q236 0 387 -107t192 -301h-411q-36 117 -168 117q-109 0 -178 -82.5t-86 -238.5h6q130 127 327 127q148 0 271 -62t198.5 -181.5t75.5 -274.5q0 -238 -170.5 -382.5t-445.5 -144.5zM700 268
q101 0 164.5 64.5t63.5 159.5q0 97 -63.5 161t-164.5 64q-99 0 -162 -64.5t-63 -160.5q0 -95 63.5 -159.5t161.5 -64.5z" />
    <glyph glyph-name="seven.cap" horiz-adv-x="1196" 
d="M238 0q7 187 54.5 365.5t120.5 318t148.5 244t155.5 184.5v4h-684v348h1124v-301q-201 -203 -338 -514.5t-143 -648.5h-438z" />
    <glyph glyph-name="eight.cap" horiz-adv-x="1320" 
d="M657 -37q-291 0 -460.5 125t-169.5 324q0 235 241 348q-2 4 0 6q-184 97 -184 301q0 186 154.5 307t418.5 121q268 0 421 -115t153 -305q0 -89 -46.5 -166.5t-131.5 -128.5v-6q118 -49 179.5 -141t61.5 -213q0 -206 -172.5 -331.5t-464.5 -125.5zM657 891q87 0 140 46.5
t53 117.5t-53 117.5t-140 46.5t-138.5 -46t-51.5 -118t51.5 -118t138.5 -46zM662 262q95 0 155 51.5t60 135.5q0 85 -60 136.5t-155 51.5q-97 0 -159.5 -51.5t-62.5 -136.5q0 -84 62.5 -135.5t159.5 -51.5z" />
    <glyph glyph-name="nine.cap" horiz-adv-x="1353" 
d="M664 735q98 0 161.5 66.5t63.5 163.5q0 95 -63.5 160t-161.5 65q-101 0 -164.5 -64.5t-63.5 -160.5q0 -97 63.5 -163.5t164.5 -66.5zM659 -35q-243 0 -403 111.5t-197 300.5h404q18 -50 64 -85.5t122 -35.5q111 0 174 78q65 81 74 235h-6q-127 -127 -316 -127
q-150 0 -272 63.5t-195 183.5t-73 276q0 238 173 384t451 146q125 0 239.5 -38.5t195.5 -104.5q223 -182 223 -621q0 -171 -42.5 -320.5t-127.5 -248.5q-176 -197 -488 -197z" />
    <glyph glyph-name="percent.cap" horiz-adv-x="1808" 
d="M430 668q-169 0 -279 113t-110 298q0 184 109.5 298t279.5 114q175 0 284 -113.5t109 -298.5t-111 -298t-282 -113zM385 0l827 1464h209l-827 -1464h-209zM432 864q105 0 105 215q0 100 -25.5 159.5t-79.5 59.5q-104 0 -104 -219q0 -215 104 -215zM1374 -35
q-168 0 -278.5 113.5t-110.5 298.5q0 184 109.5 297.5t279.5 113.5q175 0 284 -113t109 -298t-111 -298.5t-282 -113.5zM1376 162q105 0 105 215q0 100 -25.5 159.5t-79.5 59.5q-104 0 -104 -219q0 -215 104 -215z" />
    <glyph glyph-name="perthousand.cap" horiz-adv-x="2656" 
d="M430 668q-169 0 -279 113t-110 298q0 184 109.5 298t279.5 114q175 0 284 -113.5t109 -298.5t-111 -298t-282 -113zM385 0l827 1464h209l-827 -1464h-209zM432 864q105 0 105 215q0 100 -25.5 159.5t-79.5 59.5q-104 0 -104 -219q0 -215 104 -215zM2222 -35
q-168 0 -278.5 113.5t-110.5 298.5q0 184 109.5 297.5t279.5 113.5q175 0 284 -113t109 -298t-111 -298.5t-282 -113.5zM1374 -35q-168 0 -278.5 113.5t-110.5 298.5q0 184 109.5 297.5t279.5 113.5q175 0 284 -113t109 -298t-111 -298.5t-282 -113.5zM2224 162
q105 0 105 215q0 100 -25.5 159.5t-79.5 59.5q-104 0 -104 -219q0 -215 104 -215zM1376 162q105 0 105 215q0 100 -25.5 159.5t-79.5 59.5q-104 0 -104 -219q0 -215 104 -215z" />
    <glyph glyph-name="questiondown.cap" horiz-adv-x="1163" 
d="M778 936q0 -146 -10 -194.5t-59 -102.5q-29 -32 -77 -62.5t-83 -49.5t-61.5 -52.5t-26.5 -77.5q0 -49 37.5 -77.5t93.5 -28.5q70 0 114 45.5t44 122.5h393q-3 -228 -160.5 -357t-421.5 -129q-149 0 -267.5 49t-187.5 143t-69 218q0 64 16 116t46 88.5t59.5 60t70.5 46.5
q20 11 60 32.5t54.5 30t33.5 22.5t29 28q19 26 24.5 53t5.5 76h342zM614 1061q-93 0 -153 58.5t-60 148.5q0 91 60.5 150t152.5 59t151.5 -59t59.5 -150t-59.5 -149t-151.5 -58z" />
    <glyph glyph-name="exclamdown.cap" horiz-adv-x="559" 
d="M383 936l96 -565v-371h-399v371l96 565h207zM281 1061q-93 0 -153 58.5t-60 148.5q0 91 60.5 150t152.5 59t151.5 -59t59.5 -150t-59.5 -149t-151.5 -58z" />
    <glyph glyph-name="hyphen.cap" horiz-adv-x="698" 
d="M39 481v375h620v-375h-620z" />
    <glyph glyph-name="endash.cap" horiz-adv-x="1202" 
d="M86 504v334h1030v-334h-1030z" />
    <glyph glyph-name="emdash.cap" horiz-adv-x="2000" 
d="M86 504v334h1829v-334h-1829z" />
    <glyph glyph-name="guilsinglleft.cap" horiz-adv-x="516" 
d="M430 168l-360 291v372l360 289v-344l-168 -131v-4l168 -131v-342z" />
    <glyph glyph-name="guilsinglright.cap" horiz-adv-x="516" 
d="M86 168v344l168 131v4l-168 131v342l360 -291v-372z" />
    <glyph glyph-name="guillemotleft.cap" horiz-adv-x="884" 
d="M799 193l-326 270v368l326 265v-322l-160 -131v-4l160 -131v-315zM403 193l-333 270v368l333 265v-322l-167 -131v-4l167 -131v-315z" />
    <glyph glyph-name="guillemotright.cap" horiz-adv-x="884" 
d="M481 193v321l168 131v4l-168 131v316l334 -271v-368zM86 193v321l160 131v4l-160 131v316l326 -271v-368z" />
    <glyph glyph-name="parenleft.cap" horiz-adv-x="686" 
d="M315 -182q-221 386 -221 831q0 281 60.5 519t160.5 407h328q-85 -215 -132.5 -430t-47.5 -496q0 -108 12.5 -214t26.5 -178t44.5 -168.5t45.5 -137.5t51 -133h-328z" />
    <glyph glyph-name="parenright.cap" horiz-adv-x="686" 
d="M43 -182q85 215 132.5 430t47.5 495q0 108 -12.5 214t-26.5 178.5t-44.5 168.5t-46 138t-50.5 133h328q221 -386 221 -832q0 -281 -60.5 -518.5t-160.5 -406.5h-328z" />
    <glyph glyph-name="bracketleft.cap" horiz-adv-x="847" 
d="M104 -182v1757h672v-297h-309v-1167h309v-293h-672z" />
    <glyph glyph-name="bracketright.cap" horiz-adv-x="847" 
d="M72 -182v293h309v1167h-309v297h671v-1757h-671z" />
    <glyph glyph-name="braceleft.cap" horiz-adv-x="847" 
d="M739 -182q-139 0 -231 18t-158.5 64t-96.5 126.5t-30 202.5v174q0 73 -40 109.5t-132 40.5v287q92 4 132 40t40 109v174q0 122 30 202.5t96.5 126.5t158.5 64.5t231 18.5h37v-297h-18q-97 0 -134.5 -21.5t-37.5 -91.5v-235q0 -70 -17.5 -115t-46.5 -69.5t-80 -45.5v-6
q51 -21 80 -45t46.5 -69t17.5 -115v-238q0 -70 38 -93t134 -23h18v-293h-37z" />
    <glyph glyph-name="braceright.cap" horiz-adv-x="847" 
d="M72 -182v293h18q97 0 134.5 21t37.5 91v240q0 70 17.5 115t46.5 69t80 45v6q-51 21 -80 45.5t-46.5 69.5t-17.5 115v233q0 70 -38 93.5t-134 23.5h-18v297h37q139 0 231 -18.5t158.5 -64.5t96.5 -126.5t30 -202.5v-174q0 -73 40 -109t132 -40v-287q-91 -4 -131.5 -40.5
t-40.5 -109.5v-174q0 -122 -30 -202.5t-96.5 -126.5t-158.5 -64t-231 -18h-37z" />
    <glyph glyph-name="grave.cap" 
d="M408 1528l-238 276h440l88 -276h-290z" />
    <glyph glyph-name="dieresis.cap" 
d="M465 1710q0 -78 -53.5 -130t-135.5 -52q-83 0 -135.5 51.5t-52.5 130.5q0 80 52.5 131t135.5 51q82 0 135.5 -51.5t53.5 -130.5zM936 1710q0 -79 -52.5 -130.5t-135.5 -51.5q-82 0 -135.5 52t-53.5 130q0 79 53.5 130.5t135.5 51.5q83 0 135.5 -51t52.5 -131z" />
    <glyph glyph-name="macron.cap" 
d="M217 1559v217h590v-217h-590z" />
    <glyph glyph-name="acute.cap" 
d="M326 1528l88 276h440l-238 -276h-290z" />
    <glyph glyph-name="circumflex.cap" 
d="M98 1528l244 280h342l240 -280h-320l-86 104h-4l-86 -104h-330z" />
    <glyph glyph-name="caron.cap" 
d="M340 1528l-240 280h320l86 -104h4l86 104h330l-244 -280h-342z" />
    <glyph glyph-name="breve.cap" 
d="M555 1511q-102 0 -183.5 37t-131 111.5t-50.5 175.5h218q5 -42 43.5 -68t101.5 -26q59 0 98.5 28.5t42.5 65.5h217q-3 -147 -102.5 -235.5t-253.5 -88.5z" />
    <glyph glyph-name="dotaccent.cap" 
d="M721 1722q0 -85 -59 -139.5t-152 -54.5q-92 0 -150.5 54.5t-58.5 139.5t58.5 140t150.5 55q93 0 152 -55t59 -140z" />
    <glyph glyph-name="ring.cap" 
d="M512 1505q-90 0 -154.5 60.5t-64.5 148.5q0 89 64.5 150t154.5 61t154.5 -61t64.5 -150q0 -88 -64.5 -148.5t-154.5 -60.5zM512 1636q34 0 56 23t22 55t-22 56t-56 24t-56 -24t-22 -56t22 -55t56 -23z" />
    <glyph glyph-name="tilde.cap" 
d="M137 1524q0 151 67 231t171 80q65 0 145 -39q5 -2 16 -8t14 -8t11.5 -6t11.5 -5.5t10 -4t10.5 -3.5t9 -2t10.5 -1.5t10 -0.5q33 0 47.5 19.5t17.5 58.5h197q0 -139 -56.5 -220t-166.5 -81q-67 0 -142 33l-31 15.5t-26.5 12.5t-19 7.5t-20.5 6t-20 1.5q-60 0 -69 -86h-197
z" />
    <glyph glyph-name="hungarumlaut.cap" 
d="M602 1528l119 317h383l-258 -317h-244zM158 1528l118 317h383l-258 -317h-243z" />
    <glyph glyph-name="eight.subscript" horiz-adv-x="827" 
d="M412 -188q-180 0 -277.5 67.5t-97.5 179.5q0 63 39.5 114.5t109.5 80.5q-2 2 0 4q-54 26 -84 70.5t-30 97.5q0 102 92.5 169t247.5 67q159 0 250.5 -62.5t91.5 -167.5q0 -50 -30.5 -94.5t-80.5 -71.5v-4q70 -26 109 -79t39 -120q0 -116 -98 -183.5t-281 -67.5zM412 332
q45 0 70.5 24t25.5 62t-25.5 62t-70.5 24t-70 -24t-25 -62t25 -62t70 -24zM414 -18q52 0 83 27.5t31 70.5q0 44 -31 72t-83 28q-49 0 -81 -28.5t-32 -71.5t32 -70.5t81 -27.5z" />
    <glyph glyph-name="eight.superscript" horiz-adv-x="827" 
d="M412 631q-180 0 -277.5 68t-97.5 180q0 63 39 114t110 80q-2 2 0 4q-54 26 -84 70.5t-30 97.5q0 102 92.5 169t247.5 67q159 0 250.5 -62.5t91.5 -167.5q0 -50 -30.5 -94.5t-80.5 -71.5v-4q70 -26 109 -78.5t39 -119.5q0 -116 -98 -184t-281 -68zM412 1151q45 0 70.5 24
t25.5 62t-25.5 62t-70.5 24t-70 -24t-25 -62t25 -62t70 -24zM414 801q52 0 83 27.5t31 70.5q0 44 -31 72t-83 28q-49 0 -81 -28.5t-32 -71.5t32 -70.5t81 -27.5z" />
    <glyph glyph-name="five.subscript" horiz-adv-x="813" 
d="M406 -188q-150 0 -251.5 71t-113.5 193h240q7 -36 40 -56t80 -20q48 0 77.5 31.5t29.5 83.5q0 53 -28 80.5t-79 27.5q-34 0 -62.5 -12.5t-41.5 -34.5h-225l88 469h549v-192h-369l-27 -121h4q59 51 166 51q127 0 205 -70t78 -192q0 -141 -97.5 -225t-262.5 -84z" />
    <glyph glyph-name="five.superscript" horiz-adv-x="813" 
d="M406 631q-150 0 -251.5 71t-113.5 193h240q7 -36 40 -56t80 -20q48 0 77.5 31.5t29.5 83.5q0 53 -28 80.5t-79 27.5q-34 0 -62.5 -12.5t-41.5 -34.5h-225l88 469h549v-192h-369l-27 -121h4q59 51 166 51q127 0 205 -70t78 -192q0 -141 -97.5 -225t-262.5 -84z" />
    <glyph glyph-name="four.subscript" horiz-adv-x="862" 
d="M432 653h268v-471h117v-184h-117v-166h-270v166h-393v203zM430 410h-2l-199 -226v-2h201v228z" />
    <glyph glyph-name="four.superscript" horiz-adv-x="862" 
d="M432 1473h268v-472h117v-184h-117v-166h-270v166h-393v203zM430 1229h-2l-199 -225v-3h201v228z" />
    <glyph glyph-name="nine.subscript" horiz-adv-x="755" 
d="M371 244q56 0 90.5 35t34.5 90q0 53 -34.5 88t-90.5 35t-91.5 -35t-35.5 -88q0 -55 35 -90t92 -35zM369 -186q-134 0 -223 61t-111 166h223q24 -66 104 -66q61 0 97.5 43t40.5 129h-2q-73 -69 -176 -69q-126 0 -215 80.5t-89 210.5q0 132 98 212.5t253 80.5
q150 0 241 -78q123 -103 123 -346q0 -208 -94 -316q-92 -108 -270 -108z" />
    <glyph glyph-name="nine.superscript" horiz-adv-x="755" 
d="M371 1063q56 0 90.5 35t34.5 90q0 53 -34.5 88t-90.5 35t-91.5 -35t-35.5 -88q0 -54 35 -89.5t92 -35.5zM369 633q-134 0 -223 61t-111 166h223q24 -65 104 -65q61 0 97.5 43t40.5 129h-2q-74 -70 -176 -70q-126 0 -215 80.5t-89 210.5q0 132 98 212.5t253 80.5
q150 0 241 -78q123 -103 123 -346q0 -208 -94 -316q-92 -108 -270 -108z" />
    <glyph glyph-name="one.subscript" horiz-adv-x="567" 
d="M223 -168v447h-186v188q103 4 166 52t82 134h221v-821h-283z" />
    <glyph glyph-name="one.superscript" horiz-adv-x="567" 
d="M223 651v447h-186v188q102 4 165.5 52t82.5 135h221v-822h-283z" />
    <glyph glyph-name="seven.subscript" horiz-adv-x="747" 
d="M168 -168q10 347 270 596v2h-395v215h662v-190q-110 -106 -175 -266.5t-69 -356.5h-293z" />
    <glyph glyph-name="seven.superscript" horiz-adv-x="747" 
d="M168 651q10 347 270 596v2h-395v215h662v-190q-110 -106 -175 -266.5t-69 -356.5h-293z" />
    <glyph glyph-name="six.subscript" horiz-adv-x="761" 
d="M399 -186q-183 0 -281 112t-98 312q0 192 99 309q98 115 280 115q132 0 216.5 -59t107.5 -167h-229q-20 66 -95 66q-60 0 -98 -46t-47 -132h2q76 69 184 69q126 0 214.5 -80t88.5 -209q0 -132 -95 -211t-249 -79zM391 -16q56 0 90.5 33.5t34.5 86.5q0 54 -34 88.5
t-91 34.5t-92 -34.5t-35 -88.5q0 -53 35 -86.5t92 -33.5z" />
    <glyph glyph-name="six.superscript" horiz-adv-x="761" 
d="M399 633q-183 0 -281 112t-98 312q0 192 99 309q98 115 280 115q132 0 216.5 -59t107.5 -167h-229q-20 66 -95 66q-60 0 -98 -46t-47 -132h2q76 69 184 69q126 0 214.5 -79.5t88.5 -208.5q0 -132 -95 -211.5t-249 -79.5zM391 803q56 0 90.5 34t34.5 87q0 54 -34 88.5
t-91 34.5t-92 -34.5t-35 -88.5q0 -53 35 -87t92 -34z" />
    <glyph glyph-name="three.subscript" horiz-adv-x="829" 
d="M438 -188q-188 0 -288.5 81t-102.5 213h250q10 -106 125 -106q50 0 76 22.5t26 61.5q0 82 -127 82h-47v164h39q121 0 121 76q0 33 -24 52t-66 19q-94 0 -105 -88h-243q5 118 101 195.5t259 77.5q151 0 243.5 -63t92.5 -175q0 -97 -113 -156v-2q133 -56 133 -194
q0 -130 -96.5 -195t-253.5 -65z" />
    <glyph glyph-name="three.superscript" horiz-adv-x="829" 
d="M438 631q-187 0 -288 81.5t-103 213.5h250q11 -107 125 -107q50 0 76 22.5t26 61.5q0 82 -127 82h-47v164h39q121 0 121 76q0 33 -24 52t-66 19q-94 0 -105 -88h-243q5 118 101 195.5t259 77.5q151 0 243.5 -63t92.5 -175q0 -97 -113 -156v-2q133 -56 133 -194
q0 -130 -96.5 -195t-253.5 -65z" />
    <glyph glyph-name="two.subscript" horiz-adv-x="860" 
d="M57 -168q0 164 105 266q38 37 83 68t111.5 68.5t89.5 52.5q39 25 56.5 47.5t17.5 52.5q0 74 -88 74q-50 0 -80 -35.5t-30 -97.5h-252q0 161 102 247.5t266 86.5q161 0 252.5 -74.5t91.5 -184.5q0 -124 -75 -190q-49 -45 -147.5 -98t-123.5 -76v-2h344v-205h-723z" />
    <glyph glyph-name="two.superscript" horiz-adv-x="860" 
d="M57 651q0 165 105 267q38 37 83.5 68t110.5 67.5t90 52.5q39 25 56.5 47.5t17.5 52.5q0 74 -88 74q-50 0 -80 -35.5t-30 -97.5h-252q0 161 102 247.5t266 86.5q161 0 252.5 -74.5t91.5 -183.5q0 -125 -75 -191q-49 -45 -147.5 -98t-123.5 -76v-2h344v-205h-723z" />
    <glyph glyph-name="zero.subscript" horiz-adv-x="849" 
d="M424 -186q-164 0 -271.5 116t-107.5 308q0 191 106.5 307.5t272.5 116.5q171 0 276 -115.5t105 -308.5q0 -192 -107 -308t-274 -116zM424 -10q137 0 137 248q0 251 -137 251q-135 0 -135 -251q0 -248 135 -248z" />
    <glyph glyph-name="zero.superscript" horiz-adv-x="849" 
d="M424 633q-164 0 -271.5 116t-107.5 308q0 191 106.5 307.5t272.5 116.5q171 0 276 -115.5t105 -308.5q0 -192 -107 -308t-274 -116zM424 809q137 0 137 248q0 252 -137 252q-70 0 -102.5 -68t-32.5 -184q0 -248 135 -248z" />
    </font>
</defs>
</svg>
